<svg width="65" height="64" viewBox="0 0 65 64" fill="none" xmlns="http://www.w3.org/2000/svg">
<path d="M48.7643 50.6258C47.6653 45.2774 46.5563 39.9691 46.1217 32.9966C45.5922 24.5806 45.1725 19.4628 40.7515 15.6933C36.1257 11.7785 22.483 9.84868 18.7513 23.2673C18.007 25.934 17.9371 28.5254 17.7522 30.9816C17.0079 41.7536 14.9947 48.3501 13.8408 50.8964C13.4888 51.6948 13.3814 52.5801 13.5322 53.4398C13.683 54.2995 14.0852 55.0948 14.6877 55.7246C15.2901 56.3543 16.0656 56.7901 16.9155 56.9765C17.7654 57.1628 18.6514 57.0913 19.4607 56.7711L20.3199 56.4253C20.862 56.2112 21.4545 56.1602 22.0249 56.2786C22.5954 56.397 23.1191 56.6796 23.532 57.0919L26.2446 59.7837C27.2792 60.8204 28.6744 61.4139 30.1363 61.4391C31.5983 61.4644 33.013 60.9194 34.0825 59.919L37.3096 56.9115C37.7401 56.5112 38.2782 56.2465 38.8572 56.1503C39.4362 56.0541 40.0306 56.1305 40.5667 56.3701C42.5649 57.2824 45.5622 57.2373 47.1707 55.7135C47.8478 55.073 48.3499 54.269 48.6289 53.3782C48.9079 52.4874 48.9545 51.5398 48.7643 50.6258Z" fill="#9AB8FF"/>
<path d="M28.3606 24.3807C28.4468 24.7293 28.386 25.0963 28.1913 25.4025C27.9966 25.7088 27.6836 25.9299 27.3196 26.0183C26.6328 26.1053 25.9889 25.5065 25.8762 24.6827C25.7913 24.3335 25.8526 23.9665 26.047 23.6598C26.2414 23.353 26.5536 23.1307 26.9172 23.04C27.2936 23.0399 27.6552 23.18 27.9248 23.4304C28.1945 23.6809 28.3509 24.0219 28.3606 24.3807Z" fill="#2A283D"/>
<path d="M37.561 25.3635C37.4073 25.5944 37.2019 25.7769 36.9683 25.8899C36.7347 26.003 36.4823 26.042 36.2403 26.0026C35.9982 25.9632 35.7762 25.8469 35.5998 25.667C35.4235 25.4872 35.2998 25.2512 35.2432 24.986C35.1865 24.7209 35.1992 24.4374 35.2796 24.1682C35.36 23.899 35.505 23.6549 35.6979 23.4641C35.8908 23.2732 36.1237 23.1433 36.3699 23.0893C36.6162 23.0353 36.8657 23.0593 37.0899 23.1587C37.4134 23.3638 37.6435 23.7084 37.7314 24.1198C37.8193 24.5312 37.7582 24.9771 37.561 25.3635Z" fill="#2A283D"/>
<path d="M22.8525 54.1867C22.8525 54.1867 25.6786 43.3875 24.8253 38.0582C23.9721 32.7289 23.543 51.7328 22.8525 54.1867Z" fill="#6A9FFF"/>
<path d="M37.7858 53.3333C36.3928 49.0629 35.8428 44.5206 36.1716 40.003C36.752 32.5824 37.7858 53.3333 37.7858 53.3333Z" fill="#6A9FFF"/>
<path d="M34.3709 8.85871L34.033 3.82704C34.0257 3.70953 33.9952 3.59462 33.9433 3.48888C33.8914 3.38314 33.8192 3.28863 33.7308 3.21076C33.6424 3.13289 33.5394 3.07317 33.4279 3.03503C33.3164 2.99688 33.1984 2.98104 33.0807 2.98843C32.9631 2.99581 32.848 3.02627 32.7421 3.07806C32.6362 3.12986 32.5416 3.20197 32.4636 3.29029C32.3857 3.3786 32.3259 3.48139 32.2877 3.59278C32.2495 3.70418 32.2336 3.82199 32.241 3.93951L32.5789 8.97606C32.5887 9.12494 32.6355 9.26903 32.715 9.39536C32.7945 9.52169 32.9042 9.6263 33.0342 9.69976C33.1839 9.78163 33.3534 9.82055 33.5238 9.81223C33.6422 9.80537 33.7581 9.77524 33.8648 9.72357C33.9715 9.6719 34.0669 9.5997 34.1456 9.51111C34.2243 9.42252 34.2847 9.31929 34.3234 9.20734C34.362 9.09538 34.3782 8.97691 34.3709 8.85871Z" fill="#6A9FFF"/>
<path d="M45.3123 6.54205C45.444 6.34653 45.4934 6.11105 45.4507 5.88246C45.4081 5.65387 45.2764 5.44892 45.0819 5.30841C44.8875 5.1679 44.6445 5.10213 44.4013 5.12417C44.1581 5.14622 43.9326 5.25447 43.7696 5.42738L40.5575 9.60487C40.4203 9.76911 40.3457 9.97262 40.3457 10.1823C40.3457 10.392 40.4203 10.5955 40.5575 10.7597C40.602 10.8111 40.6535 10.8567 40.7107 10.8953C40.9118 11.0464 41.1678 11.1154 41.4224 11.0871C41.677 11.0589 41.9094 10.9357 42.0684 10.7446L45.3123 6.54205Z" fill="#6A9FFF"/>
<path d="M49.9936 14.7154C50.2154 14.623 50.3956 14.4436 50.497 14.2141C50.5984 13.9845 50.6134 13.7223 50.5389 13.4813C50.4644 13.2404 50.306 13.039 50.0963 12.9187C49.8867 12.7983 49.6418 12.7681 49.4119 12.8344L45.2587 14.2734C45.0571 14.3423 44.8836 14.4824 44.7668 14.6706C44.65 14.8587 44.5969 15.0836 44.6162 15.3082C44.6217 15.3803 44.637 15.4511 44.6617 15.5184C44.7352 15.7679 44.8981 15.9763 45.115 16.0984C45.332 16.2206 45.5854 16.2465 45.8202 16.1706L49.9936 14.7154Z" fill="#6A9FFF"/>
</svg>
