<svg width="40" height="40" viewBox="0 0 40 40" fill="none" xmlns="http://www.w3.org/2000/svg">
<path d="M15.3124 32.072C15.3124 32.072 14.9818 34.3094 17.3684 34.6134C20.0698 34.9574 20.0778 32.5974 20.0778 32.5974L15.3124 32.072Z" fill="#2F1B77"/>
<path d="M28.7198 18.9974C28.7198 14.368 24.7918 10.616 19.9464 10.616C15.1011 10.616 11.1758 14.368 11.1758 18.9974C11.1785 20.9648 11.8948 22.8645 13.1918 24.344L13.8664 29.1787L22.4744 30.4934L24.5331 26.1334C25.794 25.4138 26.8442 24.3762 27.5788 23.1241C28.3134 21.872 28.7068 20.449 28.7198 18.9974Z" fill="#F9AF1F"/>
<path d="M13.9277 30.488L14.0877 32C14.1001 32.113 14.1503 32.2185 14.2302 32.2993C14.31 32.3801 14.4149 32.4316 14.5277 32.4454L20.9277 33.2107C21.0374 33.226 21.149 33.2048 21.2454 33.1504C21.3418 33.0959 21.4176 33.0112 21.461 32.9094L22.2184 31.1414C22.2496 31.0678 22.2628 30.9879 22.2568 30.9083C22.2509 30.8286 22.226 30.7516 22.1843 30.6835C22.1426 30.6154 22.0852 30.5582 22.0169 30.5168C21.9486 30.4754 21.8714 30.4509 21.7917 30.4454L14.4824 29.936C14.4077 29.9276 14.3321 29.9361 14.2612 29.9608C14.1902 29.9855 14.1257 30.0258 14.0725 30.0788C14.0192 30.1318 13.9786 30.1961 13.9535 30.267C13.9285 30.3378 13.9196 30.4133 13.9277 30.488Z" fill="#A16CF8"/>
<path d="M19.2481 29.672L18.4668 29.5707C18.4935 29.3573 19.0481 25.1653 19.4588 22.7547C19.1415 22.7547 18.8161 22.7333 18.4935 22.7013C18.4324 23.5478 18.3175 24.3895 18.1495 25.2213C17.7708 27.2053 17.2188 29.0427 17.2135 29.0613L16.4588 28.8347C17.3041 26.0373 17.6428 23.9733 17.7041 22.6027C16.7361 22.4427 15.8935 22.1707 15.5095 21.8213C15.333 21.6667 15.2026 21.4664 15.1325 21.2425C15.0625 21.0186 15.0554 20.7797 15.1121 20.552C15.1811 20.2873 15.3188 20.0456 15.5113 19.8512C15.7037 19.6569 15.9441 19.5169 16.2081 19.4453C16.5277 19.3736 16.8609 19.3906 17.1715 19.4945C17.4822 19.5984 17.7586 19.7851 17.9708 20.0347C18.3121 20.3867 18.5041 21.0107 18.5041 21.9227C18.8647 21.9608 19.2269 21.9803 19.5895 21.9813C19.6241 21.808 19.6561 21.6533 19.6855 21.5253C19.9521 20.3067 20.8881 19.7707 21.6215 19.8853C22.1815 19.9733 22.7068 20.4773 22.6215 21.4027C22.5921 21.7307 22.4028 22.1787 21.6588 22.4693C21.2058 22.6261 20.7324 22.7159 20.2535 22.736C19.8508 25.1173 19.2535 29.6187 19.2481 29.672ZM21.4321 20.6587C21.1041 20.6587 20.6321 20.96 20.4615 21.6987C20.4428 21.7733 20.4268 21.8533 20.4081 21.944C20.7403 21.9163 21.0675 21.8455 21.3815 21.7333C21.5841 21.6533 21.8295 21.52 21.8455 21.3333C21.8615 21.1467 21.8615 20.72 21.5068 20.664L21.4321 20.6587ZM16.6081 20.1813C16.5434 20.1813 16.4789 20.1893 16.4161 20.2053C16.2885 20.2401 16.1722 20.3076 16.0786 20.4012C15.9851 20.4947 15.9176 20.611 15.8828 20.7387C15.859 20.8293 15.862 20.9248 15.8913 21.0138C15.9207 21.1027 15.9751 21.1813 16.0481 21.24C16.2881 21.4613 16.9308 21.6693 17.7121 21.808C17.6801 21.1467 17.5628 20.7413 17.4081 20.5813C17.3085 20.4644 17.1863 20.3686 17.0488 20.2999C16.9114 20.2312 16.7615 20.1909 16.6081 20.1813Z" fill="#BC7C0A"/>
<path d="M13.0664 27.7867V29.8054C13.0663 29.924 13.1088 30.0388 13.1861 30.1288C13.2634 30.2188 13.3704 30.2782 13.4878 30.296L22.2664 31.6534C22.3693 31.6685 22.4744 31.6509 22.5668 31.603C22.6591 31.5552 22.7341 31.4795 22.7811 31.3867L23.8184 29.4427C23.8538 29.3738 23.8726 29.2976 23.8733 29.2202C23.8739 29.1428 23.8564 29.0663 23.8222 28.9968C23.788 28.9273 23.738 28.8668 23.6762 28.8202C23.6144 28.7735 23.5426 28.7419 23.4664 28.728L13.6584 27.2934C13.586 27.2796 13.5115 27.282 13.4401 27.3004C13.3688 27.3189 13.3024 27.353 13.2458 27.4001C13.1892 27.4473 13.1438 27.5064 13.1128 27.5733C13.0817 27.6401 13.0659 27.713 13.0664 27.7867Z" fill="#5E29EF"/>
<path d="M23.8289 13.7787C24.0034 13.8382 24.1693 13.9207 24.3222 14.024C25.0756 14.5231 25.6907 15.2046 26.1103 16.005C26.5299 16.8055 26.7404 17.6991 26.7222 18.6027C26.7222 19.6507 26.6155 20.0667 26.1568 20.12C25.5302 20.1947 25.4155 19.3787 25.3995 18.9147C25.3944 18.6695 25.3512 18.4266 25.2715 18.1947C25.0048 17.3947 24.3302 15.616 23.6715 15.2907C22.8662 14.8907 22.5382 13.352 23.8289 13.7787Z" fill="#FCDEA9"/>
<path d="M24.653 22.4C24.653 22.4 24.5384 21.3173 25.1064 21.3333C25.6744 21.3493 26.173 21.48 26.0504 22.0453C25.9277 22.6106 25.6797 22.992 25.3544 22.992C25.029 22.992 24.653 22.4 24.653 22.4Z" fill="#FCDEA9"/>
<path d="M9.94626 12.8213C9.83328 12.8217 9.7231 12.7862 9.63159 12.72L6.45026 10.4C6.33568 10.3165 6.25895 10.191 6.23695 10.051C6.21495 9.91093 6.24947 9.76789 6.33292 9.65332C6.41638 9.53875 6.54193 9.46202 6.68196 9.44001C6.82198 9.41801 6.96502 9.45253 7.07959 9.53599L10.2609 11.8613C10.3512 11.9279 10.4182 12.0212 10.4524 12.128C10.4867 12.2348 10.4863 12.3497 10.4515 12.4564C10.4166 12.563 10.349 12.6559 10.2583 12.7219C10.1676 12.7879 10.0584 12.8236 9.94626 12.824V12.8213Z" fill="#FCA814"/>
<path d="M28.2852 12.416C28.1713 12.416 28.0604 12.3795 27.9688 12.3119C27.8771 12.2444 27.8095 12.1492 27.7758 12.0404C27.7421 11.9316 27.7442 11.8149 27.7816 11.7073C27.819 11.5998 27.8899 11.507 27.9839 11.4427L31.5412 9.00268C31.6579 8.92241 31.8017 8.89178 31.941 8.91754C32.0803 8.94329 32.2036 9.02332 32.2839 9.14001C32.3642 9.25671 32.3948 9.40051 32.369 9.53979C32.3433 9.67907 32.2632 9.80241 32.1466 9.88268L28.5865 12.3227C28.4978 12.3835 28.3928 12.416 28.2852 12.416Z" fill="#FCA814"/>
<path d="M6.4695 24.9867C6.34156 24.9854 6.21835 24.9382 6.12232 24.8537C6.02629 24.7691 5.96386 24.6529 5.9464 24.5261C5.92894 24.3994 5.95762 24.2706 6.02721 24.1632C6.0968 24.0559 6.20267 23.9771 6.3255 23.9413L9.39216 23.072C9.45957 23.0529 9.53009 23.0473 9.59967 23.0555C9.66925 23.0636 9.73655 23.0854 9.79771 23.1196C9.85887 23.1538 9.91271 23.1996 9.95614 23.2546C9.99957 23.3096 10.0317 23.3726 10.0508 23.44C10.0699 23.5074 10.0755 23.5779 10.0674 23.6475C10.0592 23.7171 10.0374 23.7844 10.0032 23.8455C9.96907 23.9067 9.92319 23.9605 9.86821 24.004C9.81323 24.0474 9.75024 24.0796 9.68283 24.0987L6.61616 24.968C6.5683 24.9806 6.51899 24.9869 6.4695 24.9867Z" fill="#FCA814"/>
<path d="M32.5462 27.912C32.4308 27.912 32.3185 27.8746 32.2262 27.8053L29.0662 25.4267C29.0079 25.3854 28.9584 25.3328 28.9208 25.2721C28.8832 25.2114 28.8581 25.1437 28.8471 25.0731C28.8362 25.0025 28.8395 24.9304 28.8569 24.8611C28.8744 24.7918 28.9055 24.7267 28.9486 24.6697C28.9917 24.6127 29.0458 24.5649 29.1077 24.5292C29.1695 24.4935 29.238 24.4706 29.3089 24.4619C29.3798 24.4532 29.4517 24.4587 29.5205 24.4783C29.5892 24.4979 29.6532 24.5312 29.7089 24.576L32.8582 26.9547C32.9468 27.0223 33.012 27.116 33.0447 27.2226C33.0773 27.3292 33.0757 27.4434 33.0401 27.549C33.0045 27.6546 32.9366 27.7465 32.8461 27.8116C32.7556 27.8767 32.647 27.9118 32.5355 27.912H32.5462Z" fill="#FCA814"/>
<path d="M15.0323 9.21867C14.9206 9.21821 14.8119 9.18271 14.7214 9.11716C14.631 9.05161 14.5634 8.95933 14.5283 8.85334L13.4216 5.552C13.3992 5.48564 13.3901 5.41552 13.3948 5.34563C13.3994 5.27574 13.4178 5.20746 13.4489 5.14469C13.48 5.08192 13.5231 5.02588 13.5759 4.97978C13.6286 4.93368 13.6899 4.89842 13.7563 4.876C13.8226 4.85359 13.8927 4.84447 13.9626 4.84916C14.0325 4.85385 14.1008 4.87226 14.1636 4.90333C14.2263 4.93441 14.2824 4.97755 14.3285 5.03028C14.3746 5.08301 14.4099 5.14431 14.4323 5.21067L15.5389 8.51467C15.5611 8.5812 15.5698 8.65145 15.5648 8.72138C15.5597 8.79131 15.5409 8.85957 15.5095 8.92223C15.478 8.98489 15.4345 9.04074 15.3815 9.08657C15.3284 9.13241 15.2668 9.16733 15.2003 9.18934C15.1461 9.20784 15.0895 9.21774 15.0323 9.21867Z" fill="#FCA814"/>
<path d="M22.24 9.11198C22.2054 9.1146 22.1706 9.1146 22.136 9.11198C21.9975 9.08488 21.8754 9.00399 21.7964 8.88703C21.7174 8.77007 21.688 8.62657 21.7147 8.48798L22.4187 4.85331C22.4469 4.71434 22.5293 4.5923 22.6476 4.51403C22.7658 4.43577 22.9103 4.40769 23.0493 4.43598C23.1883 4.46427 23.3103 4.54661 23.3886 4.66488C23.4669 4.78315 23.4949 4.92767 23.4667 5.06665L22.7627 8.67998C22.7392 8.80143 22.6742 8.91093 22.5788 8.98974C22.4835 9.06855 22.3637 9.11176 22.24 9.11198Z" fill="#FCA814"/>
<path d="M30.8849 18.9334C30.8149 18.9356 30.7451 18.9241 30.6795 18.8994C30.6139 18.8747 30.5539 18.8373 30.5027 18.7894C30.4516 18.7415 30.4104 18.684 30.3815 18.6201C30.3526 18.5563 30.3365 18.4874 30.3343 18.4174C30.332 18.3473 30.3435 18.2775 30.3682 18.2119C30.3929 18.1464 30.4303 18.0863 30.4782 18.0352C30.5261 17.984 30.5837 17.9428 30.6475 17.9139C30.7113 17.885 30.7802 17.869 30.8503 17.8667L34.5116 17.632C34.653 17.6232 34.7922 17.6709 34.8985 17.7647C35.0048 17.8584 35.0694 17.9906 35.0783 18.132C35.0871 18.2735 35.0394 18.4126 34.9456 18.5189C34.8519 18.6252 34.7197 18.6898 34.5783 18.6987L30.9329 18.9334H30.8849Z" fill="#FCA814"/>
<path d="M5.6902 18.4347C5.54875 18.4389 5.41141 18.3868 5.30839 18.2898C5.20537 18.1927 5.14511 18.0588 5.14087 17.9173C5.13662 17.7759 5.18874 17.6385 5.28576 17.5355C5.38278 17.4325 5.51675 17.3722 5.6582 17.368L8.40753 17.2C8.47757 17.1958 8.54775 17.2054 8.61407 17.2283C8.68038 17.2513 8.74153 17.287 8.79403 17.3336C8.84652 17.3801 8.88934 17.4366 8.92002 17.4997C8.95071 17.5628 8.96866 17.6313 8.97287 17.7013C8.97707 17.7714 8.96743 17.8415 8.94451 17.9079C8.92159 17.9742 8.88584 18.0353 8.83928 18.0878C8.79273 18.1403 8.73629 18.1831 8.67319 18.2138C8.6101 18.2445 8.54157 18.2625 8.47153 18.2667L5.7222 18.4347H5.6902Z" fill="#FCA814"/>
</svg>
