<svg width="64" height="64" viewBox="0 0 64 64" fill="none" xmlns="http://www.w3.org/2000/svg">
<path d="M11.1533 30.2592L11.7336 52.1003C11.8176 53.02 12.2423 53.8752 12.9243 54.4979C13.6063 55.1207 14.4964 55.4662 15.42 55.4667L42.5304 55.9659C43.1747 55.9653 43.8078 55.797 44.3674 55.4776C44.927 55.1581 45.3938 54.6985 45.7219 54.144L47.5522 50.8843C47.8434 50.3932 48.0158 49.8409 48.0557 49.2715L47.0573 26.3339L11.1533 30.2592Z" fill="#FC9F21"/>
<path d="M42.5988 30.592H11.8788C9.82222 30.592 12.7321 27.9424 14.2468 26.5003C14.6533 26.1171 15.19 25.9022 15.7486 25.8987H46.3364C48.3929 25.8987 45.6409 28.5525 44.1134 29.9904C43.7046 30.3781 43.1622 30.5935 42.5988 30.592Z" fill="#FFBA2F"/>
<path d="M31.3262 40.3627C31.3277 39.914 31.2208 39.4717 31.0147 39.0732C30.8085 38.6747 30.5092 38.3319 30.1422 38.0739C29.7751 37.8159 29.3512 37.6504 28.9065 37.5914C28.4617 37.5324 28.0093 37.5816 27.5877 37.735C27.1661 37.8883 26.7877 38.1412 26.4848 38.4722C26.1819 38.8031 25.9634 39.2023 25.8479 39.6358C25.7323 40.0693 25.7232 40.5243 25.8212 40.9621C25.9193 41.3999 26.1216 41.8076 26.411 42.1504C26.8719 42.688 27.1287 43.3708 27.1363 44.0789V45.3589C27.1363 45.7312 27.2842 46.0883 27.5474 46.3515C27.8107 46.6148 28.1677 46.7627 28.54 46.7627C28.9123 46.7627 29.2694 46.6148 29.5326 46.3515C29.7959 46.0883 29.9438 45.7312 29.9438 45.3589V44.0789C29.9314 43.4049 30.1684 42.75 30.6094 42.24C31.0735 41.7252 31.3291 41.0558 31.3262 40.3627Z" fill="#5B1A24"/>
<path d="M40.6057 27.2256C40.6057 27.1744 40.6057 27.1232 40.6057 27.072L39.7524 18.5088C39.1679 12.2581 34.9609 8.05548 29.2905 8.05548C26.3782 8.05435 23.5845 9.20961 21.5235 11.2674C19.4626 13.3251 18.303 16.117 18.2996 19.0293V27.2512C18.2996 27.3109 18.2996 27.3664 18.2996 27.4219C18.1998 27.495 18.118 27.5898 18.0604 27.6992C18.0027 27.8086 17.9707 27.9297 17.9668 28.0533C17.9967 28.6592 18.9396 29.1072 20.1001 29.056C21.2607 29.0048 22.1439 28.4757 22.1183 27.8741C22.1071 27.7611 22.0716 27.6518 22.0142 27.5539C21.9567 27.4559 21.8787 27.3716 21.7855 27.3067C21.7855 27.2811 21.7855 27.2598 21.7855 27.2341V19.0293C21.786 18.0466 21.9802 17.0735 22.3568 16.1658C22.7334 15.258 23.2851 14.4333 23.9804 13.7388C24.6757 13.0443 25.5011 12.4935 26.4092 12.1179C27.3174 11.7423 28.2907 11.5493 29.2735 11.5499C33.1135 11.5499 35.8441 14.4085 36.258 18.8459L37.1113 27.3365C37.0341 27.405 36.9713 27.4882 36.9266 27.5813C36.8819 27.6743 36.8563 27.7753 36.8511 27.8784C36.8511 28.5013 37.7769 29.0091 38.9161 29.0091C40.0553 29.0091 40.9812 28.5013 40.9812 27.8784C40.9727 27.7481 40.9345 27.6215 40.8694 27.5084C40.8043 27.3952 40.7141 27.2985 40.6057 27.2256Z" fill="#5B1A24"/>
<path d="M44.7236 20.1003L45.5769 16.6869C45.6046 16.5301 45.5721 16.3685 45.4857 16.2347C45.3994 16.1008 45.2656 16.0045 45.1113 15.9651C44.9569 15.9257 44.7934 15.9461 44.6534 16.0222C44.5135 16.0983 44.4075 16.2245 44.3567 16.3755L43.5033 19.7888C43.4781 19.8907 43.4781 19.9972 43.5033 20.0991C43.5286 20.2009 43.5784 20.2951 43.6484 20.3733C43.734 20.459 43.8395 20.5221 43.9556 20.5568C44.1179 20.597 44.2896 20.5716 44.4333 20.4862C44.5771 20.4007 44.6814 20.2621 44.7236 20.1003Z" fill="#FFBA2F"/>
<path d="M52.5777 19.3792C52.7039 19.2868 52.7913 19.1509 52.823 18.9977C52.8547 18.8446 52.8284 18.6851 52.7493 18.5502C52.6702 18.4153 52.5438 18.3145 52.3946 18.2675C52.2455 18.2204 52.0842 18.2304 51.9419 18.2955L47.0438 21.1285C46.9198 21.2003 46.8237 21.3118 46.7711 21.445C46.7184 21.5782 46.7123 21.7253 46.7537 21.8624C46.7663 21.9081 46.7865 21.9513 46.8134 21.9904C46.8534 22.0625 46.9073 22.1259 46.972 22.177C47.0366 22.2281 47.1108 22.2658 47.1902 22.2881C47.2695 22.3103 47.3525 22.3165 47.4343 22.3065C47.5161 22.2964 47.5951 22.2702 47.6667 22.2293L52.5777 19.3792Z" fill="#FFBA2F"/>
<path d="M51.652 25.7237C51.8094 25.7263 51.9621 25.6701 52.0802 25.5659C52.1982 25.4618 52.2731 25.3174 52.2902 25.1609C52.3073 25.0044 52.2654 24.8472 52.1726 24.7201C52.0798 24.5929 51.9428 24.505 51.7886 24.4736L49.4248 24.2261C49.2818 24.21 49.1376 24.2437 49.0164 24.3214C48.8952 24.3991 48.8044 24.5161 48.7592 24.6528C48.7432 24.6968 48.7332 24.7427 48.7294 24.7893C48.7192 24.8711 48.7253 24.9541 48.7473 25.0336C48.7692 25.1131 48.8067 25.1874 48.8574 25.2524C48.9081 25.3174 48.9711 25.3718 49.0429 25.4124C49.1146 25.453 49.1937 25.479 49.2755 25.4891L51.652 25.7237Z" fill="#FFBA2F"/>
<path d="M43.1336 37.281C43.1221 36.9253 42.8254 36.6464 42.4709 36.6579C42.1164 36.6694 41.8385 36.967 41.85 37.3226L42.2522 49.7065C42.2637 50.0621 42.5604 50.3411 42.9149 50.3296C43.2693 50.3181 43.5473 50.0205 43.5358 49.6648L43.1336 37.281Z" fill="#FFBA2F"/>
</svg>
