<svg width="65" height="64" viewBox="0 0 65 64" fill="none" xmlns="http://www.w3.org/2000/svg">
<path d="M44.9665 39.5477C44.9025 37.7387 45.7601 36.2027 46.2465 34.5045C47.2833 30.7883 47.5521 26.4917 45.8625 22.9205C45.1299 21.3912 44.0814 20.0344 42.7863 18.9397C43.0566 18.3928 43.2118 17.7963 43.2422 17.187C43.2727 16.5777 43.1779 15.9687 42.9635 15.3975C42.7491 14.8264 42.4199 14.3053 41.996 13.8665C41.5722 13.4277 41.0628 13.0806 40.4995 12.8466C39.9361 12.6126 39.3307 12.4967 38.7207 12.506C38.1107 12.5154 37.5092 12.6499 36.9532 12.901C36.3973 13.1522 35.8988 13.5148 35.4887 13.9664C35.0785 14.418 34.7654 14.9489 34.5687 15.5264C29.0476 14.9333 23.2748 17.1477 20.9153 22.5579C19.486 25.7792 18.6241 29.3035 15.6929 31.5733C8.23054 37.3248 7.74414 39.3557 7.74414 39.3557L46.0161 52.1301C47.0401 49.7963 46.0161 46.2122 45.6108 43.8357C45.3115 42.4204 45.0964 40.9885 44.9665 39.5477ZM38.7543 15.104C39.2594 15.104 39.7438 15.3043 40.1014 15.6611C40.4589 16.0178 40.6603 16.5018 40.6615 17.0069C40.6603 17.1506 40.6431 17.2937 40.6103 17.4336C39.5178 16.8192 38.3543 16.3407 37.1457 16.0085C37.3154 15.734 37.552 15.507 37.8333 15.3488C38.1146 15.1906 38.4315 15.1063 38.7543 15.104Z" fill="#A16CF8"/>
<path d="M38.5065 44.9579C35.7358 43.5389 32.8652 42.3239 29.9177 41.3227C29.4313 41.152 28.9364 40.9856 28.4372 40.8235C17.826 37.3973 8.47345 36.9067 7.58598 39.7227C6.69851 42.5387 14.5492 47.6032 25.1646 51.0293C35.7801 54.4555 45.1284 54.9461 46.0372 52.1301C46.6004 50.3211 43.5625 47.5861 38.5065 44.9579Z" fill="#5E29EF"/>
<path d="M31.0529 48.2133C32.0353 48.159 32.9757 47.7974 33.7413 47.1795C34.507 46.5617 35.0591 45.7188 35.3196 44.7701C32.4823 43.4911 29.5563 42.4187 26.5644 41.5616C26.227 42.294 26.084 43.1011 26.1492 43.9049C26.2144 44.7087 26.4856 45.4822 26.9367 46.1507C27.3878 46.8191 28.0035 47.3601 28.7245 47.7214C29.4455 48.0827 30.2474 48.2521 31.0529 48.2133Z" fill="#A16CF8"/>
<path d="M17.6126 18.7947L14.3571 17.3525C14.2038 17.2841 14.0295 17.2793 13.8727 17.3393C13.7159 17.3993 13.5893 17.5192 13.5208 17.6725C13.4524 17.8259 13.4476 18.0001 13.5076 18.1569C13.5676 18.3138 13.6875 18.4403 13.8408 18.5088L17.1006 19.9509C17.197 19.9932 17.3023 20.011 17.4072 20.0028C17.5122 19.9946 17.6135 19.9607 17.7022 19.904C17.8038 19.8361 17.885 19.7417 17.9368 19.6309C18.0043 19.477 18.0081 19.3026 17.9473 19.1459C17.8865 18.9891 17.7662 18.8629 17.6126 18.7947Z" fill="#5E29EF"/>
<path d="M24.1922 9.29706C24.1539 9.22328 24.1014 9.15777 24.0378 9.1043C23.9742 9.05083 23.9006 9.01045 23.8213 8.98547C23.742 8.9605 23.6586 8.95142 23.5758 8.95877C23.493 8.96611 23.4125 8.98973 23.3388 9.02826C23.1914 9.1072 23.0808 9.24069 23.0305 9.40016C22.9803 9.55963 22.9945 9.73244 23.07 9.8816L24.5207 12.6379C24.6004 12.7845 24.7342 12.8942 24.8936 12.9437C25.053 12.9931 25.2254 12.9783 25.374 12.9024L25.4252 12.8725C25.5573 12.7858 25.6523 12.6529 25.6918 12.4999C25.7312 12.3468 25.7122 12.1846 25.6386 12.0448L24.1922 9.29706Z" fill="#5E29EF"/>
<path d="M17.5491 11.6736C17.4259 11.572 17.269 11.5205 17.1096 11.5292C16.9502 11.538 16.7999 11.6064 16.6886 11.7209C16.5773 11.8354 16.5132 11.9876 16.509 12.1472C16.5048 12.3068 16.5608 12.4622 16.6659 12.5824L19.3752 15.2235C19.4781 15.3245 19.6123 15.3875 19.7557 15.4023C19.8991 15.417 20.0433 15.3825 20.1646 15.3045C20.2038 15.2794 20.2397 15.2493 20.2712 15.2149C20.3303 15.1562 20.3772 15.0864 20.4092 15.0096C20.4412 14.9327 20.4577 14.8502 20.4577 14.7669C20.4577 14.6837 20.4412 14.6012 20.4092 14.5243C20.3772 14.4474 20.3303 14.3776 20.2712 14.3189L17.5491 11.6736Z" fill="#5E29EF"/>
<path d="M53.2955 17.4208C53.2488 17.352 53.189 17.2932 53.1196 17.2476C53.0501 17.202 52.9723 17.1706 52.8906 17.1551C52.809 17.1397 52.7251 17.1405 52.6437 17.1575C52.5624 17.1745 52.4852 17.2075 52.4166 17.2544L49.4726 19.264C49.3856 19.3234 49.3149 19.4039 49.2672 19.4978C49.2195 19.5918 49.1962 19.6963 49.1995 19.8016C49.2014 19.9246 49.2384 20.0445 49.3062 20.1472C49.4013 20.2863 49.5477 20.382 49.7134 20.4132C49.879 20.4444 50.0502 20.4086 50.1894 20.3136L53.1291 18.304C53.2683 18.2089 53.364 18.0625 53.3952 17.8968C53.4264 17.7312 53.3905 17.56 53.2955 17.4208Z" fill="#5E29EF"/>
<path d="M54.8865 29.6448L51.7803 29.44C51.6146 29.427 51.4505 29.4804 51.324 29.5884C51.1976 29.6964 51.1193 29.8502 51.1062 30.016C51.1039 30.0358 51.1039 30.0559 51.1062 30.0757C51.1112 30.2335 51.1746 30.3838 51.2842 30.4973C51.3938 30.6109 51.5418 30.6796 51.6993 30.6901L54.8011 30.9077C54.8852 30.9136 54.9696 30.9029 55.0495 30.8761C55.1294 30.8494 55.2032 30.8072 55.2668 30.7519C55.3304 30.6967 55.3825 30.6294 55.4201 30.554C55.4577 30.4786 55.4801 30.3966 55.4859 30.3125C55.4918 30.2285 55.4811 30.1441 55.4544 30.0642C55.4276 29.9843 55.3854 29.9104 55.3302 29.8469C55.2749 29.7833 55.2077 29.7312 55.1323 29.6936C55.0569 29.656 54.9748 29.6336 54.8907 29.6277L54.8865 29.6448Z" fill="#5E29EF"/>
<path d="M56.7337 23.2405C56.6934 23.0772 56.5898 22.9364 56.4459 22.8493C56.3019 22.7621 56.1292 22.7355 55.9657 22.7755L52.2921 23.6928C52.1531 23.7276 52.0301 23.8087 51.9433 23.9227C51.8564 24.0366 51.8109 24.1768 51.8143 24.32C51.808 24.3667 51.808 24.4141 51.8143 24.4608C51.8556 24.6234 51.9595 24.7631 52.1034 24.8494C52.2472 24.9357 52.4194 24.9617 52.5823 24.9216L56.2559 24.0085C56.421 23.97 56.5641 23.8674 56.6537 23.7234C56.7433 23.5794 56.7721 23.4057 56.7337 23.2405Z" fill="#5E29EF"/>
</svg>
