<?xml version="1.0" standalone="no"?>
<!DOCTYPE svg PUBLIC "-//W3C//DTD SVG 1.1//EN" "http://www.w3.org/Graphics/SVG/1.1/DTD/svg11.dtd" >
<svg xmlns="http://www.w3.org/2000/svg">
<metadata>
<json>
<![CDATA[
{
	"fontFamily": "scficons",
	"majorVersion": 1,
	"minorVersion": 0,
	"copyright": "© 2020 by socialcatfish.com",
	"designer": "Malan Alankara",
	"designerURL": "https://www.linkedin.com/in/malankara",
	"description": "Scficons are designed as a part of the style guide of Socialcatfish website.\nFont generated by IcoMoon.",
	"fontURL": "https://socialcatfish.com",
	"license": "CC BY-NC-ND",
	"licenseURL": "https://creativecommons.org/licenses/by-nc-nd/4.0/legalcode",
	"version": "Version 1.0",
	"fontId": "scficons",
	"psName": "scficons",
	"subFamily": "Regular",
	"fullName": "scficons"
}
]]>
</json>
</metadata>
<defs>
<font id="scficons" horiz-adv-x="1024">
<font-face units-per-em="1024" ascent="960" descent="-64" />
<missing-glyph horiz-adv-x="1024" />
<glyph unicode="&#x20;" horiz-adv-x="512" d="" />
<glyph unicode="&#xe900;" glyph-name="search" data-tags="scf-search" d="M822.592 182.656l-173.184 173.184c33.845 42.498 54.378 96.911 54.592 156.112v0.048c0 141.385-114.615 256-256 256s-256-114.615-256-256c0-141.385 114.615-256 256-256v0c59.249 0.214 113.662 20.747 156.675 54.988l-0.515-0.396 173.184-173.248c5.792-5.785 13.79-9.362 22.624-9.362 17.683 0 32.018 14.335 32.018 32.018 0 8.849-3.59 16.86-9.393 22.656v0zM448 320c-106.039 0-192 85.961-192 192s85.961 192 192 192c106.039 0 192-85.961 192-192v0c0-106.039-85.961-192-192-192v0z" />
<glyph unicode="&#xe901;" glyph-name="user" data-tags="scf-user" d="M644.8 405.888c36.465 34.829 59.15 83.817 59.2 138.103v64.009c0 106.039-85.961 192-192 192s-192-85.961-192-192v0-64c0.050-54.296 22.735-103.283 59.127-138.043l0.073-0.069c-156.672-29.76-251.2-129.92-251.2-277.888 0-17.673 14.327-32 32-32v0h704c17.673 0 32 14.327 32 32v0c0 147.968-94.528 248.128-251.2 277.888zM384 608c0 70.692 57.308 128 128 128s128-57.308 128-128v0-64c0-70.692-57.308-128-128-128s-128 57.308-128 128v0zM193.856 160c21.44 177.536 222.208 192 286.144 192h64c64 0 264.704-14.464 286.144-192z" />
<glyph unicode="&#xe902;" glyph-name="phone" data-tags="phone" d="M668.378 515.123c2.566-15.303 15.713-26.82 31.551-26.82 17.655 0 31.968 14.313 31.968 31.968 0 2.518-0.291 4.968-0.841 7.318l0.043-0.216c-14.012 71.145-69.158 126.32-139.163 140.192l-1.125 0.186c-1.795 0.358-3.86 0.562-5.972 0.562-17.673 0-32-14.327-32-32 0-15.451 10.951-28.345 25.515-31.343l0.207-0.036c45.522-8.995 80.82-44.29 89.699-89.091l0.119-0.72zM588.25 784.717c-1.155 0.149-2.49 0.234-3.845 0.234-16.383 0-29.862-12.434-31.516-28.38l-0.011-0.136c-0.125-1.062-0.196-2.292-0.196-3.539 0-16.421 12.369-29.953 28.298-31.788l0.148-0.014c107.17-11.763 191.476-95.984 203.279-202.089l0.093-1.034c1.849-16.058 15.352-28.415 31.748-28.442h0.003c0 0 0.001 0 0.001 0 1.276 0 2.535 0.070 3.774 0.206l-0.153-0.014c16.084 1.875 28.45 15.42 28.45 31.854 0 1.24-0.070 2.463-0.207 3.666l0.014-0.147c-15.244 136.902-122.946 244.516-258.562 259.504l-1.316 0.118zM741.248 379.904c-27.94 3.764-53.163 10.275-77.104 19.387l2.359-0.788c-9.441 3.651-20.366 5.767-31.785 5.767-24.823 0-47.312-9.997-63.659-26.184l-19.244-19.244c-52.254 34.031-95.531 77.308-128.541 127.894l-1.021 1.667 19.347 19.379c16.109 16.324 26.058 38.76 26.058 63.521 0 11.363-2.095 22.236-5.92 32.255l0.208-0.62c-8.388 21.711-14.932 47.074-18.492 73.386l-0.196 1.77c-6.474 43.982-43.83 77.399-89.042 77.657h-88.309c-0.973 0-7.123-0.25-8.064-0.346-46.225-4.295-82.131-42.892-82.131-89.875 0-3.047 0.151-6.059 0.446-9.028l-0.030 0.375c10.982-100.143 44.629-190.647 95.679-268.743l-1.433 2.336c48.086-74.692 109.757-136.401 182.037-183.096l2.372-1.435c75.691-49.603 166.083-83.31 263.37-94.217l2.78-0.253c0.941-0.096 7.315-0.378 8.32-0.378 49.734 0.272 89.946 40.652 89.946 90.424 0 0.030 0 0.059 0 0.089v-0.005 87.040c0.011 0.523 0.017 1.139 0.017 1.756 0 45.534-33.68 83.202-77.487 89.451l-0.482 0.056zM755.187 289.024v-87.533c-0.188-14.609-12.075-26.38-26.712-26.38-0.496 0-0.989 0.014-1.478 0.040l0.068-0.003c-89.397 10.093-170.12 40.278-239.81 85.917l2.088-1.283c-66.844 43.102-122.064 98.363-163.833 163.117l-1.287 2.131c-44.376 67.717-74.502 148.601-84.186 235.655l-0.223 2.469c-0.072 0.726-0.112 1.569-0.112 2.422 0 6.385 2.289 12.234 6.091 16.774l-0.033-0.041c4.92 5.673 12.087 9.285 20.101 9.44h88.014c13.116-0.004 23.988-9.604 25.977-22.161l0.019-0.149c4.471-33.247 12.228-63.267 23.092-91.753l-0.935 2.793c1.067-2.75 1.685-5.933 1.685-9.261 0-7.132-2.84-13.6-7.451-18.335l-36.992-36.999c-5.79-5.791-9.37-13.79-9.37-22.625 0-5.815 1.551-11.268 4.262-15.968l-0.082 0.155c45.127-78.372 108.442-141.685 184.409-185.528l2.407-1.282c4.544-2.623 9.995-4.171 15.807-4.171 8.836 0 16.836 3.577 22.632 9.362l36.869 36.869c4.771 4.659 11.302 7.533 18.505 7.533 3.345 0 6.544-0.62 9.491-1.751l-0.181 0.061c25.57-9.867 55.454-17.589 86.449-21.824l2.114-0.236c12.857-1.835 22.632-12.771 22.632-25.991 0-0.234-0.003-0.467-0.009-0.7l0.001 0.034z" />
<glyph unicode="&#xe903;" glyph-name="email" data-tags="scf-email" d="M800 736h-576c-53.019 0-96-42.981-96-96v0-384c0-53.019 42.981-96 96-96v0h576c53.019 0 96 42.981 96 96v0 384c0 53.019-42.981 96-96 96v0zM765.568 672l-253.568-184.448-253.568 184.448zM832 256c0-17.673-14.327-32-32-32v0h-576c-17.673 0-32 14.327-32 32v0 385.024l300.8-218.88c5.207-3.822 11.744-6.116 18.816-6.116s13.609 2.294 18.905 6.179l-0.089-0.063 301.568 218.88v-1.024z" />
<glyph unicode="&#xe904;" glyph-name="username" data-tags="scf-username" d="M384 512c0-17.673-14.327-32-32-32s-32 14.327-32 32c0 17.673 14.327 32 32 32s32-14.327 32-32zM544 512c0-17.673-14.327-32-32-32s-32 14.327-32 32c0 17.673 14.327 32 32 32s32-14.327 32-32zM704 512c0-17.673-14.327-32-32-32s-32 14.327-32 32c0 17.673 14.327 32 32 32s32-14.327 32-32zM800 800h-576c-53.019 0-96-42.981-96-96v0-384c0-53.019 42.981-96 96-96v0h176l86.4-115.2c5.9-7.807 15.167-12.8 25.6-12.8s19.7 4.993 25.542 12.72l0.058 0.080 86.4 115.2 176.32 0.448c52.882 0.182 95.68 43.093 95.68 95.999 0 0.023 0 0.045 0 0.068v-0.004 383.488c0 53.019-42.981 96-96 96v0zM832 320.512c0-17.673-14.327-32-32-32v0l-192-0.512c-10.433 0-19.7-4.993-25.542-12.72l-0.058-0.080-70.4-93.888-70.4 93.888c-5.9 7.807-15.167 12.8-25.6 12.8h-192c-17.673 0-32 14.327-32 32v0 384c0 17.673 14.327 32 32 32v0h576c17.673 0 32-14.327 32-32v0z" />
<glyph unicode="&#xe905;" glyph-name="image" data-tags="scf-image" d="M864 800h-704c-53.019 0-96-42.981-96-96v0-512c0-53.019 42.981-96 96-96v0h704c53.019 0 96 42.981 96 96v0 512c0 53.019-42.981 96-96 96v0zM896 192c0-17.673-14.327-32-32-32v0h-704c-17.673 0-32 14.327-32 32v0 512c0 17.673 14.327 32 32 32v0h704c17.673 0 32-14.327 32-32v0zM758.656 470.656c-5.794 5.808-13.805 9.401-22.656 9.401s-16.862-3.593-22.655-9.401l-173.377-173.441-170.24 113.408c-4.993 3.376-11.147 5.389-17.772 5.389-8.829 0-16.822-3.575-22.612-9.357v0l-128-128c-5.798-5.798-9.384-13.808-9.384-22.656 0-17.695 14.345-32.040 32.040-32.040 8.848 0 16.858 3.586 22.656 9.384v0l109.376 109.44 170.24-113.408c4.949-3.367 11.058-5.376 17.636-5.376 0.032 0 0.064 0 0.097 0h-0.005c0.017 0 0.037 0 0.057 0 8.822 0 16.811 3.57 22.599 9.345l169.343 169.407 41.344-41.408c5.798-5.798 13.808-9.384 22.656-9.384 17.695 0 32.040 14.345 32.040 32.040 0 8.848-3.586 16.858-9.384 22.656v0zM512 416c70.692 0 128 57.308 128 128s-57.308 128-128 128c-70.692 0-128-57.308-128-128v0c0-70.692 57.308-128 128-128v0zM512 608c35.346 0 64-28.654 64-64s-28.654-64-64-64c-35.346 0-64 28.654-64 64v0c0 35.346 28.654 64 64 64v0z" />
<glyph unicode="&#xe906;" glyph-name="dashboard" data-tags="scf-dashboard" d="M832 800h-640c-53.019 0-96-42.981-96-96v0-512c0-53.019 42.981-96 96-96v0h640c53.019 0 96 42.981 96 96v0 512c0 53.019-42.981 96-96 96v0zM864 192c0-17.673-14.327-32-32-32v0h-640c-17.673 0-32 14.327-32 32v0 512c0 17.673 14.327 32 32 32v0h640c17.673 0 32-14.327 32-32v0zM320 544c-17.673 0-32-14.327-32-32v0-192c0-17.673 14.327-32 32-32s32 14.327 32 32v0 192c0 17.673-14.327 32-32 32v0zM704 480c-17.673 0-32-14.327-32-32v0-128c0-17.673 14.327-32 32-32s32 14.327 32 32v0 128c0 17.673-14.327 32-32 32v0zM576 608c-17.673 0-32-14.327-32-32v0-256c0-17.673 14.327-32 32-32s32 14.327 32 32v0 256c0 17.673-14.327 32-32 32v0zM448 480c-17.673 0-32-14.327-32-32v0-128c0-17.673 14.327-32 32-32s32 14.327 32 32v0 128c0 17.673-14.327 32-32 32v0z" />
<glyph unicode="&#xe907;" glyph-name="home" data-tags="scf-home" d="M856.448 596.608l-288 209.792c-15.622 11.467-35.231 18.349-56.448 18.349s-40.826-6.883-56.716-18.537l0.268 0.188-288-209.472c-24.088-17.657-39.552-45.848-39.552-77.651 0-0.106 0-0.212 0.001-0.317v0.016-351.424c0-53.019 42.981-96 96-96v0h576c53.019 0 96 42.981 96 96v0 351.424c-0.006 31.796-15.469 59.978-39.284 77.444l-0.268 0.188zM832 167.552c0-17.673-14.327-32-32-32v0h-576c-17.673 0-32 14.327-32 32v0 351.424c0 0.011 0 0.024 0 0.036 0 10.601 5.155 19.998 13.095 25.821l0.089 0.063 288 209.408c5.207 3.822 11.744 6.116 18.816 6.116s13.609-2.294 18.905-6.179l-0.089 0.063 288-209.408c8.029-5.886 13.184-15.283 13.184-25.884 0-0.013 0-0.026 0-0.038v0.002zM608 455.552h-192c-17.673 0-32-14.327-32-32v0-192c0-17.673 14.327-32 32-32s32 14.327 32 32v0 160h128v-160c0-17.673 14.327-32 32-32s32 14.327 32 32v0 192c0 17.673-14.327 32-32 32v0z" />
<glyph unicode="&#xe908;" glyph-name="account" data-tags="scf-account" d="M800 896h-576c-53.019 0-96-42.981-96-96v0-704c0-53.019 42.981-96 96-96v0h576c53.019 0 96 42.981 96 96v0 704c0 53.019-42.981 96-96 96v0zM832 96c0-17.673-14.327-32-32-32v0h-576c-17.673 0-32 14.327-32 32v0 704c0 17.673 14.327 32 32 32v0h576c17.673 0 32-14.327 32-32v0zM448 704h128c17.673 0 32 14.327 32 32s-14.327 32-32 32v0h-128c-17.673 0-32-14.327-32-32s14.327-32 32-32v0zM604.032 359.424c22.253 22.999 35.968 54.379 35.968 88.961 0 70.692-57.308 128-128 128s-128-57.308-128-128c0-34.583 13.715-65.962 36.002-88.996l-0.034 0.035c-59.798-32.979-99.696-95.511-99.968-167.386v-0.038c0-17.673 14.327-32 32-32s32 14.327 32 32v0c0 70.692 57.308 128 128 128s128-57.308 128-128v0c0-17.673 14.327-32 32-32s32 14.327 32 32v0c-0.272 71.913-40.17 134.445-98.983 166.925l-0.985 0.499zM448 448c0 35.346 28.654 64 64 64s64-28.654 64-64c0-35.346-28.654-64-64-64v0c-35.346 0-64 28.654-64 64v0z" />
<glyph unicode="&#xe909;" glyph-name="contact-us" data-tags="scf-contactus" d="M239.808 352v0c17.673 0 32 14.327 32 32v0 160c0 141.385 114.615 256 256 256s256-114.615 256-256v0-167.936c-0.073-83.886-68.001-151.882-151.855-152.064h-71.953c-17.673 0-32-14.327-32-32s14.327-32 32-32v0h71.936c119.256 0.182 215.882 96.809 216.064 216.047v167.953c-1.938 175.25-144.456 316.571-319.982 316.571-154.224 0-282.966-109.101-313.256-254.333l-0.363-2.078c-25.371-4.954-47.374-16.959-64.527-33.87l0.015 0.014c-23.042-23.143-37.288-55.061-37.288-90.306 0-70.414 56.857-127.548 127.165-127.997h0.043zM195.008 524.8c3.848 3.355 8.2 6.296 12.888 8.667l0.36 0.165v-107.904c-19.251 10.923-32.028 31.281-32.028 54.622 0 17.379 7.083 33.104 18.52 44.445l0.004 0.004zM528 416c17.673 0 32 14.327 32 32v0h-64c0-17.673 14.327-32 32-32v0zM873.408 208.064c-5.462 10.283-16.104 17.167-28.355 17.167-17.673 0-32-14.327-32-32 0-6.371 1.862-12.307 5.071-17.294l-0.076 0.127c13.508-23.068 23.227-50.063 27.498-78.835l0.15-1.229h-635.456c16.387 109.105 109.387 191.829 221.742 192h96.018c106.039 0 192 85.961 192 192v0 64c0 106.039-85.961 192-192 192s-192-85.961-192-192v0-64c0.077-51.416 20.46-98.057 53.558-132.344l-0.054 0.056c-139.429-21.214-245.089-140.062-245.504-283.668v-0.044c0-17.673 14.327-32 32-32v0h704c17.673 0 32 14.327 32 32v0c0 0.015 0 0.033 0 0.051 0 53.024-14.33 102.702-39.328 145.371l0.736-1.359zM400 544c0 70.692 57.308 128 128 128s128-57.308 128-128v0-64c0-70.692-57.308-128-128-128s-128 57.308-128 128v0z" />
<glyph unicode="&#xe90a;" glyph-name="payment" data-tags="scf-payment" d="M864 768h-704c-53.019 0-96-42.981-96-96v0-448c0-53.019 42.981-96 96-96v0h704c53.019 0 96 42.981 96 96v0 448c0 53.019-42.981 96-96 96v0zM160 704h704c17.673 0 32-14.327 32-32v0-96h-768v96c0 17.673 14.327 32 32 32v0zM864 192h-704c-17.673 0-32 14.327-32 32v0 288h768v-288c0-17.673-14.327-32-32-32v0zM352 384h-128c-17.673 0-32-14.327-32-32s14.327-32 32-32v0h128c17.673 0 32 14.327 32 32s-14.327 32-32 32v0z" />
<glyph unicode="&#xe90b;" glyph-name="searched-history" data-tags="scf-searched-history" d="M854.464 665.6l-192 188.8c-0.962 0.72-2.069 1.459-3.214 2.142l-0.178 0.098c-1.975 1.746-4.229 3.243-6.674 4.406l-0.174 0.074c-3.582 1.679-7.762 2.724-12.169 2.878l-0.055 0.002h-384c-53.019 0-96-42.981-96-96v0-640c0-53.019 42.981-96 96-96v0h512c53.019 0 96 42.981 96 96v0 515.008c-0.057 8.846-3.693 16.831-9.532 22.588l-0.004 0.004zM672 755.584l84.928-83.584h-84.928zM768 96h-512c-17.673 0-32 14.327-32 32v0 640c0 17.673 14.327 32 32 32v0h352v-160c0-17.673 14.327-32 32-32v0h160v-480c0-17.673-14.327-32-32-32v0zM332.16 669.44c-3.537 1.465-7.644 2.315-11.95 2.315-8.828 0-16.821-3.575-22.61-9.355v0c-5.914-5.498-9.603-13.321-9.603-22.006 0-0.139 0.001-0.277 0.003-0.415v0.021c-0.010-0.263-0.015-0.572-0.015-0.882 0-4.102 0.95-7.981 2.643-11.431l-0.068 0.153c1.416-4.12 3.848-7.584 7.003-10.21l0.037-0.030c5.498-5.914 13.321-9.603 22.006-9.603 0.139 0 0.277 0.001 0.415 0.003h-0.021c0.263-0.010 0.572-0.015 0.882-0.015 4.102 0 7.981 0.95 11.431 2.643l-0.153-0.068c7.725 3.499 13.781 9.555 17.193 17.066l0.087 0.214c1.625 3.296 2.575 7.176 2.575 11.278 0 0.31-0.005 0.619-0.016 0.927l0.001-0.045c0.002 0.117 0.003 0.256 0.003 0.394 0 8.685-3.688 16.508-9.584 21.989l-0.019 0.017c-2.656 3.192-6.12 5.624-10.080 6.992l-0.16 0.048zM332.16 541.44c-3.571 1.529-7.726 2.418-12.088 2.418-8.803 0-16.761-3.62-22.466-9.452l-0.006-0.006c-5.658-5.768-9.151-13.678-9.151-22.403 0-17.515 14.072-31.744 31.527-31.997h0.024c0.263-0.010 0.572-0.015 0.882-0.015 4.102 0 7.981 0.95 11.431 2.643l-0.153-0.068c4.12 1.416 7.584 3.848 10.21 7.003l0.030 0.037c5.925 5.643 9.61 13.591 9.61 22.4s-3.685 16.757-9.597 22.388l-0.013 0.012c-2.656 3.192-6.12 5.624-10.080 6.992l-0.16 0.048zM332.16 413.44c-3.595 1.518-7.774 2.4-12.16 2.4s-8.565-0.882-12.371-2.479l0.211 0.078c-7.725-3.499-13.781-9.555-17.193-17.066l-0.087-0.214c-1.618-3.579-2.561-7.759-2.561-12.16s0.943-8.581 2.638-12.35l-0.077 0.19c1.416-4.12 3.848-7.584 7.003-10.21l0.037-0.030c5.498-5.914 13.321-9.603 22.006-9.603 0.139 0 0.277 0.001 0.415 0.003h-0.021c0.154-0.003 0.335-0.005 0.516-0.005 4.225 0 8.229 0.946 11.812 2.636l-0.169-0.072c4.12 1.416 7.584 3.848 10.21 7.003l0.030 0.037c5.925 5.643 9.61 13.591 9.61 22.4s-3.685 16.757-9.597 22.388l-0.013 0.012c-2.656 3.192-6.12 5.624-10.080 6.992l-0.16 0.048zM653.888 351.36c11.384 18.878 18.12 41.673 18.12 66.040 0 71.47-57.938 129.408-129.408 129.408s-129.408-57.938-129.408-129.408c0-71.47 57.938-129.408 129.408-129.408 24.368 0 47.163 6.735 66.624 18.445l-0.584-0.326 72.704-72.768c5.798-5.798 13.808-9.384 22.656-9.384 17.695 0 32.040 14.345 32.040 32.040 0 8.848-3.586 16.858-9.384 22.656v0zM480 416c0 35.346 28.654 64 64 64s64-28.654 64-64c0-35.346-28.654-64-64-64v0c-35.346 0-64 28.654-64 64v0zM342.4 278.4c-5.767 5.656-13.676 9.147-22.4 9.147s-16.633-3.491-22.405-9.152l0.005 0.005c-5.925-5.643-9.61-13.591-9.61-22.4s3.685-16.757 9.597-22.388l0.013-0.012c2.656-3.192 6.12-5.624 10.080-6.992l0.16-0.048c3.579-1.618 7.759-2.561 12.16-2.561s8.581 0.943 12.35 2.638l-0.19-0.077c7.725 3.499 13.781 9.555 17.193 17.066l0.087 0.214c1.618 3.579 2.561 7.759 2.561 12.16s-0.943 8.581-2.638 12.35l0.077-0.19c-1.416 4.12-3.848 7.584-7.003 10.21l-0.037 0.030z" />
<glyph unicode="&#xe90c;" glyph-name="tracked-data" data-tags="tracked-data" d="M160 736h64c17.673 0 32 14.327 32 32s-14.327 32-32 32v0h-64c-53.019 0-96-42.981-96-96v0-512c0-53.019 42.981-96 96-96v0h64c17.673 0 32 14.327 32 32s-14.327 32-32 32v0h-64c-17.673 0-32 14.327-32 32v0 512c0 17.673 14.327 32 32 32v0zM864 800h-64c-17.673 0-32-14.327-32-32s14.327-32 32-32v0h64c17.673 0 32-14.327 32-32v0-512c0-17.673-14.327-32-32-32v0h-64c-17.673 0-32-14.327-32-32s14.327-32 32-32v0h64c53.019 0 96 42.981 96 96v0 512c0 53.019-42.981 96-96 96v0zM352 352c-17.673 0-32-14.327-32-32v0-64c0-17.673 14.327-32 32-32s32 14.327 32 32v0 64c0 17.673-14.327 32-32 32v0zM768 448c0 17.673-14.327 32-32 32s-32-14.327-32-32v0-192c0-17.673 14.327-32 32-32s32 14.327 32 32v0zM608 416c-17.673 0-32-14.327-32-32v0-128c0-17.673 14.327-32 32-32s32 14.327 32 32v0 128c0 17.673-14.327 32-32 32v0zM480 416c-17.673 0-32-14.327-32-32v0-128c0-17.673 14.327-32 32-32s32 14.327 32 32v0 128c0 17.673-14.327 32-32 32v0zM762.624 657.728c-5.82 8.643-15.569 14.253-26.628 14.253-6.605 0-12.742-2.001-17.839-5.429l0.114 0.073-170.24-113.408-45.376 45.44c-5.789 5.782-13.783 9.357-22.612 9.357-6.625 0-12.78-2.013-17.886-5.461l0.113 0.072-192-128c-8.64-5.821-14.247-15.568-14.247-26.624 0-17.664 14.313-31.986 31.974-32h0.001c0.027 0 0.059 0 0.092 0 6.578 0 12.687 2.009 17.747 5.447l-0.11-0.071 170.24 113.408 45.376-45.44c5.789-5.782 13.783-9.357 22.612-9.357 6.625 0 12.78 2.013 17.886 5.461l-0.113-0.072 192 128c8.643 5.82 14.253 15.569 14.253 26.628 0 6.605-2.001 12.742-5.429 17.839l0.073-0.114z" />
<glyph unicode="&#xe90d;" glyph-name="blog" data-tags="scf-blog" d="M864 864h-704c-53.019 0-96-42.981-96-96v0-512c0-53.019 42.981-96 96-96v0h320v-64h-192c-17.673 0-32-14.327-32-32s14.327-32 32-32v0h448c17.673 0 32 14.327 32 32s-14.327 32-32 32v0h-192v64h320c53.019 0 96 42.981 96 96v0 512c0 53.019-42.981 96-96 96v0zM896 256c0-17.673-14.327-32-32-32v0h-704c-17.673 0-32 14.327-32 32v0 512c0 17.673 14.327 32 32 32v0h704c17.673 0 32-14.327 32-32v0zM480 672h-256c-17.673 0-32-14.327-32-32v0-128c0-17.673 14.327-32 32-32v0h256c17.673 0 32 14.327 32 32v0 128c0 17.673-14.327 32-32 32v0zM448 544h-192v64h192zM800 672h-192c-17.673 0-32-14.327-32-32s14.327-32 32-32v0h192c17.673 0 32 14.327 32 32s-14.327 32-32 32v0zM800 544h-192c-17.673 0-32-14.327-32-32s14.327-32 32-32v0h192c17.673 0 32 14.327 32 32s-14.327 32-32 32v0zM800 416h-192c-17.673 0-32-14.327-32-32s14.327-32 32-32v0h192c17.673 0 32 14.327 32 32s-14.327 32-32 32v0zM480 416h-256c-17.673 0-32-14.327-32-32s14.327-32 32-32v0h256c17.673 0 32 14.327 32 32s-14.327 32-32 32v0z" />
<glyph unicode="&#xe90e;" glyph-name="property" data-tags="scf-property" d="M768 896h-512c-53.019 0-96-42.981-96-96v0-640c0-53.019 42.981-96 96-96v0h288v-32c0-17.673 14.327-32 32-32s32 14.327 32 32v0 160c2.944 0 5.76 0.704 8.64 0.896l57.024-171.008c4.363-12.818 16.29-21.877 30.335-21.888h0.001c3.615 0.005 7.092 0.59 10.345 1.667l-0.233-0.067c12.821 4.368 21.878 16.305 21.878 30.357 0 3.633-0.606 7.125-1.721 10.38l0.067-0.225-7.296 21.888h40.96c53.019 0 96 42.981 96 96v0 640c0 53.019-42.981 96-96 96v0zM544 320c0 35.346 28.654 64 64 64s64-28.654 64-64c0-35.346-28.654-64-64-64v0c-35.346 0-64 28.654-64 64v0zM800 160c0-17.673-14.327-32-32-32v0h-62.272l-28.288 84.8c35.602 23.127 58.818 62.699 58.818 107.694 0 70.692-57.308 128-128 128s-128-57.308-128-128c0-47.023 25.357-88.124 63.143-110.375l0.599-0.326v-81.792h-288c-17.673 0-32 14.327-32 32v0 640c0 17.673 14.327 32 32 32v0h512c17.673 0 32-14.327 32-32v0zM384 704h256c17.673 0 32 14.327 32 32s-14.327 32-32 32v0h-256c-17.673 0-32-14.327-32-32s14.327-32 32-32v0zM704 640h-384c-17.673 0-32-14.327-32-32s14.327-32 32-32v0h384c17.673 0 32 14.327 32 32s-14.327 32-32 32v0zM384 256h-64c-17.673 0-32-14.327-32-32s14.327-32 32-32v0h64c17.673 0 32 14.327 32 32s-14.327 32-32 32v0z" />
<glyph unicode="&#xe90f;" glyph-name="chat" data-tags="scf-chat" d="M864 832h-384c-53.019 0-96-42.981-96-96v0-32h-224c-53.019 0-96-42.981-96-96v0-512c0.002-13.261 8.071-24.637 19.566-29.489l0.21-0.079c3.613-1.517 7.811-2.409 12.215-2.432h0.009c0.017 0 0.037 0 0.057 0 8.822 0 16.811 3.57 22.599 9.345l118.655 118.655 307.2 0.512c52.799 0.291 95.488 43.159 95.488 95.999 0 0 0 0.001 0 0.001v0 32l146.688-0.512 118.656-118.72c5.781-5.736 13.744-9.28 22.535-9.28 0.043 0 0.085 0 0.128 0h-0.007c4.413 0.023 8.611 0.915 12.441 2.512l-0.217-0.080c11.705 4.931 19.774 16.307 19.776 29.568v0 512c0 53.019-42.981 96-96 96v0zM544 256.512l-320-0.512c-8.82-0.002-16.806-3.572-22.593-9.345l-73.407-73.407v434.752c0 17.673 14.327 32 32 32v0h384c17.673 0 32-14.327 32-32v0-319.488c0-17.673-14.327-32-32-32v0zM896 301.312l-73.344 73.344c-5.788 5.774-13.776 9.344-22.599 9.344-0.020 0-0.040 0-0.060 0h0.003l-160 0.448v223.552c0 53.019-42.981 96-96 96v0h-96v32c0 17.673 14.327 32 32 32v0h384c17.673 0 32-14.327 32-32v0zM416 576h-192c-17.673 0-32-14.327-32-32s14.327-32 32-32v0h192c17.673 0 32 14.327 32 32s-14.327 32-32 32v0zM352 448h-128c-17.673 0-32-14.327-32-32s14.327-32 32-32v0h128c17.673 0 32 14.327 32 32s-14.327 32-32 32v0z" />
<glyph unicode="&#xe910;" glyph-name="cooperation" data-tags="scf-cooperation" d="M224 549.504c-17.673 0-32-14.327-32-32v0-288h-32c-17.673 0-32-14.327-32-32s14.327-32 32-32v0h704c17.673 0 32 14.327 32 32s-14.327 32-32 32v0h-32v288c0 17.673-14.327 32-32 32s-32-14.327-32-32v0-288h-224v224c0 17.673 14.327 32 32 32v0h96c17.673 0 32 14.327 32 32s-14.327 32-32 32v0h-320c-17.673 0-32-14.327-32-32s14.327-32 32-32v0h96c17.673 0 32-14.327 32-32v0-224h-224v288c0 17.673-14.327 32-32 32v0zM112.768 554.304l382.464 235.328c4.777 2.991 10.581 4.765 16.8 4.765s12.023-1.774 16.935-4.843l-0.135 0.078 382.4-235.328c4.729-3.012 10.493-4.8 16.674-4.8 0.033 0 0.066 0 0.099 0h-0.005c0.004 0 0.010 0 0.015 0 17.673 0 32 14.327 32 32 0 11.474-6.039 21.537-15.111 27.185l-0.136 0.079-382.4 235.328c-14.296 9.024-31.691 14.379-50.336 14.379s-36.040-5.355-50.73-14.611l0.394 0.232-382.464-235.328c-9.736-5.611-16.185-15.962-16.185-27.819 0-17.673 14.327-32 32-32 6.603 0 12.739 2 17.835 5.427l-0.115-0.073zM928 101.504h-832c-17.673 0-32-14.327-32-32s14.327-32 32-32v0h832c17.673 0 32 14.327 32 32s-14.327 32-32 32v0zM544 645.504c0-17.673-14.327-32-32-32s-32 14.327-32 32c0 17.673 14.327 32 32 32s32-14.327 32-32z" />
<glyph unicode="&#xe911;" glyph-name="press" data-tags="scf-press" d="M800 704h-32v32c0 53.019-42.981 96-96 96v0h-448c-53.019 0-96-42.981-96-96v0-576c0-53.019 42.981-96 96-96v0h576c53.019 0 96 42.981 96 96v0 448c0 53.019-42.981 96-96 96v0zM192 160v576c0 17.673 14.327 32 32 32v0h448c17.673 0 32-14.327 32-32v0-576c0.115-11.519 2.265-22.501 6.105-32.653l-0.217 0.653h-485.888c-17.673 0-32 14.327-32 32v0zM832 160c0-17.673-14.327-32-32-32s-32 14.327-32 32v0 480h32c17.673 0 32-14.327 32-32v0zM352 640h192c17.673 0 32 14.327 32 32s-14.327 32-32 32v0h-192c-17.673 0-32-14.327-32-32s14.327-32 32-32v0zM608 576h-64c-17.673 0-32-14.327-32-32s14.327-32 32-32v0h64c17.673 0 32 14.327 32 32s-14.327 32-32 32v0zM608 448h-64c-17.673 0-32-14.327-32-32s14.327-32 32-32v0h64c17.673 0 32 14.327 32 32s-14.327 32-32 32v0zM608 320h-320c-17.673 0-32-14.327-32-32s14.327-32 32-32v0h320c17.673 0 32 14.327 32 32s-14.327 32-32 32v0zM288 384h128c17.673 0 32 14.327 32 32v0 128c0 17.673-14.327 32-32 32v0h-128c-17.673 0-32-14.327-32-32v0-128c0-17.673 14.327-32 32-32v0zM320 512h64v-64h-64z" />
<glyph unicode="&#xe912;" glyph-name="comment" data-tags="scf-comment" d="M672 640h-320c-17.673 0-32-14.327-32-32s14.327-32 32-32v0h320c17.673 0 32 14.327 32 32s-14.327 32-32 32v0zM544 512h-192c-17.673 0-32-14.327-32-32s14.327-32 32-32v0h192c17.673 0 32 14.327 32 32s-14.327 32-32 32v0zM800 832h-576c-53.019 0-96-42.981-96-96v0-447.488c0-53.019 42.981-96 96-96v0l499.2-0.512 118.592-118.656c5.746-5.546 13.579-8.963 22.21-8.963 17.539 0 31.783 14.111 31.998 31.599v640.020c0 53.019-42.981 96-96 96v0zM832 173.248l-73.344 73.408c-5.788 5.774-13.776 9.344-22.599 9.344-0.020 0-0.040 0-0.060 0h0.003l-512 0.512c-17.673 0-32 14.327-32 32v0 447.488c0 17.673 14.327 32 32 32v0h576c17.673 0 32-14.327 32-32v0z" />
<glyph unicode="&#xe913;" glyph-name="copy" data-tags="scf-copy" d="M768 704h-32v32c0 53.019-42.981 96-96 96v0h-384c-53.019 0-96-42.981-96-96v0-448c0-53.019 42.981-96 96-96v0h32v-32c0-53.019 42.981-96 96-96v0h384c53.019 0 96 42.981 96 96v0 448c0 53.019-42.981 96-96 96v0zM256 256c-17.673 0-32 14.327-32 32v0 448c0 17.673 14.327 32 32 32v0h384c17.673 0 32-14.327 32-32v0-448c0-17.673-14.327-32-32-32v0zM800 160c0-17.673-14.327-32-32-32v0h-384c-17.673 0-32 14.327-32 32v0 32h288c53.019 0 96 42.981 96 96v0 352h32c17.673 0 32-14.327 32-32v0z" />
<glyph unicode="&#xe914;" glyph-name="calendar" data-tags="scf-calendar" d="M800 768h-96v32c0 17.673-14.327 32-32 32s-32-14.327-32-32v0-32h-256v32c0 17.673-14.327 32-32 32s-32-14.327-32-32v0-32h-96c-53.019 0-96-42.981-96-96v0-512c0-53.019 42.981-96 96-96v0h576c53.019 0 96 42.981 96 96v0 512c0 53.019-42.981 96-96 96v0zM224 704h96v-32c0-17.673 14.327-32 32-32s32 14.327 32 32v0 32h256v-32c0-17.673 14.327-32 32-32s32 14.327 32 32v0 32h96c17.673 0 32-14.327 32-32v0-96h-640v96c0 17.673 14.327 32 32 32v0zM800 128h-576c-17.673 0-32 14.327-32 32v0 352h640v-352c0-17.673-14.327-32-32-32v0zM736 448h-192c-17.673 0-32-14.327-32-32v0-192c0-17.673 14.327-32 32-32v0h192c17.673 0 32 14.327 32 32v0 192c0 17.673-14.327 32-32 32v0zM704 256h-128v128h128z" />
<glyph unicode="&#xe915;" glyph-name="edit" data-tags="scf-edit" d="M864 480c-17.673 0-32-14.327-32-32v0-288c0-17.673-14.327-32-32-32v0h-576c-17.673 0-32 14.327-32 32v0 576c0 17.673 14.327 32 32 32v0h288c17.673 0 32 14.327 32 32s-14.327 32-32 32v0h-288c-53.019 0-96-42.981-96-96v0-576c0-53.019 42.981-96 96-96v0h576c53.019 0 96 42.981 96 96v0 288c0 17.673-14.327 32-32 32v0zM384 480v-128c0-17.673 14.327-32 32-32v0h128c0.017 0 0.037 0 0.057 0 8.822 0 16.811 3.57 22.599 9.345l253.183 253.055c22.462 22.487 36.353 53.538 36.353 87.835 0 35.397-14.797 67.338-38.543 89.974l-0.050 0.047c-22.3 21.133-52.496 34.128-85.728 34.128-34.711 0-66.111-14.179-88.724-37.060l-0.012-0.012-249.984-254.912c-5.658-5.767-9.151-13.675-9.152-22.4v0zM448 467.2l240.896 245.696c10.962 11.114 26.188 17.999 43.022 17.999 16.127 0 30.778-6.319 41.612-16.615l-0.026 0.024c11.547-11.014 18.726-26.518 18.726-43.7 0-16.742-6.817-31.892-17.827-42.825l-243.651-243.779h-82.752z" />
<glyph unicode="&#xe916;" glyph-name="delete" data-tags="scf-delete" d="M224 672h576c17.673 0 32 14.327 32 32s-14.327 32-32 32v0h-160c0 70.692-57.308 128-128 128s-128-57.308-128-128v0h-160c-17.673 0-32-14.327-32-32s14.327-32 32-32v0zM512 800c35.346 0 64-28.654 64-64v0h-128c0 35.346 28.654 64 64 64v0zM800 608h-576c-17.673 0-32-14.327-32-32v0-384c0-88.366 71.634-160 160-160v0h320c88.366 0 160 71.634 160 160v0 384c0 17.673-14.327 32-32 32v0zM768 192c0-53.019-42.981-96-96-96v0h-320c-53.019 0-96 42.981-96 96v0 352h512zM352 224c17.673 0 32 14.327 32 32v0 192c0 17.673-14.327 32-32 32s-32-14.327-32-32v0-192c0-17.673 14.327-32 32-32v0zM512 224c17.673 0 32 14.327 32 32v0 192c0 17.673-14.327 32-32 32s-32-14.327-32-32v0-192c0-17.673 14.327-32 32-32v0zM672 224c17.673 0 32 14.327 32 32v0 192c0 17.673-14.327 32-32 32s-32-14.327-32-32v0-192c0-17.673 14.327-32 32-32v0z" />
<glyph unicode="&#xe917;" glyph-name="like" data-tags="scf-like" d="M928 533.824c-17.457 25.526-46.401 42.084-79.218 42.176h-257.486v86.080c0 0.042 0 0.091 0 0.14 0 64.913-29.126 123.023-75.022 161.974l-0.306 0.253c-5.539 4.716-12.778 7.585-20.686 7.585-12.485 0-23.3-7.15-28.574-17.578l-0.084-0.183-128-256c-2.093-4.164-3.321-9.074-3.328-14.27v-384.002c0-53.019 42.981-96 96-96v0h340.672c41.661 0.258 77.036 26.891 90.286 64.030l0.21 0.674 75.392 315.648c4.294 10.5 6.786 22.685 6.786 35.451 0 20.173-6.222 38.893-16.852 54.345l0.211-0.324zM876.8 463.744l-75.392-315.648c-4.845-11.857-16.276-20.065-29.628-20.096h-340.484c-17.673 0-32 14.327-32 32v0 376.448l103.616 207.232c15.282-22.989 24.383-51.231 24.384-81.6v0-118.080c0-17.673 14.327-32 32-32v0h289.472c0.068 0.001 0.147 0.001 0.227 0.001 10.895 0 20.496-5.545 26.133-13.967l0.072-0.114c3.325-5.257 5.298-11.656 5.298-18.516 0-5.708-1.366-11.097-3.789-15.858l0.092 0.199zM239.296 512h-128c-17.673 0-32-14.327-32-32v0-320c0-17.673 14.327-32 32-32v0h128c17.673 0 32 14.327 32 32s-14.327 32-32 32v0h-96v256h96c17.673 0 32 14.327 32 32s-14.327 32-32 32v0zM271.296 288c0-17.673-14.327-32-32-32s-32 14.327-32 32c0 17.673 14.327 32 32 32s32-14.327 32-32z" />
<glyph unicode="&#xe918;" glyph-name="location" data-tags="scf-location" d="M512 873.152c-176.643-0.218-319.781-143.357-320-319.979v-0.021c0-116.928 131.264-330.496 241.344-489.152 17.503-25.033 46.191-41.202 78.656-41.202s61.153 16.169 78.451 40.893l0.205 0.309c110.080 158.656 241.344 372.224 241.344 489.152-0.218 176.643-143.357 319.781-319.979 320h-0.021zM538.048 100.608c-5.964-8.010-15.407-13.143-26.048-13.143s-20.084 5.132-25.987 13.057l-0.061 0.086c-146.112 210.432-229.952 375.36-229.952 452.544 0 141.385 114.615 256 256 256s256-114.615 256-256v0c0-77.184-83.84-242.112-229.952-452.544zM512 681.152c-70.692 0-128-57.308-128-128s57.308-128 128-128c70.692 0 128 57.308 128 128v0c0 70.692-57.308 128-128 128v0zM512 489.152c-35.346 0-64 28.654-64 64s28.654 64 64 64c35.346 0 64-28.654 64-64v0c0-35.346-28.654-64-64-64v0z" />
<glyph unicode="&#xe919;" glyph-name="lock" data-tags="scf-lock" d="M736 576h-32v64c0 106.039-85.961 192-192 192s-192-85.961-192-192v0-64h-32c-53.019 0-96-42.981-96-96v0-320c0-53.019 42.981-96 96-96v0h448c53.019 0 96 42.981 96 96v0 320c0 53.019-42.981 96-96 96v0zM384 640c0 70.692 57.308 128 128 128s128-57.308 128-128v0-64h-256zM768 160c0-17.673-14.327-32-32-32v0h-448c-17.673 0-32 14.327-32 32v0 320c0 17.673 14.327 32 32 32v0h448c17.673 0 32-14.327 32-32v0zM513.28 419.136c-35.346 0-64-28.654-64-64v0c0.265-23.146 12.951-43.27 31.693-54.045l0.307-0.163v-73.792c0-17.673 14.327-32 32-32s32 14.327 32 32v0 73.664c19.050 10.909 31.739 31.015 32 54.107v0.037c0 0.057 0 0.124 0 0.192 0 35.346-28.654 64-64 64 0 0 0 0 0 0v0z" />
<glyph unicode="&#xe91a;" glyph-name="notification" data-tags="scf-notification" d="M828.608 206.336c-38.12 74.826-60.499 163.171-60.608 256.733v16.931c0 141.385-114.615 256-256 256s-256-114.615-256-256v0-16.896c-0.109-93.597-22.488-181.942-62.121-260.055l1.513 3.287c-2.138-4.176-3.391-9.11-3.391-14.336 0-17.673 14.326-31.999 31.999-32h160c-0.002-0.286-0.004-0.625-0.004-0.964 0-70.162 56.878-127.040 127.040-127.040 0.339 0 0.677 0.001 1.015 0.004h-0.052c0.711-0.014 1.55-0.023 2.391-0.023 69.385 0 125.632 56.247 125.632 125.632 0 0.841-0.008 1.679-0.025 2.516l0.002-0.125h160c17.673 0.001 31.999 14.327 31.999 32 0 5.226-1.253 10.16-3.475 14.517l0.084-0.181zM448 160h128c0-35.346-28.654-64-64-64s-64 28.654-64 64v0zM273.344 224c29.363 70.746 46.488 152.902 46.656 239.038v16.962c0 106.039 85.961 192 192 192s192-85.961 192-192v0-16.896c0.124-86.187 17.206-168.35 48.085-243.378l-1.557 4.274zM480 800h64c17.673 0 32 14.327 32 32s-14.327 32-32 32v0h-64c-17.673 0-32-14.327-32-32s14.327-32 32-32v0z" />
<glyph unicode="&#xe91b;" glyph-name="faq" data-tags="scf-faq" d="M854.464 665.6l-192 188.8c-0.962 0.72-2.069 1.459-3.214 2.142l-0.178 0.098c-1.975 1.746-4.229 3.243-6.674 4.406l-0.174 0.074c-3.582 1.679-7.762 2.724-12.169 2.878l-0.055 0.002h-384c-53.019 0-96-42.981-96-96v0-640c0-53.019 42.981-96 96-96v0h512c53.019 0 96 42.981 96 96v0 515.008c-0.057 8.846-3.693 16.831-9.532 22.588l-0.004 0.004zM672 755.584l84.928-83.584h-84.928zM768 96h-512c-17.673 0-32 14.327-32 32v0 640c0 17.673 14.327 32 32 32v0h352v-160c0-17.673 14.327-32 32-32v0h160v-480c0-17.673-14.327-32-32-32v0zM528.896 608h-33.792c-61.332-0.073-111.031-49.772-111.104-111.097v-0.007c0-17.673 14.327-32 32-32s32 14.327 32 32v0c0.036 26 21.104 47.068 47.1 47.104h33.796c0.223 0.004 0.486 0.006 0.749 0.006 26.015 0 47.104-21.089 47.104-47.104 0-18.633-10.819-34.739-26.518-42.379l-0.279-0.123-84.288-42.112c-10.464-5.327-17.536-15.967-17.664-28.271v-64.017c0-17.673 14.327-32 32-32s32 14.327 32 32v0 44.224l66.624 33.28c36.724 18.641 61.452 56.129 61.452 99.392 0 61.361-49.743 111.104-111.104 111.104-0.027 0-0.053 0-0.080 0h0.004zM502.4 246.464c-5.767 5.656-13.676 9.147-22.4 9.147s-16.633-3.491-22.405-9.152l0.005 0.005c-3.193-2.678-5.625-6.163-6.992-10.143l-0.048-0.161c-1.625-3.296-2.575-7.176-2.575-11.278 0-0.31 0.005-0.619 0.016-0.927l-0.001 0.045c-0.010-0.27-0.016-0.586-0.016-0.904 0-4.072 0.951-7.923 2.643-11.341l-0.067 0.15c1.399-4.148 3.835-7.636 7.003-10.274l0.037-0.030c2.689-3.15 6.142-5.572 10.074-6.988l0.166-0.052c3.296-1.625 7.176-2.575 11.278-2.575 0.31 0 0.619 0.005 0.927 0.016l-0.045-0.001c0.117-0.002 0.256-0.003 0.394-0.003 8.685 0 16.508 3.688 21.989 9.584l0.017 0.019c3.205 2.668 5.641 6.156 6.993 10.145l0.047 0.159c1.625 3.269 2.576 7.119 2.576 11.192 0 0.318-0.006 0.635-0.017 0.95l0.001-0.046c0.010 0.263 0.015 0.572 0.015 0.882 0 4.102-0.95 7.981-2.643 11.431l0.068-0.153c-1.415 4.141-3.847 7.626-7.005 10.275l-0.035 0.029z" />
<glyph unicode="&#xe91c;" glyph-name="directory" data-tags="scf-directory" d="M896 608c17.673 0 32 14.327 32 32v0 64c0 17.673-14.327 32-32 32v0h-32v32c0 53.019-42.981 96-96 96v0h-512c-53.019 0-96-42.981-96-96v0-96h-32c-17.673 0-32-14.327-32-32s14.327-32 32-32v0h32v-64h-32c-17.673 0-32-14.327-32-32s14.327-32 32-32v0h32v-64h-32c-17.673 0-32-14.327-32-32s14.327-32 32-32v0h32v-64h-32c-17.673 0-32-14.327-32-32s14.327-32 32-32v0h32v-96c0-53.019 42.981-96 96-96v0h512c53.019 0 96 42.981 96 96v0 288h32c17.673 0 32 14.327 32 32v0 64c0 17.673-14.327 32-32 32v0h-32v64zM800 128c0-17.673-14.327-32-32-32v0h-512c-17.673 0-32 14.327-32 32v0 96h32c17.673 0 32 14.327 32 32s-14.327 32-32 32v0h-32v64h32c17.673 0 32 14.327 32 32s-14.327 32-32 32v0h-32v64h32c17.673 0 32 14.327 32 32s-14.327 32-32 32v0h-32v64h32c17.673 0 32 14.327 32 32s-14.327 32-32 32v0h-32v96c0 17.673 14.327 32 32 32v0h512c17.673 0 32-14.327 32-32v0-640zM396.16 605.44c-3.595 1.518-7.774 2.4-12.16 2.4s-8.565-0.882-12.371-2.479l0.211 0.078c-4.12-1.416-7.584-3.848-10.21-7.003l-0.030-0.037c-5.925-5.643-9.61-13.591-9.61-22.4s3.685-16.757 9.597-22.388l0.013-0.012c2.656-3.192 6.12-5.624 10.080-6.992l0.16-0.048c3.414-1.619 7.419-2.565 11.644-2.565 0.182 0 0.363 0.002 0.543 0.005h-0.027c0.263-0.010 0.572-0.015 0.882-0.015 4.102 0 7.981 0.95 11.431 2.643l-0.153-0.068c4.12 1.416 7.584 3.848 10.21 7.003l0.030 0.037c5.925 5.643 9.61 13.591 9.61 22.4s-3.685 16.757-9.597 22.388l-0.013 0.012c-2.656 3.192-6.12 5.624-10.080 6.992l-0.16 0.048zM396.16 477.44c-3.595 1.518-7.774 2.4-12.16 2.4s-8.565-0.882-12.371-2.479l0.211 0.078c-4.12-1.416-7.584-3.848-10.21-7.003l-0.030-0.037c-5.925-5.643-9.61-13.591-9.61-22.4s3.685-16.757 9.597-22.388l0.013-0.012c2.656-3.192 6.12-5.624 10.080-6.992l0.16-0.048c3.414-1.619 7.419-2.565 11.644-2.565 0.182 0 0.363 0.002 0.543 0.005h-0.027c0.263-0.010 0.572-0.015 0.882-0.015 4.102 0 7.981 0.95 11.431 2.643l-0.153-0.068c4.12 1.416 7.584 3.848 10.21 7.003l0.030 0.037c5.925 5.643 9.61 13.591 9.61 22.4s-3.685 16.757-9.597 22.388l-0.013 0.012c-2.656 3.192-6.12 5.624-10.080 6.992l-0.16 0.048zM640 608h-128c-17.673 0-32-14.327-32-32s14.327-32 32-32v0h128c17.673 0 32 14.327 32 32s-14.327 32-32 32v0zM640 480h-128c-17.673 0-32-14.327-32-32s14.327-32 32-32v0h128c17.673 0 32 14.327 32 32s-14.327 32-32 32v0zM396.16 349.44c-3.595 1.518-7.774 2.4-12.16 2.4s-8.565-0.882-12.371-2.479l0.211 0.078c-4.12-1.416-7.584-3.848-10.21-7.003l-0.030-0.037c-5.914-5.498-9.603-13.321-9.603-22.006 0-0.139 0.001-0.277 0.003-0.415v0.021c-0.003-0.154-0.005-0.335-0.005-0.516 0-4.225 0.946-8.229 2.636-11.812l-0.072 0.169c3.499-7.725 9.555-13.781 17.066-17.193l0.214-0.087c3.414-1.619 7.419-2.565 11.644-2.565 0.182 0 0.363 0.002 0.543 0.005h-0.027c0.263-0.010 0.572-0.015 0.882-0.015 4.102 0 7.981 0.95 11.431 2.643l-0.153-0.068c7.725 3.499 13.781 9.555 17.193 17.066l0.087 0.214c1.619 3.414 2.565 7.419 2.565 11.644 0 0.182-0.002 0.363-0.005 0.543v-0.027c0.002 0.117 0.003 0.256 0.003 0.394 0 8.685-3.688 16.508-9.584 21.989l-0.019 0.017c-2.656 3.192-6.12 5.624-10.080 6.992l-0.16 0.048zM640 352h-128c-17.673 0-32-14.327-32-32s14.327-32 32-32v0h128c17.673 0 32 14.327 32 32s-14.327 32-32 32v0z" />
<glyph unicode="&#xe91d;" glyph-name="searched-file" data-tags="scf-searched-file" d="M864 704h-352.512c-0.001 0-0.002 0-0.003 0-8.597 0-16.402 3.39-22.152 8.907l0.011-0.011-96.704 92.48c-17.105 16.475-40.403 26.624-66.072 26.624-0.059 0-0.118 0-0.177 0h-166.391c-53.019 0-96-42.981-96-96v0-576c0-53.019 42.981-96 96-96v0h704c53.019 0 96 42.981 96 96v0 448c0 53.019-42.981 96-96 96v0zM896 160c0-17.673-14.327-32-32-32v0h-704c-17.673 0-32 14.327-32 32v0 576c0 17.673 14.327 32 32 32v0h166.4c0.028 0 0.061 0 0.094 0 8.548 0 16.304-3.392 21.994-8.904l-0.008 0.008 96.64-92.48c17.114-16.476 40.421-26.624 66.098-26.624 0.095 0 0.19 0 0.285 0h352.497c17.673 0 32-14.327 32-32v0zM493.888 383.36c11.384 18.878 18.12 41.673 18.12 66.040 0 71.47-57.938 129.408-129.408 129.408s-129.408-57.938-129.408-129.408c0-71.47 57.938-129.408 129.408-129.408 24.368 0 47.163 6.735 66.624 18.445l-0.584-0.326 72.704-72.768c5.798-5.798 13.808-9.384 22.656-9.384 17.695 0 32.040 14.345 32.040 32.040 0 8.848-3.586 16.858-9.384 22.656v0zM320 448c0 0.061 0 0.132 0 0.204 0 35.346 28.654 64 64 64s64-28.654 64-64c0-17.549-7.063-33.448-18.501-45.010l0.006 0.006-0.384-0.32v-0.384c-11.568-11.502-27.514-18.611-45.12-18.611-35.346 0-64 28.654-64 64 0 0.040 0 0.081 0 0.121v-0.006z" />
<glyph unicode="&#xe91e;" glyph-name="save" data-tags="scf-save" d="M353.6 406.656c-5.808-5.794-9.401-13.805-9.401-22.656s3.593-16.862 9.401-22.655l113.153-113.089c11.581-11.578 27.578-18.738 45.248-18.738s33.667 7.161 45.248 18.739l113.152 113.088c5.804 5.796 9.394 13.807 9.394 22.656 0 17.683-14.335 32.018-32.018 32.018-8.834 0-16.832-3.577-22.624-9.362v0l-81.152-81.152v474.496c0 17.673-14.327 32-32 32s-32-14.327-32-32v0-474.496l-81.152 81.152c-5.791 5.789-13.789 9.369-22.624 9.369s-16.833-3.58-22.624-9.369v0zM800 768h-128c-17.673 0-32-14.327-32-32s14.327-32 32-32v0h128c17.673 0 32-14.327 32-32v0-512c0-17.673-14.327-32-32-32v0h-576c-17.673 0-32 14.327-32 32v0 512c0 17.673 14.327 32 32 32v0h128c17.673 0 32 14.327 32 32s-14.327 32-32 32v0h-128c-53.019 0-96-42.981-96-96v0-512c0-53.019 42.981-96 96-96v0h576c53.019 0 96 42.981 96 96v0 512c0 53.019-42.981 96-96 96v0z" />
<glyph unicode="&#xe91f;" glyph-name="share" data-tags="scf-share" d="M864 448c-17.673 0-32-14.327-32-32v0-256c0-17.673-14.327-32-32-32v0h-576c-17.673 0-32 14.327-32 32v0 576c0 17.673 14.327 32 32 32v0h256c17.673 0 32 14.327 32 32s-14.327 32-32 32v0h-256c-53.019 0-96-42.981-96-96v0-576c0-53.019 42.981-96 96-96v0h576c53.019 0 96 42.981 96 96v0 256c0 17.673-14.327 32-32 32v0zM832 832h-160c-17.673 0-32-14.327-32-32s14.327-32 32-32v0h114.752l-393.408-393.344c-5.798-5.798-9.384-13.808-9.384-22.656 0-17.695 14.345-32.040 32.040-32.040 8.848 0 16.858 3.586 22.656 9.384v0l393.344 393.408v-114.752c0-17.673 14.327-32 32-32s32 14.327 32 32v0 160c0 35.346-28.654 64-64 64v0z" />
<glyph unicode="&#xe920;" glyph-name="print" data-tags="scf-print" d="M775.168 576h-7.168v224c0 17.673-14.327 32-32 32v0h-448c-17.673 0-32-14.327-32-32v0-224h-7.168c-66.682-0.073-120.723-54.091-120.832-120.758v-231.242c0-17.673 14.327-32 32-32v0h25.6l-52.16-78.272c-3.358-4.983-5.36-11.122-5.36-17.728 0-17.645 14.281-31.954 31.915-32h704.004c17.666 0.009 31.983 14.333 31.983 32 0 6.606-2.002 12.745-5.432 17.842l0.073-0.114-52.224 78.272h25.6c17.673 0 32 14.327 32 32v0 231.232c-0.109 66.677-54.15 120.695-120.825 120.768h-0.007zM320 768h384v-192h-384zM219.84 128l85.312 128h413.696l85.312-128zM832 256h-32c-1.408-0.179-2.665-0.448-3.881-0.811l0.169 0.043-33.664 50.496c-5.816 8.65-15.563 14.266-26.623 14.272h-448.001c-11.061-0.006-20.808-5.622-26.551-14.158l-0.073-0.114-33.664-50.496c-1.047 0.32-2.304 0.589-3.593 0.755l-0.119 0.013h-32v199.232c0.036 31.36 25.467 56.768 56.832 56.768 0 0 0 0 0 0h526.336c31.365 0 56.796-25.408 56.832-56.765v-0.003zM416 448h-128c-17.673 0-32-14.327-32-32s14.327-32 32-32v0h128c17.673 0 32 14.327 32 32s-14.327 32-32 32v0z" />
<glyph unicode="&#xe921;" glyph-name="secured" data-tags="scf-secured" d="M812.8 701.248l-288 128c-3.822 1.741-8.288 2.756-12.992 2.756s-9.17-1.015-13.193-2.838l0.201 0.082-288-128c-11.188-5.149-18.816-16.263-18.816-29.158 0-0.032 0-0.063 0-0.095v0.005-137.408c0-249.6 92.416-389.824 309.056-468.608 3.251-1.257 7.012-1.985 10.944-1.985s7.693 0.728 11.157 2.057l-0.213-0.072c216.64 78.784 309.056 218.88 309.056 468.608v137.408c-0.034 13.011-7.828 24.194-18.996 29.167l-0.204 0.081zM768 534.848c0-216.896-74.368-334.912-256-404.48-181.632 69.568-256 187.584-256 404.48v116.352l256 113.792 256-113.792zM401.664 468.608c-5.335 5.745-12.929 9.328-21.36 9.328-16.083 0-29.12-13.037-29.12-29.12 0-8.431 3.583-16.026 9.31-21.344l0.018-0.017 87.488-87.296c5.275-5.245 12.547-8.488 20.576-8.488s15.301 3.242 20.577 8.489l174.527 174.527c5.745 5.335 9.328 12.929 9.328 21.36 0 16.083-13.037 29.12-29.12 29.12-8.431 0-16.026-3.583-21.344-9.31l-0.017-0.018-154.176-153.984z" />
<glyph unicode="&#xe922;" glyph-name="help" data-tags="scf-help" d="M918.592 649.344c5.81 5.794 9.404 13.807 9.404 22.659 0 10.431-4.991 19.697-12.716 25.539l-0.080 0.058-256 192c-5.281 3.994-11.958 6.397-19.196 6.397-8.853 0-16.866-3.595-22.659-9.404l-55.105-55.105c-4.337-4.329-9.088-8.247-14.187-11.687l-0.341-0.217-124.48-82.944c-43.197-29.104-71.232-77.837-71.232-133.117 0-0.023 0-0.047 0-0.070v0.004-46.208l-28.16-28.16c-49.849-50.091-118.844-81.089-195.079-81.089-0.267 0-0.535 0-0.802 0.001h0.041c-17.673 0-32-14.327-32-32v0-384c0-17.673 14.327-32 32-32v0h596.672c41.118 0.080 76.162 25.997 89.767 62.377l0.217 0.663 75.904 253.312c4.329 10.539 6.842 22.772 6.842 35.592 0 44.906-30.833 82.611-72.483 93.099l-0.663 0.141 36.608 146.432zM830.272 337.408l-5.248-17.408h-121.024c-17.673 0-32-14.327-32-32s14.327-32 32-32v0h101.824l-20.864-69.568c-4.742 3.334-10.594 5.392-16.917 5.567l-0.043 0.001h-64c-17.673 0-32-14.327-32-32s14.327-32 32-32v0h63.488l-13.184-43.968c-4.864-11.83-16.29-20.012-29.63-20.032h-564.674v321.472c74.413 7.373 140.567 37.933 192.323 84.252l-0.323-0.284v-181.44c0-17.673 14.327-32 32-32v0c77.025 0.016 141.33 54.456 156.553 126.958l0.183 1.042h260.736c0.080 0.001 0.175 0.001 0.27 0.001 10.869 0 20.448-5.518 26.091-13.905l0.071-0.112c3.445-5.19 5.497-11.564 5.497-18.417 0-5.139-1.154-10.008-3.216-14.363l0.087 0.204zM809.344 630.592c-3.97-3.983-6.897-9.006-8.336-14.626l-0.048-0.222-41.984-167.744h-214.976v32c0 17.673-14.327 32-32 32s-32-14.327-32-32v0-64c0-0.015 0-0.033 0-0.050 0-41.549-26.395-76.933-63.332-90.298l-0.668-0.211v278.016c0 0.017 0 0.037 0 0.057 0 33.174 16.827 62.418 42.41 79.662l0.342 0.217 124.48 83.2c9.101 6.148 17.053 12.718 24.323 19.971l35.453 35.453 204.288-153.216z" />
<glyph unicode="&#xe923;" glyph-name="time" data-tags="scf-time" d="M608 448h-96v160c0 17.673-14.327 32-32 32s-32-14.327-32-32v0-192c0-17.673 14.327-32 32-32v0h128c17.673 0 32 14.327 32 32s-14.327 32-32 32v0zM512 832c-212.077 0-384-171.923-384-384s171.923-384 384-384c212.077 0 384 171.923 384 384v0c-0.218 211.989-172.011 383.782-383.979 384h-0.021zM512 128c-176.731 0-320 143.269-320 320s143.269 320 320 320c176.731 0 320-143.269 320-320v0c-0.218-176.643-143.357-319.781-319.979-320h-0.021z" />
<glyph unicode="&#xe924;" glyph-name="guide" data-tags="scf-guide" d="M840.448 551.232l-29.12-1.984c-3.849 13.243-9.859 24.766-17.704 34.783l0.168-0.223 23.424 23.424c10.866 10.796 17.592 25.749 17.592 42.272s-6.726 31.476-17.589 42.269l-61.443 61.443c-10.77 10.853-25.685 17.578-42.172 17.6h-0.004c-0.007 0-0.015 0-0.024 0-16.495 0-31.425-6.703-42.214-17.534l-0.002-0.002-19.2-22.080c-10.624 6.032-23.049 10.32-36.269 12.101l-0.531 0.059v33.088c-0.036 32.999-26.777 59.74-59.772 59.776h-87.044c-33.026 0-59.804-26.755-59.84-59.773v-0.003l2.048-29.12c-13.243-3.849-24.766-9.859-34.783-17.704l0.223 0.168-23.424 23.488c-10.965 10.492-25.864 16.951-42.272 16.951s-31.307-6.459-42.295-16.972l0.023 0.021-61.44-61.44c-10.808-10.835-17.491-25.789-17.491-42.304s6.683-31.469 17.492-42.305l-0.001 0.001 22.144-19.2c-6.15-10.647-10.471-23.13-12.172-36.432l-0.052-0.496h-33.216c-32.949-0.073-59.639-26.763-59.712-59.705v-86.919c0.073-32.949 26.763-59.639 59.705-59.712h0.007l29.184 2.176c3.725-13.324 9.728-24.928 17.632-34.963l-0.16 0.211-23.424-23.424c-10.789-10.832-17.459-25.773-17.459-42.272s6.67-31.44 17.461-42.274l-0.002 0.002 61.44-61.504c10.965-10.492 25.864-16.951 42.272-16.951s31.307 6.459 42.295 16.972l-0.023-0.021 19.2 22.080c10.626-6.013 23.049-10.298 36.261-12.1l0.539-0.060v-33.088c0.036-33.021 26.814-59.776 59.84-59.776 0 0 0 0 0 0h86.912c32.999 0.036 59.74 26.777 59.776 59.772v0.004l-1.984 29.12c13.243 3.849 24.766 9.859 34.783 17.704l-0.223-0.168 23.424-23.488c10.791-10.833 25.721-17.536 42.216-17.536 0.008 0 0.017 0 0.025 0h-0.001c16.46 0.015 31.352 6.716 42.109 17.533l61.443 61.443c10.885 10.799 17.624 25.765 17.624 42.304s-6.739 31.505-17.62 42.3l-0.004 0.004-22.016 19.2c6.032 10.624 10.32 23.049 12.101 36.269l0.059 0.531h33.088c32.976 0.036 59.703 26.741 59.776 59.705v87.047c-0.072 32.904-26.69 59.567-59.57 59.712h-0.014zM836.224 408.768h-28.864c-26.267-0.204-48.5-17.247-56.452-40.857l-0.124-0.423c-4.224-12.429-8.55-22.707-13.486-32.629l0.686 1.525c-4.135-7.939-6.56-17.338-6.56-27.302 0-16.418 6.584-31.299 17.256-42.146l-0.008 0.008 23.424-17.472-55.488-61.44-23.424 23.424c-10.841 10.676-25.73 17.269-42.159 17.269-9.931 0-19.3-2.409-27.553-6.674l0.336 0.158c-8.424-4.29-18.682-8.617-29.256-12.265l-1.784-0.535c-24.095-8.057-41.192-30.323-41.408-56.614v-0.026l4.224-28.864-82.752-4.224v33.088c-0.184 26.274-17.235 48.517-40.857 56.453l-0.423 0.123c-12.401 4.223-22.657 8.549-32.557 13.485l1.517-0.685c-8.027 4.037-17.494 6.4-27.513 6.4-0.025 0-0.050 0-0.075 0h0.004c-0.043 0-0.094 0-0.145 0-16.278 0-31.020-6.577-41.713-17.219l0.002 0.002-17.472-23.424-61.632 55.296 23.424 23.424c10.702 10.845 17.312 25.752 17.312 42.202 0 9.964-2.425 19.362-6.717 27.636l0.158-0.334c-4.403 8.52-8.733 18.76-12.319 29.342l-0.481 1.634c-8.144 24.022-30.366 41.056-56.606 41.344h-0.034l-28.864-4.288-4.352 83.072h33.152c26.311 0.287 48.555 17.385 56.516 41.047l0.124 0.425c4.128 12.247 8.456 22.463 13.435 32.294l-0.635-1.382c4.103 7.909 6.509 17.267 6.509 27.186 0 16.481-6.641 31.41-17.393 42.258l0.004-0.004-23.232 17.344 55.488 61.44 23.488-23.424c10.849-10.668 25.741-17.255 42.171-17.255 9.926 0 19.29 2.404 27.542 6.661l-0.337-0.158c8.424 4.29 18.682 8.617 29.256 12.265l1.784 0.535c24.068 8.078 41.138 30.339 41.344 56.615v0.025l-4.16 28.864 82.688 4.224v-33.088c0.204-26.267 17.247-48.5 40.857-56.452l0.423-0.124c12.429-4.224 22.707-8.55 32.629-13.486l-1.525 0.686c7.878-4.071 17.196-6.458 27.071-6.458 16.543 0 31.521 6.698 42.37 17.531l-0.001-0.001 17.408 23.424 61.504-55.488-23.424-23.424c-10.676-10.841-17.269-25.73-17.269-42.159 0-9.931 2.409-19.3 6.674-27.553l-0.158 0.336c4.27-8.388 8.596-18.623 12.255-29.171l0.545-1.805c8.035-24.121 30.308-41.247 56.613-41.472h0.027l28.864 4.288zM512 608c-88.366 0-160-71.634-160-160s71.634-160 160-160c88.366 0 160 71.634 160 160v0c0 88.366-71.634 160-160 160v0zM512 352c-53.019 0-96 42.981-96 96s42.981 96 96 96c53.019 0 96-42.981 96-96v0c0-53.019-42.981-96-96-96v0z" />
<glyph unicode="&#xe925;" glyph-name="video" data-tags="scf-video" d="M864 832h-704c-53.019 0-96-42.981-96-96v0-576c0-53.019 42.981-96 96-96v0h704c53.019 0 96 42.981 96 96v0 576c0 53.019-42.981 96-96 96v0zM160 768h704c17.673 0 32-14.327 32-32v0-96h-768v96c0 17.673 14.327 32 32 32v0zM864 128h-704c-17.673 0-32 14.327-32 32v0 416h768v-416c0-17.673-14.327-32-32-32v0zM645.248 411.84l-163.264 102.4c-9.642 6.129-21.388 9.768-33.984 9.768-35.346 0-64-28.654-64-64 0-0.082 0-0.163 0-0.245v0.013-204.416c0-0.012 0-0.026 0-0.040 0-35.346 28.654-64 64-64 12.596 0 24.343 3.639 34.245 9.923l-0.261-0.155 163.264 102.4c18.299 11.476 30.286 31.538 30.286 54.4s-11.987 42.924-30.019 54.244l-0.267 0.156zM448 255.36v204.416l163.264-102.4z" />
<glyph unicode="&#xe926;" glyph-name="attachment" data-tags="scf-attachment" d="M543.68 131.2c-44.592-44.592-106.195-72.173-174.24-72.173-136.090 0-246.413 110.323-246.413 246.413 0 68.045 27.581 129.648 72.173 174.24v0l332.8 332.8c32.43 32.43 77.233 52.489 126.72 52.489 98.974 0 179.209-80.235 179.209-179.209 0-49.487-20.059-94.29-52.489-126.72l-269.44-269.44c-20.269-20.269-48.27-32.806-79.2-32.806-61.859 0-112.006 50.147-112.006 112.006 0 30.93 12.537 58.931 32.806 79.2l236.8 236.8 0.576 0.832c8.191 8.694 19.78 14.107 32.634 14.107 24.742 0 44.8-20.058 44.8-44.8 0-12.838-5.4-24.414-14.052-32.583l-0.022-0.020-240.192-240.512c-17.472-17.472 14.208-49.152 32-31.68l272.064 272.064c16.161 16.216 26.153 38.589 26.153 63.296 0 49.525-40.148 89.673-89.673 89.673-24.818 0-47.281-10.082-63.517-26.374l-332.803-332.803c-26.872-28.096-43.413-66.268-43.413-108.304 0-86.598 70.202-156.8 156.8-156.8 42.163 0 80.439 16.641 108.618 43.714l-0.052-0.050 300.8 300.8c7.82 6.826 18.119 10.988 29.39 10.988 24.742 0 44.8-20.058 44.8-44.8 0-11.255-4.15-21.541-11.004-29.41l0.046 0.054z" />
<glyph unicode="&#xe927;" glyph-name="warning" data-tags="scf-warning" d="M936.32 210.048l-339.904 568.448c-16.585 30.157-48.145 50.253-84.399 50.253-35.997 0-67.367-19.813-83.8-49.129l-0.249-0.484-340.864-570.24c-7.286-13.207-11.573-28.951-11.573-45.696 0-52.993 42.938-95.957 95.921-96h681.156c52.984 0.046 95.919 43.009 95.919 96 0 17.207-4.527 33.357-12.455 47.323l0.248-0.475zM880.128 146.816c-5.578-9.409-15.68-15.617-27.233-15.617-0.101 0-0.202 0-0.303 0.001h-681.137c-0.066-0.001-0.145-0.001-0.224-0.001-11.552 0-21.655 6.209-27.152 15.471l-0.080 0.146c-2.956 4.66-4.71 10.335-4.71 16.42 0 5.125 1.244 9.959 3.448 14.216l-0.081-0.173 341.248 570.752c5.328 10.045 15.72 16.771 27.682 16.771 0.145 0 0.291-0.001 0.436-0.003h-0.022c0.019 0 0.042 0 0.064 0 12.547 0 23.408-7.221 28.652-17.735l0.084-0.185 339.84-568.448c2.532-4.423 4.025-9.722 4.025-15.369 0-6.005-1.688-11.615-4.614-16.383l0.078 0.136zM512 579.2c-17.673 0-32-14.327-32-32v0-192c0-17.673 14.327-32 32-32s32 14.327 32 32v0 192c0 17.673-14.327 32-32 32v0zM544.064 227.2c0-17.673-14.327-32-32-32s-32 14.327-32 32c0 17.673 14.327 32 32 32s32-14.327 32-32z" />
<glyph unicode="&#xe928;" glyph-name="download" data-tags="scf-download" d="M886.464 665.6l-192 188.8c-0.881 0.672-1.884 1.348-2.925 1.967l-0.147 0.081c-2.073 1.805-4.431 3.364-6.98 4.59l-0.188 0.082c-3.582 1.679-7.762 2.724-12.169 2.878l-0.055 0.002h-448c-53.019 0-96-42.981-96-96v0-640c0-53.019 42.981-96 96-96v0h576c53.019 0 96 42.981 96 96v0 515.008c-0.057 8.846-3.693 16.831-9.532 22.588l-0.004 0.004zM704 755.584l84.928-83.584h-84.928zM800 96h-576c-17.673 0-32 14.327-32 32v0 640c0 17.673 14.327 32 32 32v0h416v-160c0-17.673 14.327-32 32-32v0h160v-480c0-17.673-14.327-32-32-32v0zM494.272 357.376c0.576-0.384 1.28 0 1.856-0.576 4.49-3.056 10.032-4.879 16-4.879s11.51 1.823 16.1 4.944l-0.1-0.064c0.576 0.32 1.28 0 1.856 0.576l96 64c8.206 5.871 13.491 15.37 13.491 26.104 0 17.673-14.327 32-32 32-6.279 0-12.136-1.809-17.078-4.934l0.131 0.078-46.528-30.848v132.224c0 17.673-14.327 32-32 32s-32-14.327-32-32v0-132.224l-46.272 30.848c-4.811 3.047-10.667 4.856-16.947 4.856-17.673 0-32-14.327-32-32 0-10.734 5.285-20.233 13.394-26.038l0.097-0.066zM736 320c-17.673 0-32-14.327-32-32v0-32h-384v32c0 17.673-14.327 32-32 32s-32-14.327-32-32v0-64c0-17.673 14.327-32 32-32v0h448c17.673 0 32 14.327 32 32v0 64c0 17.673-14.327 32-32 32v0z" />
<glyph unicode="&#xe929;" glyph-name="left" data-tags="scf-left" d="M685.248 749.248c11.578-11.581 18.738-27.578 18.738-45.248s-7.161-33.667-18.739-45.248l-210.752-210.752 210.752-210.752c11.116-11.497 17.966-27.179 17.966-44.462 0-35.346-28.654-64-64-64-17.282 0-32.964 6.85-44.48 17.983l0.018-0.017-256 256c-11.578 11.581-18.738 27.578-18.738 45.248s7.161 33.667 18.739 45.248l256 256c11.581 11.578 27.578 18.738 45.248 18.738s33.667-7.161 45.248-18.739v0z" />
<glyph unicode="&#xe92a;" glyph-name="right" data-tags="scf-right" d="M338.752 146.752c-11.578 11.581-18.738 27.578-18.738 45.248s7.161 33.667 18.739 45.248l210.752 210.752-210.752 210.752c-11.116 11.497-17.966 27.179-17.966 44.462 0 35.346 28.654 64 64 64 17.282 0 32.964-6.85 44.48-17.983l-0.018 0.017 256-256c11.578-11.581 18.738-27.578 18.738-45.248s-7.161-33.667-18.739-45.248l-256-256c-11.581-11.578-27.578-18.738-45.248-18.738s-33.667 7.161-45.248 18.739v0z" />
<glyph unicode="&#xe92b;" glyph-name="up" data-tags="scf-up" d="M813.248 274.752c-11.581-11.578-27.578-18.738-45.248-18.738s-33.667 7.161-45.248 18.739l-210.752 210.752-210.752-210.752c-11.497-11.116-27.179-17.966-44.462-17.966-35.346 0-64 28.654-64 64 0 17.282 6.85 32.964 17.983 44.48l-0.017-0.018 256 256c11.581 11.578 27.578 18.738 45.248 18.738s33.667-7.161 45.248-18.739l256-256c11.578-11.581 18.738-27.578 18.738-45.248s-7.161-33.667-18.739-45.248v0z" />
<glyph unicode="&#xe92c;" glyph-name="down" data-tags="scf-down" d="M210.752 621.248c11.581 11.578 27.578 18.738 45.248 18.738s33.667-7.161 45.248-18.739l210.752-210.752 210.752 210.752c11.654 12.054 27.97 19.538 46.034 19.538 35.346 0 64-28.654 64-64 0-18.064-7.484-34.38-19.52-46.017l-0.018-0.017-256-256c-11.581-11.578-27.578-18.738-45.248-18.738s-33.667 7.161-45.248 18.739l-256 256c-11.578 11.581-18.738 27.578-18.738 45.248s7.161 33.667 18.739 45.248v0z" />
<glyph unicode="&#xe92d;" glyph-name="close" data-tags="scf-close" d="M602.56 448l180.992-180.992c11.594-11.586 18.765-27.595 18.765-45.28 0-35.353-28.66-64.013-64.013-64.013-17.669 0-33.665 7.158-45.248 18.733l-181.056 181.056-180.992-181.056c-11.583-11.575-27.579-18.733-45.248-18.733-35.353 0-64.013 28.66-64.013 64.013 0 17.685 7.171 33.694 18.765 45.28l180.992 180.992-180.992 181.056c-11.116 11.497-17.966 27.179-17.966 44.462 0 35.346 28.654 64 64 64 17.282 0 32.964-6.85 44.48-17.983l-0.018 0.017 180.992-181.056 181.056 181.056c11.654 12.054 27.97 19.538 46.034 19.538 35.346 0 64-28.654 64-64 0-18.064-7.484-34.38-19.52-46.017l-0.018-0.017z" />
<glyph unicode="&#xe92e;" glyph-name="done" data-tags="scf-done" d="M845.248 685.248c11.578-11.581 18.738-27.578 18.738-45.248s-7.161-33.667-18.739-45.248l-384-384c-11.581-11.578-27.578-18.738-45.248-18.738s-33.667 7.161-45.248 18.739l-192 192c-12.054 11.654-19.538 27.97-19.538 46.034 0 35.346 28.654 64 64 64 18.064 0 34.38-7.484 46.017-19.52l0.017-0.018 146.752-146.752 338.752 338.752c11.581 11.578 27.578 18.738 45.248 18.738s33.667-7.161 45.248-18.739v0z" />
<glyph unicode="&#xe92f;" glyph-name="back" data-tags="scf-back" d="M525.248 658.752c11.116 11.497 17.966 27.179 17.966 44.462 0 35.346-28.654 64-64 64-17.282 0-32.964-6.85-44.48-17.983l0.018 0.017-256-256c-11.578-11.581-18.738-27.578-18.738-45.248s7.161-33.667 18.739-45.248l256-256c11.497-11.116 27.179-17.966 44.462-17.966 35.346 0 64 28.654 64 64 0 17.282-6.85 32.964-17.983 44.48l0.017-0.018-146.752 146.752h421.504c35.346 0 64 28.654 64 64s-28.654 64-64 64v0h-421.504z" />
<glyph unicode="&#xe930;" glyph-name="forward" data-tags="scf-forward" d="M498.752 237.248c-12.054-11.654-19.538-27.97-19.538-46.034 0-35.346 28.654-64 64-64 18.064 0 34.38 7.484 46.017 19.52l0.017 0.018 256 256c11.578 11.581 18.738 27.578 18.738 45.248s-7.161 33.667-18.739 45.248l-256 256c-11.654 12.054-27.97 19.538-46.034 19.538-35.346 0-64-28.654-64-64 0-18.064 7.484-34.38 19.52-46.017l0.018-0.017 146.752-146.752h-421.504c-35.346 0-64-28.654-64-64s28.654-64 64-64v0h421.504z" />
<glyph unicode="&#xe931;" glyph-name="upward" data-tags="scf-upward" d="M722.752 434.752c11.497-11.116 27.179-17.966 44.462-17.966 35.346 0 64 28.654 64 64 0 17.282-6.85 32.964-17.983 44.48l0.017-0.018-256 256c-11.581 11.578-27.578 18.738-45.248 18.738s-33.667-7.161-45.248-18.739l-256-256c-11.116-11.497-17.966-27.179-17.966-44.462 0-35.346 28.654-64 64-64 17.282 0 32.964 6.85 44.48 17.983l-0.018-0.017 146.752 146.752v-421.504c0-35.346 28.654-64 64-64s64 28.654 64 64v0 421.504z" />
<glyph unicode="&#xe932;" glyph-name="downward" data-tags="scf-downward" d="M301.248 461.248c-11.654 12.054-27.97 19.538-46.034 19.538-35.346 0-64-28.654-64-64 0-18.064 7.484-34.38 19.52-46.017l0.018-0.017 256-256c11.581-11.578 27.578-18.738 45.248-18.738s33.667 7.161 45.248 18.739l256 256c12.054 11.654 19.538 27.97 19.538 46.034 0 35.346-28.654 64-64 64-18.064 0-34.38-7.484-46.017-19.52l-0.017-0.018-146.752-146.752v421.504c0 35.346-28.654 64-64 64s-64-28.654-64-64v0-421.504z" />
<glyph unicode="&#xe933;" glyph-name="plus" data-tags="scf-plus" d="M576 512h192c35.346 0 64-28.654 64-64s-28.654-64-64-64v0h-192v-192c0-35.346-28.654-64-64-64s-64 28.654-64 64v0 192h-192c-35.346 0-64 28.654-64 64s28.654 64 64 64v0h192v192c0 35.346 28.654 64 64 64s64-28.654 64-64v0z" />
<glyph unicode="&#xe934;" glyph-name="minus" data-tags="scf-minus" d="M768 512c35.346 0 64-28.654 64-64s-28.654-64-64-64v0h-512c-35.346 0-64 28.654-64 64s28.654 64 64 64v0z" />
<glyph unicode="&#xe935;" glyph-name="reload" data-tags="scf-reload" d="M850.368 620.8c-5.543 2.643-12.046 4.187-18.91 4.187-17.876 0-33.306-10.469-40.494-25.611l-0.116-0.272-17.472-37.568c-49.975 124.604-169.753 210.996-309.709 210.996-183.8 0-332.8-149-332.8-332.8s149-332.8 332.8-332.8c104.981 0 198.609 48.609 259.604 124.547l0.504 0.649c6.081 7.601 9.758 17.355 9.758 27.968 0 24.83-20.129 44.958-44.958 44.958-14.217 0-26.892-6.599-35.131-16.901l-0.069-0.090c-45.053-56.783-114.055-92.875-191.488-92.875-134.669 0-243.84 109.171-243.84 243.84s109.171 243.84 243.84 243.84c109.579 0 202.275-72.281 233.012-171.765l0.46-1.728-66.048 30.848c-5.544 2.642-12.048 4.185-18.912 4.185-24.756 0-44.825-20.069-44.825-44.825 0-17.892 10.482-33.335 25.641-40.524l0.272-0.116 150.912-70.4c5.548-2.648 12.058-4.195 18.929-4.195 2.605 0 5.158 0.222 7.641 0.649l-0.266-0.038c3.018 0.515 5.685 1.249 8.24 2.213l-0.304-0.101c11.261 4.179 20.186 12.419 25.164 22.897l0.116 0.271 70.4 150.848c2.661 5.559 4.215 12.083 4.215 18.971 0 17.986-10.599 33.496-25.891 40.626l-0.276 0.115z" />
<glyph unicode="&#xe936;" glyph-name="hamburger" data-tags="scf-hamburger" d="M192 640h640c35.346 0 64 28.654 64 64s-28.654 64-64 64v0h-640c-35.346 0-64-28.654-64-64s28.654-64 64-64v0zM832 512h-640c-35.346 0-64-28.654-64-64s28.654-64 64-64v0h640c35.346 0 64 28.654 64 64s-28.654 64-64 64v0zM832 256h-640c-35.346 0-64-28.654-64-64s28.654-64 64-64v0h640c35.346 0 64 28.654 64 64s-28.654 64-64 64v0z" />
<glyph unicode="&#xe937;" glyph-name="filter" data-tags="scf-filter" d="M128 640h768c35.346 0 64 28.654 64 64s-28.654 64-64 64v0h-768c-35.346 0-64-28.654-64-64s28.654-64 64-64v0zM768 512h-512c-35.346 0-64-28.654-64-64s28.654-64 64-64v0h512c35.346 0 64 28.654 64 64s-28.654 64-64 64v0zM640 256h-256c-35.346 0-64-28.654-64-64s28.654-64 64-64v0h256c35.346 0 64 28.654 64 64s-28.654 64-64 64v0z" />
<glyph unicode="&#xe938;" glyph-name="option-horizontal" data-tags="scf-option-horizontal" d="M320 448c0-35.346-28.654-64-64-64s-64 28.654-64 64c0 35.346 28.654 64 64 64s64-28.654 64-64zM576 448c0-35.346-28.654-64-64-64s-64 28.654-64 64c0 35.346 28.654 64 64 64s64-28.654 64-64zM832 448c0-35.346-28.654-64-64-64s-64 28.654-64 64c0 35.346 28.654 64 64 64s64-28.654 64-64z" />
<glyph unicode="&#xe939;" glyph-name="option-vertical" data-tags="scf-option-vertical" d="M576 704c0-35.346-28.654-64-64-64s-64 28.654-64 64c0 35.346 28.654 64 64 64s64-28.654 64-64zM576 448c0-35.346-28.654-64-64-64s-64 28.654-64 64c0 35.346 28.654 64 64 64s64-28.654 64-64zM576 192c0-35.346-28.654-64-64-64s-64 28.654-64 64c0 35.346 28.654 64 64 64s64-28.654 64-64z" />
<glyph unicode="&#xe93a;" glyph-name="left-circle" data-tags="scf-left-circle" d="M960 448c0-247.424-200.576-448-448-448s-448 200.576-448 448c0 247.424 200.576 448 448 448v0c247.424 0 448-200.576 448-448v0zM595.712 305.472l-142.464 142.528 142.464 142.528c6.352 6.32 10.284 15.069 10.284 24.736 0 19.27-15.621 34.892-34.892 34.892-9.603 0-18.3-3.88-24.609-10.157l0.001 0.001-167.168-167.36c-6.282-6.317-10.166-15.025-10.166-24.64s3.883-18.323 10.167-24.642l-0.002 0.002 167.168-167.36c6.219-5.874 14.63-9.485 23.885-9.485 19.228 0 34.816 15.588 34.816 34.816 0 9.254-3.611 17.666-9.5 23.901l0.016-0.017z" />
<glyph unicode="&#xe93b;" glyph-name="right-circle" data-tags="scf-right-circle" d="M64 448c0 247.424 200.576 448 448 448s448-200.576 448-448c0-247.424-200.576-448-448-448v0c-247.424 0-448 200.576-448 448v0zM428.288 590.528l142.464-142.528-142.464-142.528c-6.352-6.32-10.284-15.069-10.284-24.736 0-19.27 15.621-34.892 34.892-34.892 9.603 0 18.3 3.88 24.609 10.157l167.167 167.103c6.282 6.317 10.166 15.025 10.166 24.64s-3.883 18.323-10.167 24.642l0.002-0.002-167.168 167.616c-6.219 5.874-14.63 9.485-23.885 9.485-19.228 0-34.816-15.588-34.816-34.816 0-9.254 3.611-17.666 9.5-23.901l-0.016 0.017z" />
<glyph unicode="&#xe93c;" glyph-name="up-circle" data-tags="scf-up-circle" d="M512 0c-247.424 0-448 200.576-448 448s200.576 448 448 448c247.424 0 448-200.576 448-448v0c0-247.424-200.576-448-448-448v0zM369.472 364.288l142.528 142.464 142.528-142.464c6.32-6.352 15.069-10.284 24.736-10.284 19.27 0 34.892 15.621 34.892 34.892 0 9.603-3.88 18.3-10.157 24.609l0.001-0.001-167.36 167.168c-6.317 6.282-15.025 10.166-24.64 10.166s-18.323-3.883-24.642-10.167l0.002 0.002-167.36-167.168c-6.737-6.363-10.931-15.357-10.931-25.331 0-19.228 15.588-34.816 34.816-34.816 9.974 0 18.968 4.194 25.316 10.915l0.016 0.017z" />
<glyph unicode="&#xe93d;" glyph-name="down-circle" data-tags="scf-down-circle" d="M512 896c247.424 0 448-200.576 448-448s-200.576-448-448-448c-247.424 0-448 200.576-448 448v0c0 247.424 200.576 448 448 448v0zM654.528 531.712l-142.528-142.464-142.528 142.464c-6.32 6.352-15.069 10.284-24.736 10.284-19.27 0-34.892-15.621-34.892-34.892 0-9.603 3.88-18.3 10.157-24.609l167.103-167.167c6.317-6.282 15.025-10.166 24.64-10.166s18.323 3.883 24.642 10.167l-0.002-0.002 167.616 167.168c5.874 6.219 9.485 14.63 9.485 23.885 0 19.228-15.588 34.816-34.816 34.816-9.254 0-17.666-3.611-23.901-9.5l0.017 0.016z" />
<glyph unicode="&#xe93e;" glyph-name="triangle-left" data-tags="scf-triangle-left" d="M613.184 741.44l-285.632-244.864c-13.728-11.808-22.368-29.199-22.368-48.608 0-15.937 5.825-30.513 15.462-41.716l-0.071 0.084c2.154-2.511 4.436-4.773 6.887-6.839l0.089-0.073 285.632-244.864c11.124-9.583 25.712-15.419 41.664-15.419 35.344 0 63.997 28.651 64 63.995v0 489.728c-0.003 35.344-28.656 63.995-64 63.995-15.952 0-30.541-5.836-41.748-15.489l0.084 0.070z" />
<glyph unicode="&#xe93f;" glyph-name="triangle-right" data-tags="scf-triangle-right" d="M410.816 154.56l285.632 244.864c13.728 11.808 22.368 29.199 22.368 48.608 0 15.937-5.825 30.513-15.462 41.716l0.071-0.084c-2.154 2.511-4.436 4.773-6.887 6.839l-0.089 0.073-285.632 244.864c-11.124 9.583-25.712 15.419-41.664 15.419-35.344 0-63.997-28.651-64-63.995v0-489.728c0.003-35.344 28.656-63.995 64-63.995 15.952 0 30.541 5.836 41.748 15.489l-0.084-0.070z" />
<glyph unicode="&#xe940;" glyph-name="triangle-up" data-tags="scf-triangle-up" d="M805.44 346.816l-244.864 285.632c-11.808 13.728-29.199 22.368-48.608 22.368-15.937 0-30.513-5.825-41.716-15.462l0.084 0.071c-2.511-2.154-4.773-4.436-6.839-6.887l-0.073-0.089-244.864-285.632c-9.583-11.124-15.419-25.712-15.419-41.664 0-35.344 28.651-63.997 63.995-64h489.728c35.344 0.003 63.995 28.656 63.995 64 0 15.952-5.836 30.541-15.489 41.748l0.070-0.084z" />
<glyph unicode="&#xe941;" glyph-name="triangle-down" data-tags="scf-triangle-down" d="M218.56 549.184l244.864-285.632c11.808-13.728 29.199-22.368 48.608-22.368 15.937 0 30.513 5.825 41.716 15.462l-0.084-0.071c2.511 2.154 4.773 4.436 6.839 6.887l0.073 0.089 244.864 285.632c9.583 11.124 15.419 25.712 15.419 41.664 0 35.344-28.651 63.997-63.995 64h-489.728c-35.344-0.003-63.995-28.656-63.995-64 0-15.952 5.836-30.541 15.489-41.748l-0.070 0.084z" />
<glyph unicode="&#xe942;" glyph-name="close-circle" data-tags="scf-close-circle" d="M512 64v0c-212.077 0-384 171.923-384 384v0c0 212.077 171.923 384 384 384s384-171.923 384-384c0-212.077-171.923-384-384-384zM649.088 347.584l-82.24 82.24 82.24 82.176c6.927 7.003 11.207 16.637 11.207 27.271 0 21.42-17.364 38.784-38.784 38.784-10.634 0-20.268-4.279-27.274-11.21l-82.237-82.173-82.24 82.24c-7.021 7.013-16.716 11.35-27.424 11.35-21.432 0-38.806-17.374-38.806-38.806 0-10.724 4.35-20.432 11.382-27.456l82.24-82.176-82.24-82.24c-6.927-7.003-11.207-16.637-11.207-27.271 0-21.42 17.364-38.784 38.784-38.784 10.634 0 20.268 4.279 27.274 11.21l82.237 82.237 82.24-82.24c7.003-6.927 16.637-11.207 27.271-11.207 21.42 0 38.784 17.364 38.784 38.784 0 10.634-4.279 20.268-11.21 27.274l0.003-0.003z" />
<glyph unicode="&#xe943;" glyph-name="done-circle" data-tags="scf-done-circle" d="M512 832c-212.096 0-384-171.904-384-384s171.904-384 384-384 384 171.904 384 384-171.904 384-384 384zM694.080 505.6l-203.328-203.52c0 0-0.064-0.064-0.064-0.064-13.248-13.184-34.624-13.184-47.808 0.064l-113.216 112.896c-12.032 12.992-12.032 33.088 0 46.144 12.736 13.696 34.176 14.528 47.936 1.792l89.344-88.832 179.2 179.2c0 0 0.064 0.064 0.064 0.064 13.248 13.184 34.688 13.184 47.872-0.064 13.056-13.184 13.056-34.496 0-47.68z" />
<glyph unicode="&#xe944;" glyph-name="eye-open" data-tags="scf-eye-open" d="M512 755.968c-198.133-0.579-368.064-120.714-441.492-292.031l-1.196-3.137c-1.64-3.878-2.592-8.388-2.592-13.12s0.953-9.242 2.677-13.347l-0.085 0.227c74.492-174.43 244.573-294.454 442.688-294.454s368.197 120.024 441.498 291.325l1.19 3.129c1.64 3.878 2.592 8.388 2.592 13.12s-0.953 9.242-2.677 13.347l0.085-0.227c-74.624 174.454-244.555 294.589-442.614 295.168h-0.074zM512 242.688c-0.494-0.004-1.079-0.007-1.664-0.007-113.391 0-205.312 91.921-205.312 205.312s91.921 205.312 205.312 205.312c113.388 0 205.308-91.917 205.312-205.305v0c0-0.153 0.001-0.334 0.001-0.515 0-112.703-91.037-204.143-203.586-204.796h-0.062zM512 571.2c-0.304 0.003-0.664 0.004-1.024 0.004-68.041 0-123.2-55.159-123.2-123.2s55.159-123.2 123.2-123.2c68.040 0 123.198 55.156 123.2 123.196v0c0.001 0.19 0.002 0.415 0.002 0.641 0 67.554-54.654 122.342-122.157 122.559h-0.021z" />
<glyph unicode="&#xe945;" glyph-name="eye-close" data-tags="scf-eye-close" d="M833.6 634.688l-467.84-467.84c43.544-14.489 93.675-22.848 145.759-22.848 0.169 0 0.338 0 0.508 0h-0.026c198.044 0.531 367.929 120.534 441.427 291.715l1.197 3.133c1.669 3.894 2.64 8.426 2.64 13.184s-0.971 9.29-2.725 13.408l0.085-0.224c-29.057 66.658-69.996 123.122-120.622 169.112l-0.402 0.36zM639.040 555.84l128.96 128.64 64 64.32c10.182 10.142 16.483 24.175 16.483 39.68 0 30.93-25.073 56.003-56.003 56.003-15.425 0-29.394-6.236-39.522-16.325l-92.094-92.158c-44.429 15.188-95.616 23.969-148.849 24h-0.015c-198.025-0.538-367.897-120.507-441.427-291.652l-1.197-3.132c-1.668-3.904-2.637-8.447-2.637-13.216s0.97-9.312 2.722-13.441l-0.085 0.225c29.413-67.434 71.066-124.489 122.615-170.733l0.457-0.403-56.576-56.576c-10.144-10.136-16.419-24.143-16.419-39.616 0-30.93 25.073-56.003 56.003-56.003 15.457 0 29.451 6.262 39.584 16.387l192.96 192.96zM347.84 452.032c-0.025 1.066-0.040 2.322-0.040 3.581 0 89.461 72.523 161.984 161.984 161.984 10.629 0 21.019-1.024 31.076-2.978l-1.021 0.165-189.376-189.12c-1.508 7.836-2.455 16.932-2.622 26.22l-0.002 0.148z" />
<glyph unicode="&#xe946;" glyph-name="delete-fill" data-tags="scf-delete-fill" d="M224 672h576c17.673 0 32 14.327 32 32s-14.327 32-32 32v0h-160c0 70.692-57.308 128-128 128s-128-57.308-128-128v0h-160c-17.673 0-32-14.327-32-32s14.327-32 32-32v0zM512 800c35.346 0 64-28.654 64-64v0h-128c0 35.346 28.654 64 64 64v0zM800 608h-576c-17.673 0-32-14.327-32-32v0-384c0-88.366 71.634-160 160-160v0h320c88.366 0 160 71.634 160 160v0 384c0 17.673-14.327 32-32 32v0zM384 256c0-17.673-14.327-32-32-32s-32 14.327-32 32v0 192c0 17.673 14.327 32 32 32s32-14.327 32-32v0zM544 256c0-17.673-14.327-32-32-32s-32 14.327-32 32v0 192c0 17.673 14.327 32 32 32s32-14.327 32-32v0zM704 256c0-17.673-14.327-32-32-32s-32 14.327-32 32v0 192c0 17.673 14.327 32 32 32s32-14.327 32-32v0z" />
<glyph unicode="&#xe947;" glyph-name="guide-fill" data-tags="scf-guide-fill" d="M840.448 551.232l-29.12-1.984c-3.849 13.243-9.859 24.766-17.704 34.783l0.168-0.223 23.424 23.424c10.866 10.796 17.592 25.749 17.592 42.272s-6.726 31.476-17.589 42.269l-61.443 61.443c-10.77 10.853-25.685 17.578-42.172 17.6h-0.004c-0.007 0-0.015 0-0.024 0-16.495 0-31.425-6.703-42.214-17.534l-0.002-0.002-19.2-22.080c-10.624 6.032-23.049 10.32-36.269 12.101l-0.531 0.059v33.088c-0.036 32.999-26.777 59.74-59.772 59.776h-87.044c-33.026 0-59.804-26.755-59.84-59.773v-0.003l2.048-29.12c-13.243-3.849-24.766-9.859-34.783-17.704l0.223 0.168-23.424 23.488c-10.965 10.492-25.864 16.951-42.272 16.951s-31.307-6.459-42.295-16.972l0.023 0.021-61.44-61.44c-10.808-10.835-17.491-25.789-17.491-42.304s6.683-31.469 17.492-42.305l-0.001 0.001 22.144-19.2c-6.15-10.647-10.471-23.13-12.172-36.432l-0.052-0.496h-33.216c-32.949-0.073-59.639-26.763-59.712-59.705v-86.919c0.073-32.949 26.763-59.639 59.705-59.712h0.007l29.184 2.176c3.725-13.324 9.728-24.928 17.632-34.963l-0.16 0.211-23.424-23.424c-10.789-10.832-17.459-25.773-17.459-42.272s6.67-31.44 17.461-42.274l-0.002 0.002 61.44-61.504c10.965-10.492 25.864-16.951 42.272-16.951s31.307 6.459 42.295 16.972l-0.023-0.021 19.2 22.080c10.626-6.013 23.049-10.298 36.261-12.1l0.539-0.060v-33.088c0.036-33.021 26.814-59.776 59.84-59.776 0 0 0 0 0 0h86.912c32.999 0.036 59.74 26.777 59.776 59.772v0.004l-1.984 29.12c13.243 3.849 24.766 9.859 34.783 17.704l-0.223-0.168 23.424-23.488c10.791-10.833 25.721-17.536 42.216-17.536 0.008 0 0.017 0 0.025 0h-0.001c16.46 0.015 31.352 6.716 42.109 17.533l61.443 61.443c10.885 10.799 17.624 25.765 17.624 42.304s-6.739 31.505-17.62 42.3l-0.004 0.004-22.016 19.2c6.032 10.624 10.32 23.049 12.101 36.269l0.059 0.531h33.088c32.976 0.036 59.703 26.741 59.776 59.705v87.047c-0.072 32.904-26.69 59.567-59.57 59.712h-0.014zM512 288c-88.366 0-160 71.634-160 160s71.634 160 160 160c88.366 0 160-71.634 160-160v0c0-88.366-71.634-160-160-160v0z" />
<glyph unicode="&#xe948;" glyph-name="lock-fill" data-tags="scf-lock-fill" d="M736 576h-32v64c0 106.039-85.961 192-192 192s-192-85.961-192-192v0-64h-32c-53.019 0-96-42.981-96-96v0-320c0-53.019 42.981-96 96-96v0h448c53.019 0 96 42.981 96 96v0 320c0 53.019-42.981 96-96 96v0zM545.344 300.8v-73.856c0-17.673-14.327-32-32-32s-32 14.327-32 32v0 73.856c-19.049 10.938-31.735 31.062-32 54.171v0.037c0 35.346 28.654 64 64 64s64-28.654 64-64v0c-0.237-23.153-12.932-43.289-31.693-54.046l-0.307-0.162zM640 576h-256v64c0 70.692 57.308 128 128 128s128-57.308 128-128v0z" />
<glyph unicode="&#xe949;" glyph-name="location-fill" data-tags="scf-location-fill" d="M512 873.152c-176.643-0.218-319.781-143.357-320-319.979v-0.021c0-116.928 131.264-330.496 241.344-489.152 17.503-25.033 46.191-41.202 78.656-41.202s61.153 16.169 78.451 40.893l0.205 0.309c110.080 158.656 241.344 372.224 241.344 489.152-0.218 176.643-143.357 319.781-319.979 320h-0.021zM512 425.152c-70.692 0-128 57.308-128 128s57.308 128 128 128c70.692 0 128-57.308 128-128v0c0-70.692-57.308-128-128-128v0z" />
<glyph unicode="&#xe94a;" glyph-name="notification-fill" data-tags="scf-notification-fill" d="M828.608 206.336c-38.12 74.826-60.499 163.171-60.608 256.733v16.931c0 141.385-114.615 256-256 256s-256-114.615-256-256v0-16.896c-0.109-93.597-22.488-181.942-62.121-260.055l1.513 3.287c-2.138-4.176-3.391-9.11-3.391-14.336 0-17.673 14.326-31.999 31.999-32h160c-0.002-0.286-0.004-0.625-0.004-0.964 0-70.162 56.878-127.040 127.040-127.040 0.339 0 0.677 0.001 1.015 0.004h-0.052c0.711-0.014 1.55-0.023 2.391-0.023 69.385 0 125.632 56.247 125.632 125.632 0 0.841-0.008 1.679-0.025 2.516l0.002-0.125h160c17.673 0.001 31.999 14.327 31.999 32 0 5.226-1.253 10.16-3.475 14.517l0.084-0.181zM448 160h128c0-35.346-28.654-64-64-64s-64 28.654-64 64v0zM480 800h64c17.673 0 32 14.327 32 32s-14.327 32-32 32v0h-64c-17.673 0-32-14.327-32-32s14.327-32 32-32v0z" />
<glyph unicode="&#xe94b;" glyph-name="searched-file-fill" data-tags="scf-searched-file-fill" d="M384 512c-35.346 0-64-28.654-64-64s28.654-64 64-64v0c5.723 0.431 11.036 1.546 16.066 3.27l-0.45-0.134c22.287 5.756 39.492 22.961 45.153 44.815l0.095 0.433c2.078 5.839 3.278 12.573 3.278 19.588 0 33.225-26.935 60.16-60.16 60.16-1.401 0-2.791-0.048-4.168-0.142l0.186 0.010zM864 704h-352.576c-8.575 0.017-16.356 3.404-22.091 8.907l0.011-0.011-96.704 92.544c-17.188 16.43-40.531 26.547-66.237 26.56h-166.403c-53.019 0-96-42.981-96-96v0-576c0-53.019 42.981-96 96-96v0h704c53.019 0 96 42.981 96 96v0 448c0 53.019-42.981 96-96 96v0zM566.656 265.344c-5.794-5.808-13.805-9.401-22.656-9.401s-16.862 3.593-22.655 9.401l-72.769 72.833c-18.419-11.303-40.696-18.047-64.54-18.176h-0.036c-70.692 0-128 57.308-128 128s57.308 128 128 128c70.692 0 128-57.308 128-128v0c-0.129-23.88-6.873-46.157-18.49-65.127l0.314 0.551 72.832-72.768c5.808-5.794 9.401-13.805 9.401-22.656s-3.593-16.862-9.401-22.655l-0.001-0.001z" />
<glyph unicode="&#xe94c;" glyph-name="secured-fill" data-tags="scf-secured-fill" d="M812.8 701.248l-288 128c-3.822 1.741-8.288 2.756-12.992 2.756s-9.17-1.015-13.193-2.838l0.201 0.082-288-128c-11.188-5.149-18.816-16.263-18.816-29.158 0-0.032 0-0.063 0-0.095v0.005-137.408c0-249.6 92.416-389.824 309.056-468.608 3.251-1.257 7.012-1.985 10.944-1.985s7.693 0.728 11.157 2.057l-0.213-0.072c216.64 78.784 309.056 218.88 309.056 468.608v137.408c-0.034 13.011-7.828 24.194-18.996 29.167l-0.204 0.081zM663.488 514.688l-174.528-174.528c-5.275-5.245-12.547-8.488-20.576-8.488s-15.301 3.242-20.577 8.489l-87.295 87.295c-5.745 5.335-9.328 12.929-9.328 21.36 0 16.083 13.037 29.12 29.12 29.12 8.431 0 16.026-3.583 21.344-9.31l0.017-0.018 66.688-66.752 153.984 153.984c5.335 5.745 12.929 9.328 21.36 9.328 16.083 0 29.12-13.037 29.12-29.12 0-8.431-3.583-16.026-9.31-21.344l-0.018-0.017z" />
<glyph unicode="&#xe94d;" glyph-name="warning-fill" data-tags="scf-warning-fill" d="M936.96 208.896l-340.608 569.6c-16.598 30.108-48.133 50.166-84.352 50.166s-67.754-20.058-84.102-49.672l-0.25-0.495-340.608-569.6c-7.286-13.207-11.573-28.951-11.573-45.696 0-53.016 42.975-95.994 95.989-96h681.089c53.015 0.006 95.989 42.984 95.989 96 0 16.745-4.287 32.489-11.824 46.193l0.251-0.497zM512 191.36c-21.208 0-38.4 17.192-38.4 38.4s17.192 38.4 38.4 38.4c21.208 0 38.4-17.192 38.4-38.4v0c0-21.208-17.192-38.4-38.4-38.4v0zM550.4 377.6c0-21.208-17.192-38.4-38.4-38.4s-38.4 17.192-38.4 38.4v0 230.912c0 21.208 17.192 38.4 38.4 38.4s38.4-17.192 38.4-38.4v0z" />
<glyph unicode="&#xe94e;" glyph-name="turn-off" data-tags="scf-off" d="M512 832c-212.077 0-384-171.923-384-384s171.923-384 384-384c212.077 0 384 171.923 384 384v0c0 212.077-171.923 384-384 384v0zM480 662.848c0 17.673 14.327 32 32 32s32-14.327 32-32v0-208.96c0-17.673-14.327-32-32-32s-32 14.327-32 32v0zM512 265.152c-104.201 0.047-188.654 84.529-188.654 188.736 0 61.228 29.155 115.646 74.34 150.128l0.458 0.336c5.281 3.996 11.96 6.4 19.2 6.4 17.673 0 32-14.327 32-32 0-10.433-4.993-19.7-12.72-25.542l-0.080-0.058c-30.191-23.010-49.479-58.991-49.479-99.476 0-68.89 55.846-124.736 124.736-124.736s124.736 55.846 124.736 124.736c0 42.885-21.642 80.716-54.601 103.166l-0.432 0.278c-8.109 5.879-13.323 15.323-13.323 25.984 0 17.673 14.327 32 32 32 6.369 0 12.304-1.861 17.29-5.068l-0.127 0.076c50.274-34.421 82.835-91.52 82.835-156.225 0-104.040-84.183-188.418-188.149-188.735h-0.030z" />
<glyph unicode="&#xe94f;" glyph-name="info" data-tags="scf-info" d="M512 832c-212.077 0-384-171.923-384-384s171.923-384 384-384c212.077 0 384 171.923 384 384v0c-0.255 211.975-172.025 383.745-383.975 384h-0.025zM554.56 269.44c0-21.208-17.192-38.4-38.4-38.4s-38.4 17.192-38.4 38.4v0 231.104c0 21.208 17.192 38.4 38.4 38.4s38.4-17.192 38.4-38.4v0zM516.16 577.536c-21.208 0-38.4 17.192-38.4 38.4s17.192 38.4 38.4 38.4c21.208 0 38.4-17.192 38.4-38.4v0c0 0 0 0 0 0 0-21.208-17.192-38.4-38.4-38.4-0.023 0-0.045 0-0.067 0h0.003z" />
<glyph unicode="&#xe950;" glyph-name="question" data-tags="scf-question" d="M512 832c-212.077 0-384-171.923-384-384s171.923-384 384-384c212.077 0 384 171.923 384 384v0c0 212.077-171.923 384-384 384v0zM514.496 251.712c-1.632-4.851-4.491-8.928-8.211-11.996l-0.045-0.036c-6.406-6.938-15.548-11.268-25.701-11.268-0.19 0-0.379 0.002-0.568 0.005h0.028c-0.35-0.015-0.76-0.023-1.172-0.023-4.769 0-9.276 1.119-13.273 3.109l0.173-0.078c-4.823 1.699-8.884 4.544-11.999 8.216l-0.033 0.040c-3.746 3.106-6.584 7.184-8.139 11.848l-0.053 0.184c-1.901 4.19-3.009 9.086-3.009 14.24s1.108 10.050 3.099 14.462l-0.090-0.222c1.625 4.841 4.46 8.915 8.15 11.998l0.042 0.034c6.781 6.596 16.052 10.663 26.272 10.663s19.491-4.067 26.281-10.672l-0.009 0.008c3.752-3.115 6.607-7.188 8.201-11.846l0.055-0.186c1.901-4.19 3.009-9.086 3.009-14.24s-1.108-10.050-3.099-14.462l0.090 0.222zM578.496 445.504l-66.496-33.28v-44.224c0-17.673-14.327-32-32-32s-32 14.327-32 32v0 64c0 0.057-0.001 0.124-0.001 0.191 0 12.447 7.106 23.234 17.483 28.525l0.181 0.084 84.288 42.112c15.402 7.958 25.749 23.763 25.749 41.985 0 25.91-20.919 46.933-46.788 47.103h-33.808c-26-0.036-47.068-21.104-47.104-47.1v-0.004c0-17.673-14.327-32-32-32s-32 14.327-32 32v0c0.073 61.332 49.772 111.031 111.097 111.104h33.799c0.023 0 0.049 0 0.076 0 61.361 0 111.104-49.743 111.104-111.104 0-43.263-24.728-80.751-60.82-99.101l-0.632-0.291z" />
<glyph unicode="&#xe951;" glyph-name="facebook" data-tags="scf-facebook" d="M960 448c0-247.424-200.576-448-448-448s-448 200.576-448 448c0 247.424 200.576 448 448 448v0c247.424 0 448-200.576 448-448v0zM533.248 447.616h64l9.152 84.288h-72.448v48.704c-0.124 0.832-0.195 1.793-0.195 2.77 0 10.922 8.854 19.776 19.776 19.776 0.294 0 0.586-0.006 0.876-0.019l-0.041 0.001h50.56v80.64h-70.4c-1.592 0.1-3.452 0.157-5.326 0.157-49.98 0-90.496-40.516-90.496-90.496 0-2.985 0.145-5.936 0.427-8.847l-0.029 0.37v-53.76h-44.8v-83.584h44.8v-235.392h94.144z" />
<glyph unicode="&#xe952;" glyph-name="instagram" data-tags="scf-instagram" d="M661.696 561.152c-6.721 16.742-19.738 29.759-36.045 36.325l-0.435 0.155c-25.648 5.508-55.114 8.662-85.317 8.662-9.816 0-19.555-0.333-29.205-0.989l1.306 0.071c-8.388 0.594-18.177 0.932-28.044 0.932-30.153 0-59.568-3.159-87.932-9.165l2.76 0.489c-16.742-6.721-29.759-19.738-36.325-36.045l-0.155-0.435c-5.434-25.553-8.545-54.912-8.545-84.998 0-9.906 0.337-19.733 1.001-29.471l-0.072 1.317c-0.592-8.397-0.929-18.196-0.929-28.074 0-30.117 3.135-59.502 9.096-87.846l-0.487 2.767c6.721-16.742 19.738-29.759 36.045-36.325l0.435-0.155c25.65-5.504 55.119-8.656 85.324-8.656 9.792 0 19.506 0.331 29.132 0.983l-1.304-0.071c8.374-0.592 18.145-0.929 27.996-0.929 30.147 0 59.556 3.158 87.915 9.162l-2.759-0.489c16.789 6.647 29.833 19.691 36.328 36.047l0.152 0.433c5.548 25.655 8.726 55.128 8.726 85.342 0 9.785-0.333 19.492-0.989 29.11l0.071-1.3c0.592 8.374 0.929 18.145 0.929 27.996 0 30.147-3.158 59.556-9.162 87.915l0.489-2.759zM512 349.568c-54.335 0.037-98.368 44.092-98.368 98.432 0 54.362 44.070 98.432 98.432 98.432s98.432-44.070 98.432-98.432v0c0-0.057 0-0.125 0-0.192 0-54.256-43.984-98.24-98.24-98.24-0.090 0-0.18 0-0.27 0h0.014zM614.4 527.488c-12.662 0.036-22.912 10.309-22.912 22.976 0 12.689 10.287 22.976 22.976 22.976s22.976-10.287 22.976-22.976c0-0.022 0-0.045 0-0.067v0.003c0 0 0 0 0 0 0-12.654-10.258-22.912-22.912-22.912-0.045 0-0.090 0-0.135 0h0.007zM576.064 448c0-35.346-28.654-64-64-64s-64 28.654-64 64c0 35.346 28.654 64 64 64s64-28.654 64-64zM512 896c-247.424 0-448-200.576-448-448s200.576-448 448-448c247.424 0 448 200.576 448 448v0c0 247.424-200.576 448-448 448v0zM702.656 368.832c0.083-1.569 0.13-3.405 0.13-5.253 0-58.71-47.594-106.304-106.304-106.304-1.869 0-3.727 0.048-5.572 0.144l0.258-0.011c-31.68-1.792-126.656-1.792-158.336 0-0.613-0.012-1.335-0.019-2.059-0.019-30.349 0-57.944 11.795-78.449 31.051l0.061-0.057c-19.237 20.344-31.063 47.869-31.063 78.157 0 0.806 0.008 1.609 0.025 2.411l-0.002-0.12c-1.792 31.68-1.792 126.72 0 158.4-0.014 0.667-0.022 1.453-0.022 2.241 0 30.303 11.825 57.845 31.113 78.261l-0.051-0.055c20.318 19.161 47.784 30.938 77.999 30.938 0.861 0 1.72-0.010 2.576-0.029l-0.128 0.002c32 1.792 126.656 1.792 158.336 0 0.642 0.013 1.4 0.020 2.159 0.020 30.318 0 57.881-11.797 78.348-31.051l-0.059 0.055c19.237-20.344 31.063-47.869 31.063-78.157 0-0.806-0.008-1.609-0.025-2.411l0.002 0.12c1.792-31.68 1.792-126.656 0-158.336z" />
<glyph unicode="&#xe953;" glyph-name="twitter" data-tags="scf-twitter" d="M512 896c-247.424 0-448-200.576-448-448s200.576-448 448-448c247.424 0 448 200.576 448 448v0c0 0.095 0 0.207 0 0.32 0 247.247-200.433 447.68-447.68 447.68-0.112 0-0.225 0-0.337 0h0.017zM687.808 577.344c20.427 2.387 39.051 7.713 56.269 15.581l-1.165-0.477c-12.96-19.557-28.492-36.169-46.364-49.883l-0.484-0.357v-12.352c-0.226-150.121-121.975-271.731-272.128-271.731-54.31 0-104.904 15.91-147.375 43.322l1.071-0.647c7.552-0.704 15.168-1.408 22.72-1.408 0.027 0 0.059 0 0.091 0 44.786 0 86.004 15.273 118.732 40.895l-0.422-0.318c-41.676 0.732-76.815 27.91-89.403 65.435l-0.197 0.677c5.285-0.799 11.464-1.308 17.742-1.407l0.114-0.001c9.139 0.092 17.944 1.347 26.329 3.625l-0.729-0.169c-43.786 9.361-76.18 47.616-76.416 93.478v1.37c12.58-6.752 27.415-11.003 43.173-11.704l0.219-0.008c-25.776 17.585-42.52 46.755-42.688 79.846v0.026c0.022 17.769 4.894 34.395 13.362 48.631l-0.242-0.439c47.294-57.878 117.253-95.696 196.134-99.812l0.666-0.028c-1.752 6.302-2.758 13.539-2.758 21.011 0 0.353 0.002 0.706 0.007 1.058l-0.001-0.054c0 0.089 0 0.194 0 0.299 0 52.701 42.723 95.424 95.424 95.424 27.507 0 52.296-11.639 69.71-30.261l0.050-0.054c22.866 5.017 43.1 13.105 61.515 23.953l-0.971-0.529c-7.029-22.738-21.977-41.263-41.551-52.757l-0.433-0.235z" />
<glyph unicode="&#xe954;" glyph-name="youtube" data-tags="scf-youtube" d="M512 896v0c-247.424 0-448-200.576-448-448v0c0-247.424 200.576-448 448-448s448 200.576 448 448c0 247.424-200.576 448-448 448zM655.68 602.432c36.683-0.073 66.396-29.808 66.432-66.493v-178.307c-0.073-36.66-29.772-66.359-66.425-66.432h-311.879c-36.66 0.073-66.359 29.772-66.432 66.425v178.311c0.036 36.688 29.749 66.423 66.425 66.496h0.007zM454.976 518.080v0.003c0.036 6.332 5.18 11.454 11.52 11.454 2.332 0 4.502-0.693 6.272-1.857l94.569-61.914c3.082-2.067 5.111-5.584 5.111-9.574s-2.029-7.506-5.152-9.6l-94.424-62.566c-1.836-1.25-4.053-1.981-6.442-1.981-6.25 0-11.33 5.004-11.454 11.236v124.8z" />
<glyph unicode="&#xe955;" glyph-name="dot" data-tags="scf-dot" d="M768 448c0-141.385-114.615-256-256-256s-256 114.615-256 256c0 141.385 114.615 256 256 256s256-114.615 256-256z" />
<glyph unicode="&#xe956;" glyph-name="tip" data-tags="scf-tip" d="M506.56 774.848c17.673 0 32 14.327 32 32v0 54.848c0 17.673-14.327 32-32 32s-32-14.327-32-32v0-54.848c0-17.673 14.327-32 32-32v0zM784 796.16c-5.412 4.333-12.358 6.953-19.916 6.953-10.023 0-18.97-4.608-24.838-11.822l-0.046-0.059-34.368-42.752c-4.317-5.406-6.928-12.34-6.928-19.884 0-10.041 4.625-19.002 11.86-24.869l0.060-0.047c5.373-4.423 12.323-7.104 19.9-7.104 0.024 0 0.048 0 0.072 0h-0.004c0.005 0 0.012 0 0.018 0 10.092 0 19.092 4.671 24.957 11.97l0.048 0.062 34.304 42.752c4.287 5.395 6.878 12.306 6.878 19.822 0 10.076-4.657 19.065-11.937 24.931l-0.061 0.048zM939.392 546.56c-3.288 14.447-16.024 25.067-31.24 25.067-2.539 0-5.009-0.296-7.377-0.854l0.217 0.043-53.568-11.84c-14.429-3.302-25.032-16.029-25.032-31.232 0-17.653 14.295-31.968 31.94-32h0.003c2.48 0.021 4.888 0.276 7.219 0.745l-0.243-0.041 53.568 11.904c14.548 3.21 25.27 15.995 25.27 31.284 0 2.454-0.276 4.843-0.799 7.138l0.041-0.215zM889.92 297.344l-49.28 24.256c-4.127 2.072-8.994 3.286-14.144 3.286-17.72 0-32.086-14.365-32.086-32.086 0-12.57 7.229-23.453 17.756-28.716l0.186-0.084 49.216-24.192c4.080-2.098 8.904-3.328 14.014-3.328 0.046 0 0.091 0 0.137 0h-0.007c17.672 0.001 31.998 14.327 31.998 32 0 12.496-7.163 23.32-17.607 28.588l-0.183 0.084zM157.888 368.96l-52.032-16.96c-13.090-4.211-22.396-16.281-22.396-30.525 0-17.673 14.327-32 32-32 3.711 0 7.274 0.632 10.588 1.793l-0.224-0.068 52.096 17.152c13.47 3.975 23.133 16.233 23.133 30.747 0 17.673-14.327 32-32 32-4.010 0-7.848-0.738-11.385-2.085l0.22 0.073zM183.68 605.056l-51.2 19.2c-3.327 1.281-7.177 2.024-11.2 2.024-17.677 0-32.008-14.33-32.008-32.008 0-13.654 8.55-25.312 20.588-29.91l0.22-0.074 51.2-19.2c3.318-1.273 7.157-2.010 11.168-2.010 17.688 0 32.026 14.339 32.026 32.026 0 13.677-8.573 25.351-20.638 29.943l-0.22 0.073zM296.576 740.224c5.684-9.417 15.862-15.616 27.488-15.616 0.011 0 0.023 0 0.034 0h-0.002c0.034 0 0.074 0 0.114 0 5.984 0 11.579 1.666 16.347 4.559l-0.14-0.079c9.438 5.68 15.654 15.869 15.654 27.51 0 6.052-1.68 11.711-4.599 16.537l0.080-0.143-28.096 47.104c-5.358 10.611-16.173 17.76-28.657 17.76-17.673 0-32-14.327-32-32 0-7.003 2.25-13.481 6.065-18.75l-0.064 0.093zM505.6 706.304c-141.385 0-256-114.615-256-256v0c0.14-64.504 24.392-123.316 64.217-167.928l-0.217 0.248v-120.32c0-53.019 42.981-96 96-96v0h32v-32c0-17.673 14.327-32 32-32v0h64c17.673 0 32 14.327 32 32v0 32h32c53.019 0 96 42.981 96 96v0 120.32c39.583 44.377 63.828 103.181 64 167.644v0.036c0 141.385-114.615 256-256 256v0zM505.6 642.304c106.039 0 192-85.961 192-192v0c-0.094-49.412-19.021-94.385-49.983-128.14l0.127 0.14h-284.288c-30.817 33.62-49.723 78.595-49.792 127.986v0.014c0 106.016 85.925 191.964 191.932 192h0.004zM633.6 162.304c0-17.673-14.327-32-32-32v0h-192c-17.673 0-32 14.327-32 32v0 96h256zM473.6 386.304h64c17.673 0 32 14.327 32 32s-14.327 32-32 32v0h-64c-17.673 0-32-14.327-32-32s14.327-32 32-32v0z" />
<glyph unicode="&#xe957;" glyph-name="money" data-tags="money" d="M640.768 512c0-17.673 14.327-32 32-32s32 14.327 32 32v0c0 54.144-30.080 117.184-160.768 126.272v33.728c0 17.673-14.327 32-32 32s-32-14.327-32-32v0-33.6c-130.432-9.216-160.384-72.192-160.384-126.4 0-80.384 97.536-93.312 160.384-95.488v-95.168c-95.36 7.36-96.384 46.72-96.384 62.656 0 17.673-14.327 32-32 32s-32-14.327-32-32v0c0-54.080 29.952-117.056 160.384-126.272v-33.728c0-17.673 14.327-32 32-32s32 14.327 32 32v0 33.664c130.688 9.088 160.768 72.128 160.768 126.272 0 40.704-43.584 87.296-160.768 94.656v96.128c95.68-7.296 96.768-46.656 96.768-62.72zM383.616 512c0 15.872 1.024 55.232 96.384 62.592v-93.76c-61.568 2.752-96.384 13.76-96.384 31.168zM640.768 384c6.4-24.128-1.088-55.296-96.768-62.592v93.504c72.384-5.312 92.736-18.816 96.768-30.912zM512 832c-212.077 0-384-171.923-384-384s171.923-384 384-384c212.077 0 384 171.923 384 384v0c-0.218 211.989-172.011 383.782-383.979 384h-0.021zM512 128c-176.731 0-320 143.269-320 320s143.269 320 320 320c176.731 0 320-143.269 320-320v0c-0.218-176.643-143.357-319.781-319.979-320h-0.021z" />
<glyph unicode="&#xe958;" glyph-name="website" data-tags="website" d="M864 832h-704c-53.019 0-96-42.981-96-96v0-576c0-53.019 42.981-96 96-96v0h704c53.019 0 96 42.981 96 96v0 576c0 53.019-42.981 96-96 96v0zM160 768h704c17.673 0 32-14.327 32-32v0-160h-768v160c0 17.673 14.327 32 32 32v0zM864 128h-704c-17.673 0-32 14.327-32 32v0 352h768v-352c0-17.673-14.327-32-32-32v0zM211.84 642.56c3.296-1.625 7.176-2.575 11.278-2.575 0.31 0 0.619 0.005 0.927 0.016l-0.045-0.001c0.27-0.010 0.586-0.016 0.904-0.016 4.072 0 7.923 0.951 11.341 2.643l-0.15-0.067c4.127 1.449 7.604 3.875 10.277 7.007l0.027 0.033c3.165 2.7 5.591 6.177 6.989 10.139l0.051 0.165c1.625 3.269 2.576 7.119 2.576 11.192 0 0.318-0.006 0.635-0.017 0.95l0.001-0.046c0.001 0.103 0.002 0.225 0.002 0.347 0 8.719-3.686 16.577-9.585 22.101l-0.017 0.016c-5.767 5.656-13.676 9.147-22.4 9.147s-16.633-3.491-22.405-9.152l0.005 0.005c-5.917-5.57-9.601-13.454-9.601-22.199 0-0.093 0-0.186 0.001-0.279v0.014c-0.007-0.241-0.011-0.526-0.011-0.811 0-8.545 3.672-16.232 9.524-21.569l0.023-0.021c2.711-3.151 6.184-5.573 10.136-6.988l0.168-0.052zM329.536 649.6c2.711-3.151 6.184-5.573 10.136-6.988l0.168-0.052c3.296-1.625 7.176-2.575 11.278-2.575 0.31 0 0.619 0.005 0.927 0.016l-0.045-0.001c0.27-0.010 0.586-0.016 0.904-0.016 4.072 0 7.923 0.951 11.341 2.643l-0.15-0.067c4.127 1.449 7.604 3.875 10.277 7.007l0.027 0.033c5.912 5.34 9.611 13.033 9.611 21.591 0 0.285-0.004 0.568-0.012 0.851l0.001-0.041c0.001 0.103 0.002 0.225 0.002 0.347 0 8.719-3.686 16.577-9.585 22.101l-0.017 0.016c-5.767 5.656-13.676 9.147-22.4 9.147s-16.633-3.491-22.405-9.152l0.005 0.005c-5.917-5.57-9.601-13.454-9.601-22.199 0-0.093 0-0.186 0.001-0.279v0.014c-0.010-0.27-0.016-0.586-0.016-0.904 0-4.072 0.951-7.923 2.643-11.341l-0.067 0.15c1.4-4.134 3.811-7.618 6.943-10.277l0.033-0.027zM457.536 649.6c5.658-5.892 13.602-9.552 22.4-9.552s16.742 3.661 22.39 9.542l0.010 0.010c3.165 2.7 5.591 6.177 6.989 10.139l0.051 0.165c1.662 3.301 2.636 7.194 2.636 11.314 0 0.275-0.004 0.549-0.013 0.822l0.001-0.040c0.001 0.103 0.002 0.225 0.002 0.347 0 8.719-3.686 16.577-9.585 22.101l-0.017 0.016c-5.767 5.656-13.676 9.147-22.4 9.147s-16.633-3.491-22.405-9.152l0.005 0.005c-5.917-5.57-9.601-13.454-9.601-22.199 0-0.093 0-0.186 0.001-0.279v0.014c-0.010-0.27-0.016-0.586-0.016-0.904 0-4.072 0.951-7.923 2.643-11.341l-0.067 0.15c1.4-4.134 3.811-7.618 6.943-10.277l0.033-0.027zM480 448h-256c-17.673 0-32-14.327-32-32s14.327-32 32-32v0h256c17.673 0 32 14.327 32 32s-14.327 32-32 32v0zM352 320h-128c-17.673 0-32-14.327-32-32s14.327-32 32-32v0h128c17.673 0 32 14.327 32 32s-14.327 32-32 32v0z" />
<glyph unicode="&#xe959;" glyph-name="camera" data-tags="camera" d="M864 640h-81.856c-0.012 0-0.026 0-0.040 0-14.056 0-25.995 9.062-30.294 21.663l-0.067 0.225-34.944 104.512c-13.102 38.407-48.847 65.548-90.938 65.6h-227.718c-42.097-0.052-77.842-27.193-90.743-64.924l-0.201-0.676-34.944-104.512c-4.365-12.826-16.305-21.888-30.36-21.888-0.014 0-0.028 0-0.042 0h-81.854c-53.019 0-96-42.981-96-96v0-384c0-53.019 42.981-96 96-96v0h704c53.019 0 96 42.981 96 96v0 384c0 53.019-42.981 96-96 96v0zM896 160c0-17.673-14.327-32-32-32v0h-704c-17.673 0-32 14.327-32 32v0 384c0 17.673 14.327 32 32 32v0h81.856c42.097 0.052 77.842 27.193 90.743 64.924l0.201 0.676 34.752 104.512c4.365 12.826 16.304 21.889 30.361 21.889 0.081 0 0.163 0 0.244-0.001h227.7c14.046-0.011 25.973-9.070 30.269-21.663l0.067-0.225 35.008-104.512c13.102-38.407 48.847-65.548 90.938-65.6h81.862c17.673 0 32-14.327 32-32v0zM512 576c-106.039 0-192-85.961-192-192s85.961-192 192-192c106.039 0 192 85.961 192 192v0c0 106.039-85.961 192-192 192v0zM512 256c-70.692 0-128 57.308-128 128s57.308 128 128 128c70.692 0 128-57.308 128-128v0c0-70.692-57.308-128-128-128v0zM832 480c0-17.673-14.327-32-32-32s-32 14.327-32 32c0 17.673 14.327 32 32 32s32-14.327 32-32zM480 640h64c17.673 0 32 14.327 32 32s-14.327 32-32 32v0h-64c-17.673 0-32-14.327-32-32s14.327-32 32-32v0z" />
<glyph unicode="&#xe95a;" glyph-name="image-similar" data-tags="image-similar" d="M864 736h-32v32c0 53.019-42.981 96-96 96v0h-576c-53.019 0-96-42.981-96-96v0-512c0-53.019 42.981-96 96-96v0h32v-32c0-53.019 42.981-96 96-96v0h576c53.019 0 96 42.981 96 96v0 512c0 53.019-42.981 96-96 96v0zM128 256v512c0 17.673 14.327 32 32 32v0h576c17.673 0 32-14.327 32-32v0-512c0-17.673-14.327-32-32-32v0h-576c-17.673 0-32 14.327-32 32v0zM896 128c0-17.673-14.327-32-32-32v0h-576c-17.673 0-32 14.327-32 32v0 32h480c53.019 0 96 42.981 96 96v0 416h32c17.673 0 32-14.327 32-32v0zM393.344 425.344c5.794-5.808 13.805-9.401 22.656-9.401s16.862 3.593 22.655 9.401l128.001 128.001c5.798 5.798 9.384 13.808 9.384 22.656 0 17.695-14.345 32.040-32.040 32.040-8.848 0-16.858-3.586-22.656-9.384v0l-105.344-105.408-41.344 41.408c-5.798 5.798-13.808 9.384-22.656 9.384-17.695 0-32.040-14.345-32.040-32.040 0-8.848 3.586-16.858 9.384-22.656v0z" />
<glyph unicode="&#xe95b;" glyph-name="image-highsimilar" data-tags="image-highsimilar" d="M864 736h-32v32c0 53.019-42.981 96-96 96v0h-576c-53.019 0-96-42.981-96-96v0-512c0-53.019 42.981-96 96-96v0h32v-32c0-53.019 42.981-96 96-96v0h576c53.019 0 96 42.981 96 96v0 512c0 53.019-42.981 96-96 96v0zM128 256v512c0 17.673 14.327 32 32 32v0h576c17.673 0 32-14.327 32-32v0-512c0-17.673-14.327-32-32-32v0h-576c-17.673 0-32 14.327-32 32v0zM896 128c0-17.673-14.327-32-32-32v0h-576c-17.673 0-32 14.327-32 32v0 32h480c53.019 0 96 42.981 96 96v0 416h32c17.673 0 32-14.327 32-32v0zM288 416c0.017 0 0.037 0 0.057 0 8.822 0 16.811 3.57 22.599 9.345l127.999 127.999c5.798 5.798 9.384 13.808 9.384 22.656 0 17.695-14.345 32.040-32.040 32.040-8.848 0-16.858-3.586-22.656-9.384v0l-105.344-105.408-41.344 41.408c-5.798 5.798-13.808 9.384-22.656 9.384-17.695 0-32.040-14.345-32.040-32.040 0-8.848 3.586-16.858 9.384-22.656v0l64-64c5.788-5.774 13.776-9.344 22.599-9.344 0.020 0 0.040 0 0.060 0h-0.003zM457.344 489.344l64-64c5.794-5.808 13.805-9.401 22.656-9.401s16.862 3.593 22.655 9.401l128.001 128.001c5.798 5.798 9.384 13.808 9.384 22.656 0 17.695-14.345 32.040-32.040 32.040-8.848 0-16.858-3.586-22.656-9.384v0l-105.344-105.408-41.344 41.408c-5.798 5.798-13.808 9.384-22.656 9.384-17.695 0-32.040-14.345-32.040-32.040 0-8.848 3.586-16.858 9.384-22.656v0z" />
<glyph unicode="&#xe95c;" glyph-name="view-small" data-tags="view-small" d="M224 800h64c35.346 0 64-28.654 64-64v-64c0-35.346-28.654-64-64-64h-64c-35.346 0-64 28.654-64 64v64c0 35.346 28.654 64 64 64zM736 800h64c35.346 0 64-28.654 64-64v-64c0-35.346-28.654-64-64-64h-64c-35.346 0-64 28.654-64 64v64c0 35.346 28.654 64 64 64zM480 800h64c35.346 0 64-28.654 64-64v-64c0-35.346-28.654-64-64-64h-64c-35.346 0-64 28.654-64 64v64c0 35.346 28.654 64 64 64zM224 544h64c35.346 0 64-28.654 64-64v-64c0-35.346-28.654-64-64-64h-64c-35.346 0-64 28.654-64 64v64c0 35.346 28.654 64 64 64zM736 544h64c35.346 0 64-28.654 64-64v-64c0-35.346-28.654-64-64-64h-64c-35.346 0-64 28.654-64 64v64c0 35.346 28.654 64 64 64zM480 544h64c35.346 0 64-28.654 64-64v-64c0-35.346-28.654-64-64-64h-64c-35.346 0-64 28.654-64 64v64c0 35.346 28.654 64 64 64zM224 288h64c35.346 0 64-28.654 64-64v-64c0-35.346-28.654-64-64-64h-64c-35.346 0-64 28.654-64 64v64c0 35.346 28.654 64 64 64zM736 288h64c35.346 0 64-28.654 64-64v-64c0-35.346-28.654-64-64-64h-64c-35.346 0-64 28.654-64 64v64c0 35.346 28.654 64 64 64zM480 288h64c35.346 0 64-28.654 64-64v-64c0-35.346-28.654-64-64-64h-64c-35.346 0-64 28.654-64 64v64c0 35.346 28.654 64 64 64z" />
<glyph unicode="&#xe95d;" glyph-name="view-big" data-tags="view-big" d="M192 832.64h192c35.346 0 64-28.654 64-64v-192c0-35.346-28.654-64-64-64h-192c-35.346 0-64 28.654-64 64v192c0 35.346 28.654 64 64 64zM640 832.64h192c35.346 0 64-28.654 64-64v-192c0-35.346-28.654-64-64-64h-192c-35.346 0-64 28.654-64 64v192c0 35.346 28.654 64 64 64zM192 384.64h192c35.346 0 64-28.654 64-64v-193.216c0-35.346-28.654-64-64-64h-192c-35.346 0-64 28.654-64 64v193.216c0 35.346 28.654 64 64 64zM640 384.64h192c35.346 0 64-28.654 64-64v-193.216c0-35.346-28.654-64-64-64h-192c-35.346 0-64 28.654-64 64v193.216c0 35.346 28.654 64 64 64z" />
<glyph unicode="&#xe95e;" glyph-name="construct" data-tags="construct" d="M928 128h-103.552l-172.8 633.28c-11.477 41.063-48.547 70.688-92.54 70.72h-94.212c-0.018 0-0.039 0-0.060 0-44.025 0-81.128-29.635-92.45-70.044l-0.162-0.676-172.672-633.28h-103.552c-17.673 0-32-14.327-32-32s14.327-32 32-32v0h832c17.673 0 32 14.327 32 32s-14.327 32-32 32v0zM370.624 512h282.752l34.88-128h-352.512zM433.984 744.384c3.813 13.717 16.192 23.616 30.882 23.616 0.010 0 0.021 0 0.031 0h94.206c0.009 0 0.019 0 0.030 0 14.691 0 27.069-9.899 30.829-23.391l0.054-0.225 45.888-168.384h-247.808zM318.272 320h387.456l52.352-192h-492.16z" />
<glyph unicode="&#xe95f;" glyph-name="sale" data-tags="sale" d="M960 448c-0.006 11.061-5.622 20.808-14.158 26.551l-0.114 0.073-72.192 48.128 47.232 72.832c3.207 4.902 5.115 10.906 5.115 17.356 0 15.635-11.213 28.651-26.036 31.445l-0.199 0.031-77.568 14.144 15.424 77.44c0.392 1.878 0.616 4.037 0.616 6.248 0 17.673-14.327 32-32 32-2.211 0-4.369-0.224-6.454-0.651l0.206 0.035-85.12-17.024-18.112 84.864c-3.194 14.569-15.989 25.313-31.293 25.313-6.798 0-13.1-2.119-18.283-5.734l0.104 0.069-64.832-44.8-43.712 65.408c-6.122 8.143-15.764 13.355-26.624 13.355s-20.502-5.211-26.563-13.27l-0.061-0.085-48.128-72.192-72.832 47.232c-4.927 3.185-10.947 5.078-17.409 5.078-4.577 0-8.933-0.95-12.88-2.663l0.209 0.081c-9.691-4.277-16.755-12.948-18.721-23.417l-0.031-0.199-14.208-77.568-77.376 15.424c-1.878 0.392-4.037 0.616-6.248 0.616-17.673 0-32-14.327-32-32 0-2.211 0.224-4.369 0.651-6.454l-0.035 0.206 17.152-85.056-84.864-18.112c-14.588-3.179-25.351-15.983-25.351-31.302 0-6.821 2.134-13.144 5.772-18.337l-0.068 0.103 44.8-64.768-65.6-43.776c-8.64-5.821-14.247-15.568-14.247-26.624s5.607-20.803 14.133-26.552l0.114-0.072 72.192-48.128-47.232-72.832c-3.207-4.902-5.115-10.906-5.115-17.356 0-15.635 11.213-28.651 26.036-31.445l0.199-0.031 77.568-14.144-15.36-77.44c-0.392-1.878-0.616-4.037-0.616-6.248 0-17.673 14.327-32 32-32 2.211 0 4.369 0.224 6.454 0.651l-0.206-0.035 85.12 17.024 18.112-84.864c2.245-10.545 9.444-19.032 18.989-23.026l0.211-0.078c3.479-1.392 7.511-2.2 11.732-2.2 6.831 0 13.168 2.115 18.392 5.726l-0.108-0.071 64.832 44.8 43.712-65.6c5.821-8.64 15.568-14.247 26.624-14.247s20.803 5.607 26.552 14.133l0.072 0.114 48.128 72.192 72.832-47.232c4.902-3.207 10.906-5.115 17.356-5.115 15.635 0 28.651 11.213 31.445 26.036l0.031 0.199 14.208 77.568 77.248-15.424c1.878-0.392 4.037-0.616 6.248-0.616 17.673 0 32 14.327 32 32 0 2.211-0.224 4.369-0.651 6.454l0.035-0.206-17.024 85.056 84.864 18.112c14.588 3.179 25.351 15.983 25.351 31.302 0 6.821-2.134 13.144-5.772 18.337l0.068-0.103-44.8 64.768 65.6 43.776c8.764 5.803 14.464 15.619 14.464 26.767 0 0.017 0 0.034 0 0.051v-0.003zM809.024 368l36.032-52.096-68.8-14.72c-14.575-3.189-25.325-15.987-25.325-31.296 0-2.22 0.226-4.386 0.656-6.479l-0.036 0.207 13.76-68.992-62.080 12.416c-1.955 0.436-4.2 0.686-6.503 0.686-6.641 0-12.797-2.077-17.853-5.617l0.1 0.067c-6.957-4.771-11.884-12.066-13.473-20.538l-0.031-0.198-11.392-62.4-59.008 38.4c-4.908 3.218-10.922 5.133-17.383 5.133-11.072 0-20.831-5.624-26.577-14.17l-0.073-0.115-39.040-58.688-35.136 52.8c-4.736 6.994-12.009 11.964-20.471 13.6l-0.201 0.032c-1.789 0.365-3.846 0.575-5.951 0.576h-0.001c-0.005 0-0.011 0-0.016 0-6.817 0-13.136-2.132-18.327-5.764l0.103 0.068-52.096-36.032-14.72 68.8c-3.189 14.575-15.987 25.325-31.296 25.325-2.22 0-4.386-0.226-6.479-0.656l0.207 0.036-68.992-13.76 12.416 62.144c0.402 1.902 0.631 4.087 0.631 6.325 0 6.692-2.054 12.904-5.566 18.040l0.071-0.11c-4.814 6.912-12.089 11.821-20.53 13.471l-0.206 0.033-62.4 11.392 38.4 59.072c3.23 4.915 5.152 10.939 5.152 17.413 0 11.054-5.604 20.798-14.127 26.547l-0.114 0.072-58.752 38.976 52.8 35.2c8.612 5.825 14.198 15.555 14.198 26.591 0 6.811-2.128 13.124-5.754 18.312l0.069-0.104-35.712 52.096 68.8 14.72c14.575 3.189 25.325 15.987 25.325 31.296 0 2.22-0.226 4.386-0.656 6.479l0.036-0.207-14.016 68.992 62.080-12.416c1.951-0.433 4.191-0.682 6.489-0.682 6.645 0 12.805 2.075 17.868 5.613l-0.101-0.067c6.906 4.791 11.788 12.083 13.346 20.539l0.030 0.197 11.52 62.4 59.008-38.4c4.908-3.218 10.922-5.133 17.383-5.133 11.072 0 20.831 5.624 26.577 14.17l0.073 0.115 39.040 58.688 35.136-52.8c4.736-6.994 12.009-11.964 20.471-13.6l0.201-0.032c1.856-0.392 3.988-0.617 6.172-0.617 6.756 0 13.009 2.149 18.114 5.801l-0.094-0.064 52.096 36.032 14.72-68.8c3.189-14.575 15.987-25.325 31.296-25.325 2.22 0 4.386 0.226 6.479 0.656l-0.207-0.036 68.992 13.76-12.416-62.144c-0.402-1.902-0.631-4.087-0.631-6.325 0-6.692 2.054-12.904 5.566-18.040l-0.071 0.11c4.814-6.912 12.089-11.821 20.53-13.471l0.206-0.033 62.4-11.328-38.4-59.072c-3.23-4.915-5.152-10.939-5.152-17.413 0-11.054 5.604-20.798 14.127-26.547l0.114-0.072 58.752-39.040-52.8-35.2c-8.612-5.825-14.198-15.555-14.198-26.591 0-6.811 2.128-13.124 5.754-18.312l-0.069 0.104zM624.448 635.456c-4.696 2.859-10.375 4.552-16.45 4.552-11.603 0-21.763-6.175-27.374-15.418l-0.080-0.142-192-320c-2.859-4.696-4.552-10.375-4.552-16.45 0-11.603 6.175-21.763 15.418-27.374l0.142-0.080c4.629-2.854 10.238-4.545 16.242-4.545 0.072 0 0.145 0 0.217 0.001h-0.011c0.002 0 0.004 0 0.007 0 11.599 0 21.757 6.172 27.369 15.41l0.080 0.142 192 320c2.859 4.696 4.552 10.375 4.552 16.45 0 11.603-6.175 21.763-15.418 27.374l-0.142 0.080zM448 544c0-17.673-14.327-32-32-32s-32 14.327-32 32c0 17.673 14.327 32 32 32s32-14.327 32-32zM640 352c0-17.673-14.327-32-32-32s-32 14.327-32 32c0 17.673 14.327 32 32 32s32-14.327 32-32z" />
<glyph unicode="&#xe960;" glyph-name="jobs" data-tags="jobs" d="M800 704h-96v32c0 53.019-42.981 96-96 96v0h-192c-53.019 0-96-42.981-96-96v0-32h-96c-53.019 0-96-42.981-96-96v0-448c0-53.019 42.981-96 96-96v0h576c53.019 0 96 42.981 96 96v0 448c0 53.019-42.981 96-96 96v0zM384 736c0 17.673 14.327 32 32 32v0h192c17.673 0 32-14.327 32-32v0-32h-256zM224 640h576c17.673 0 32-14.327 32-32v0-96h-128v32c0 17.673-14.327 32-32 32s-32-14.327-32-32v0-32h-256v32c0 17.673-14.327 32-32 32s-32-14.327-32-32v0-32h-128v96c0 17.673 14.327 32 32 32v0zM800 128h-576c-17.673 0-32 14.327-32 32v0 288h128v-32c0-17.673 14.327-32 32-32s32 14.327 32 32v0 32h256v-32c0-17.673 14.327-32 32-32s32 14.327 32 32v0 32h128v-288c0-17.673-14.327-32-32-32v0z" />
</font>
</defs>
</svg>
