<svg width="176" height="24" viewBox="0 0 176 24" fill="none" xmlns="http://www.w3.org/2000/svg">
<path d="M97 0.5H125C127.485 0.5 129.5 2.51472 129.5 5V19C129.5 21.4853 127.485 23.5 125 23.5H97C94.5147 23.5 92.5 21.4853 92.5 19V5C92.5 2.51472 94.5147 0.5 97 0.5Z" fill="#00ADEF" stroke="#F8F8F8"/>
<path d="M110.66 9.5H110L108.51 12.69L107 9.5H105V13.73L103.08 9.5H101.18L99 14.5H100.49L100.94 13.39H103.28L103.76 14.5H106.25V10.89L107.92 14.5H109.13L110.66 11.19V14.5H112V9.5H110.66ZM101.41 12.25L102.08 10.59L102.79 12.25H101.41Z" fill="white"/>
<path d="M123 9.5H121.24L119.82 11L118.43 9.5H112.92V14.5H118.32L119.8 12.92L121.24 14.5H123L120.69 12L123 9.5ZM117 14V13.35H114.21V12.56H117V11.43H114.21V10.64H117V9.89L118.93 12L117 14Z" fill="white"/>
<path d="M176 11.77V19C176 20.3261 175.473 21.5979 174.535 22.5356C173.598 23.4732 172.326 24 171 24H147.9C153.174 24.007 158.392 22.9243 163.227 20.8197C168.063 18.7152 172.411 15.6342 176 11.77Z" fill="#F18A1B"/>
<path d="M143 0.5H171C173.485 0.5 175.5 2.51472 175.5 5V19C175.5 21.4853 173.485 23.5 171 23.5H143C140.515 23.5 138.5 21.4853 138.5 19V5C138.5 2.51472 140.515 0.5 143 0.5Z" fill="white" stroke="#F8F8F8"/>
<path d="M158.29 9.06991C157.849 9.07976 157.421 9.21945 157.06 9.47149C156.698 9.72353 156.418 10.0767 156.257 10.4868C156.095 10.8969 156.057 11.3456 156.149 11.7768C156.241 12.2079 156.459 12.6024 156.774 12.9107C157.089 13.2189 157.488 13.4274 157.921 13.5098C158.354 13.5923 158.802 13.5451 159.208 13.3742C159.615 13.2033 159.962 12.9162 160.206 12.549C160.45 12.1818 160.58 11.7508 160.58 11.3099C160.572 10.7096 160.327 10.1369 159.898 9.71707C159.468 9.29727 158.89 9.06457 158.29 9.06991Z" fill="#F18A1B"/>
<path d="M147.29 9.17993H146.51V13.4299H147.29V9.17993Z" fill="black"/>
<path d="M145.61 10.36C145.492 10.1102 145.321 9.88857 145.11 9.71C144.902 9.52946 144.661 9.39031 144.4 9.3C144.13 9.22296 143.851 9.1859 143.57 9.19H141.85V13.44H143.47C143.745 13.436 144.018 13.3922 144.28 13.31C144.552 13.2232 144.806 13.0876 145.03 12.91C145.275 12.7228 145.471 12.48 145.603 12.2018C145.736 11.9236 145.8 11.6179 145.79 11.31C145.798 10.9842 145.737 10.6603 145.61 10.36ZM144.84 12C144.741 12.1685 144.612 12.3176 144.46 12.44C144.289 12.5595 144.095 12.6413 143.89 12.68C143.665 12.742 143.433 12.7723 143.2 12.77H142.63V9.86H143.33C143.558 9.87889 143.783 9.92592 144 10C144.181 10.0555 144.352 10.1363 144.51 10.24C144.661 10.3616 144.778 10.52 144.85 10.7C144.945 10.9067 144.989 11.1328 144.98 11.36C144.984 11.5814 144.936 11.8006 144.84 12Z" fill="black"/>
<path d="M150.45 11.2099C150.306 11.1268 150.156 11.0565 150 10.9999C149.83 10.957 149.663 10.9036 149.5 10.8399C149.36 10.7958 149.228 10.7282 149.11 10.6399C149.059 10.6024 149.018 10.5524 148.992 10.4946C148.966 10.4368 148.955 10.3732 148.96 10.3099C148.958 10.2229 148.979 10.1368 149.02 10.0599C149.063 9.99409 149.117 9.93649 149.18 9.88995C149.252 9.84975 149.33 9.81947 149.41 9.79995C149.496 9.79012 149.584 9.79012 149.67 9.79995C149.821 9.79562 149.971 9.82287 150.11 9.87995C150.243 9.9281 150.358 10.0152 150.44 10.1299L151.01 9.54995C150.84 9.39559 150.639 9.27963 150.42 9.20995C150.008 9.0905 149.572 9.0905 149.16 9.20995C148.976 9.257 148.803 9.33844 148.65 9.44995C148.5 9.55542 148.373 9.69179 148.28 9.84995C148.185 10.0246 148.137 10.221 148.14 10.4199C148.133 10.6314 148.189 10.8402 148.3 11.0199C148.398 11.1667 148.528 11.2896 148.68 11.3799C148.838 11.4712 149.006 11.5449 149.18 11.5999C149.349 11.6443 149.516 11.6978 149.68 11.7599C149.816 11.8113 149.944 11.882 150.06 11.9699C150.113 12.0134 150.155 12.0685 150.183 12.131C150.21 12.1935 150.223 12.2616 150.22 12.3299C150.218 12.421 150.194 12.5103 150.15 12.5899C150.1 12.6595 150.04 12.7204 149.97 12.7699C149.895 12.8224 149.81 12.8598 149.72 12.8799C149.63 12.8896 149.54 12.8896 149.45 12.8799C149.279 12.8796 149.111 12.8384 148.96 12.7599C148.811 12.6827 148.684 12.5693 148.59 12.4299L148 12.9999C148.174 13.2043 148.398 13.3595 148.65 13.4499C148.9 13.5384 149.164 13.5824 149.43 13.5799C149.636 13.5799 149.841 13.553 150.04 13.4999C150.226 13.4502 150.4 13.3616 150.55 13.2399C150.7 13.1316 150.821 12.9872 150.9 12.8199C150.992 12.6337 151.037 12.4276 151.03 12.2199C151.04 12.0095 150.988 11.8008 150.88 11.6199C150.773 11.4497 150.625 11.3088 150.45 11.2099Z" fill="black"/>
<path d="M166.05 11.5899H168.06V10.9099H166.05V9.85993H168.17V9.17993H165.28V13.4299H168.28V12.7499H166.05V11.5899Z" fill="black"/>
<path d="M171.18 11.5499C171.324 11.5394 171.464 11.5004 171.593 11.4351C171.722 11.3699 171.836 11.2797 171.93 11.1699C172.107 10.953 172.199 10.6795 172.19 10.3999C172.199 10.1921 172.154 9.9854 172.06 9.79991C171.963 9.65277 171.837 9.52689 171.69 9.42991C171.528 9.33606 171.353 9.26854 171.17 9.22991C170.967 9.21438 170.763 9.21438 170.56 9.22991H169V13.4799H169.78V11.6299H170.36L171.36 13.4399H172.3L171.18 11.5499ZM170.76 10.9999H169.82V9.82991H170.5H170.8C170.896 9.83958 170.991 9.86316 171.08 9.89991C171.169 9.93363 171.245 9.99278 171.3 10.0699C171.361 10.1614 171.389 10.2705 171.38 10.3799C171.386 10.4922 171.358 10.6037 171.3 10.6999C171.238 10.7763 171.159 10.8378 171.07 10.8799L170.76 10.9999Z" fill="black"/>
<path d="M154.39 12.7301C154.23 12.8164 154.051 12.8611 153.87 12.8601C153.567 12.8723 153.268 12.7865 153.017 12.6153C152.767 12.4442 152.579 12.1969 152.48 11.9101C152.407 11.7081 152.37 11.4949 152.37 11.2801C152.37 11.0751 152.407 10.8717 152.48 10.6801C152.548 10.5025 152.65 10.3396 152.78 10.2001C152.916 10.0592 153.079 9.94697 153.26 9.87009C153.454 9.79545 153.661 9.75813 153.87 9.76009C154.023 9.76228 154.175 9.7893 154.32 9.84009C154.499 9.91802 154.66 10.034 154.79 10.1801L155.39 9.75009C155.203 9.5214 154.963 9.3427 154.69 9.23009C154.428 9.11823 154.145 9.06368 153.86 9.07009C153.546 9.07019 153.235 9.12431 152.94 9.23009C152.666 9.32848 152.417 9.48546 152.21 9.69009C151.997 9.88616 151.832 10.1293 151.73 10.4001C151.61 10.6918 151.553 11.005 151.56 11.3201C151.552 11.632 151.61 11.9422 151.73 12.2301C151.835 12.4966 151.999 12.7359 152.21 12.9301C152.415 13.1343 152.665 13.2883 152.94 13.3801C153.234 13.4905 153.546 13.5448 153.86 13.5401C154.172 13.5434 154.482 13.4821 154.77 13.3601C155.061 13.2408 155.311 13.0393 155.49 12.7801L154.85 12.3401C154.727 12.5026 154.57 12.6359 154.39 12.7301Z" fill="black"/>
<path d="M162.74 12.3899L161.55 9.17993H160.65L162.37 13.4299H163.04L164.81 9.17993H163.97L162.74 12.3899Z" fill="black"/>
<mask id="path-14-inside-1" fill="white">
<path fill-rule="evenodd" clip-rule="evenodd" d="M51 0H79C80.3261 0 81.5979 0.526784 82.5355 1.46447C83.4732 2.40215 84 3.67392 84 5V19C84 20.3261 83.4732 21.5979 82.5355 22.5355C81.5979 23.4732 80.3261 24 79 24H51C49.6739 24 48.4021 23.4732 47.4645 22.5355C46.5268 21.5979 46 20.3261 46 19V5C46 3.67392 46.5268 2.40215 47.4645 1.46447C48.4021 0.526784 49.6739 0 51 0Z"/>
</mask>
<path fill-rule="evenodd" clip-rule="evenodd" d="M51 0H79C80.3261 0 81.5979 0.526784 82.5355 1.46447C83.4732 2.40215 84 3.67392 84 5V19C84 20.3261 83.4732 21.5979 82.5355 22.5355C81.5979 23.4732 80.3261 24 79 24H51C49.6739 24 48.4021 23.4732 47.4645 22.5355C46.5268 21.5979 46 20.3261 46 19V5C46 3.67392 46.5268 2.40215 47.4645 1.46447C48.4021 0.526784 49.6739 0 51 0Z" fill="white"/>
<path d="M79 -1H51V1H79V-1ZM83.2426 0.757359C82.1174 -0.367859 80.5913 -1 79 -1V1C80.0609 1 81.0783 1.42143 81.8284 2.17157L83.2426 0.757359ZM85 5C85 3.4087 84.3679 1.88258 83.2426 0.757359L81.8284 2.17157C82.5786 2.92172 83 3.93913 83 5H85ZM85 19V5H83V19H85ZM83.2426 23.2426C84.3679 22.1174 85 20.5913 85 19H83C83 20.0609 82.5786 21.0783 81.8284 21.8284L83.2426 23.2426ZM79 25C80.5913 25 82.1174 24.3679 83.2426 23.2426L81.8284 21.8284C81.0783 22.5786 80.0609 23 79 23V25ZM51 25H79V23H51V25ZM46.7574 23.2426C47.8826 24.3679 49.4087 25 51 25V23C49.9391 23 48.9217 22.5786 48.1716 21.8284L46.7574 23.2426ZM45 19C45 20.5913 45.6321 22.1174 46.7574 23.2426L48.1716 21.8284C47.4214 21.0783 47 20.0609 47 19H45ZM45 5V19H47V5H45ZM46.7574 0.757359C45.6321 1.88258 45 3.4087 45 5H47C47 3.93913 47.4214 2.92172 48.1716 2.17157L46.7574 0.757359ZM51 -1C49.4087 -1 47.8826 -0.367859 46.7574 0.757359L48.1716 2.17157C48.9217 1.42143 49.9391 1 51 1V-1Z" fill="#F8F8F8" mask="url(#path-14-inside-1)"/>
<path d="M73.31 12C73.3091 12.9641 73.0148 13.9051 72.4662 14.6979C71.9177 15.4908 71.1408 16.0979 70.239 16.4387C69.3371 16.7795 68.3529 16.8377 67.4171 16.6058C66.4813 16.3738 65.6383 15.8626 65 15.14C65.7663 14.2735 66.1892 13.1567 66.1892 12C66.1892 10.8433 65.7663 9.72648 65 8.85998C65.6383 8.13741 66.4813 7.62616 67.4171 7.39419C68.3529 7.16221 69.3371 7.22049 70.239 7.56126C71.1408 7.90204 71.9177 8.50919 72.4662 9.30204C73.0148 10.0949 73.3091 11.0359 73.31 12Z" fill="#F79E1B"/>
<path d="M65.0001 15.1401C65.6573 15.1401 66.1901 13.7343 66.1901 12.0001C66.1901 10.2659 65.6573 8.86011 65.0001 8.86011C64.3428 8.86011 63.8101 10.2659 63.8101 12.0001C63.8101 13.7343 64.3428 15.1401 65.0001 15.1401Z" fill="#FF5F00"/>
<path d="M63.8101 12C63.8122 13.1565 64.2352 14.2726 65.0001 15.14C64.3622 15.8641 63.5188 16.3767 62.5823 16.6096C61.6458 16.8425 60.6606 16.7846 59.7578 16.4437C58.855 16.1027 58.0775 15.4948 57.5287 14.701C56.98 13.9072 56.686 12.965 56.686 12C56.686 11.035 56.98 10.0928 57.5287 9.299C58.0775 8.50517 58.855 7.89731 59.7578 7.55635C60.6606 7.21539 61.6458 7.1575 62.5823 7.39039C63.5188 7.62328 64.3622 8.1359 65.0001 8.86C64.2352 9.72736 63.8122 10.8435 63.8101 12Z" fill="#EB001B"/>
<path d="M5 0.5H33C35.4853 0.5 37.5 2.51472 37.5 5V19C37.5 21.4853 35.4853 23.5 33 23.5H5C2.51472 23.5 0.5 21.4853 0.5 19V5C0.5 2.51472 2.51472 0.5 5 0.5Z" fill="#122A96" stroke="#F8F8F8"/>
<path d="M15.7602 8.55994L12.8902 15.4499H11.0002L9.6102 9.99994C9.59897 9.87061 9.55436 9.74641 9.48074 9.63948C9.40712 9.53256 9.30701 9.44657 9.1902 9.38994C8.63586 9.12444 8.05169 8.92637 7.4502 8.79994V8.59994H10.4502C10.6487 8.60228 10.84 8.67488 10.9902 8.80485C11.1403 8.93482 11.2395 9.11377 11.2702 9.30994L12.0102 13.3099L13.8502 8.61994L15.7602 8.55994ZM23.0902 13.1999C23.0902 11.3899 20.5902 11.2899 20.6102 10.4699C20.6102 10.2299 20.8502 9.95994 21.3602 9.89994C21.9599 9.83921 22.5649 9.94292 23.1102 10.1999L23.4202 8.73994C22.8882 8.54531 22.3267 8.44383 21.7602 8.43994C20.0102 8.43994 18.7602 9.36994 18.7602 10.7199C18.7602 11.7199 19.6402 12.2599 20.3102 12.5899C20.9802 12.9199 21.2302 13.1499 21.2302 13.4499C21.2302 13.9099 20.6802 14.1099 20.1702 14.1199C19.5365 14.1366 18.9094 13.9885 18.3502 13.6899L18.0002 15.1999C18.6381 15.4452 19.3168 15.5674 20.0002 15.5599C21.8602 15.5599 23.0702 14.6399 23.0802 13.1999H23.0902ZM27.7002 15.4499H29.3302L27.9102 8.55994H26.4102C26.2472 8.55977 26.0878 8.6082 25.9524 8.69904C25.817 8.78988 25.7118 8.91901 25.6502 9.06994L23.0002 15.4499H24.8602L25.2202 14.4499H27.4902L27.7002 15.4499ZM25.7002 13.0099L26.6402 10.4299L27.2002 12.9999L25.7002 13.0099ZM18.2602 8.55994L16.8002 15.4499H15.0602L16.5202 8.55994H18.2602Z" fill="white"/>
</svg>
