<svg width="32" height="32" viewBox="0 0 32 32" fill="none" xmlns="http://www.w3.org/2000/svg">
<path d="M18.4492 1.78992C18.4159 1.68546 18.3541 1.59255 18.2707 1.52183C18.1873 1.45111 18.0858 1.40545 17.9778 1.39007L16.973 1.24308L16.5232 0.32722C16.4749 0.229024 16.4003 0.146013 16.3077 0.0882536C16.2152 0.0304938 16.1084 -7.50163e-05 15.9995 1.38244e-07C15.8905 7.59087e-05 15.7838 0.0307928 15.6913 0.0886808C15.5988 0.146569 15.5243 0.22932 15.4761 0.327583L15.0267 1.24345L14.0215 1.39044C13.9136 1.40622 13.8124 1.45204 13.7291 1.5227C13.6458 1.59337 13.5838 1.68606 13.5501 1.7903C13.5164 1.89455 13.5125 2.00618 13.5386 2.11259C13.5647 2.219 13.6199 2.31594 13.6979 2.39244L14.4251 3.10564L14.2533 4.11241C14.235 4.22043 14.247 4.33147 14.2881 4.43297C14.3292 4.53448 14.3977 4.6224 14.4858 4.6868C14.574 4.7512 14.6783 4.78951 14.787 4.79741C14.8956 4.8053 15.0043 4.78247 15.1008 4.73147L15.9998 4.25582L16.8986 4.73111C16.995 4.78243 17.1038 4.80544 17.2125 4.79754C17.3213 4.78963 17.4256 4.75112 17.5137 4.68641C17.6022 4.62237 17.671 4.53449 17.7121 4.43288C17.7531 4.33127 17.7649 4.22006 17.7459 4.11204L17.5746 3.1055L18.3021 2.39235C18.3804 2.31602 18.4358 2.21901 18.4619 2.11245C18.4879 2.00588 18.4835 1.8941 18.4492 1.78992Z" fill="white"/>
<path d="M18.4492 28.9914C18.4161 28.8868 18.3543 28.7937 18.2709 28.7229C18.1875 28.6521 18.0859 28.6065 17.9778 28.5912L16.973 28.4442L16.5232 27.5283C16.475 27.43 16.4004 27.3472 16.3079 27.2893C16.2153 27.2314 16.1085 27.2008 15.9995 27.2008C15.8905 27.2008 15.7837 27.2314 15.6911 27.2893C15.5986 27.3472 15.524 27.43 15.4757 27.5283L15.0263 28.4442L14.0209 28.5911C13.9132 28.6069 13.8119 28.6528 13.7287 28.7235C13.6455 28.7941 13.5836 28.8868 13.55 28.991C13.5163 29.0952 13.5124 29.2068 13.5385 29.3131C13.5646 29.4195 13.6197 29.5164 13.6977 29.5928L14.4248 30.3063L14.2531 31.3129C14.2343 31.421 14.2461 31.5322 14.2871 31.6339C14.3281 31.7356 14.3966 31.8237 14.4849 31.8882C14.5732 31.9526 14.6777 31.9909 14.7865 31.9986C14.8954 32.0062 15.0042 31.983 15.1005 31.9316L15.9998 31.4569L16.8986 31.9322C16.995 31.9832 17.1036 32.0061 17.2122 31.9982C17.3209 31.9903 17.4251 31.9521 17.5133 31.8877C17.6014 31.8233 17.6698 31.7354 17.7109 31.634C17.7519 31.5325 17.7639 31.4215 17.7455 31.3135L17.5742 30.3068L18.3017 29.5933C18.3801 29.5171 18.4355 29.4202 18.4616 29.3137C18.4877 29.2072 18.4834 29.0955 18.4492 28.9914Z" fill="white"/>
<path d="M4.74955 15.1224C4.83293 15.1931 4.89482 15.286 4.92813 15.3905C4.96221 15.4947 4.96642 15.6065 4.94028 15.713C4.91414 15.8195 4.8587 15.9164 4.78032 15.9927L4.05356 16.7059L4.22458 17.713C4.243 17.821 4.23099 17.932 4.18991 18.0336C4.14883 18.1351 4.08032 18.223 3.99214 18.2874C3.90396 18.3518 3.79962 18.39 3.69093 18.3979C3.58225 18.4057 3.47355 18.3828 3.37715 18.3317L2.47833 17.8564L1.57947 18.3317C1.4831 18.3831 1.37431 18.4063 1.26547 18.3986C1.15664 18.391 1.05213 18.3527 0.963838 18.2883C0.875545 18.2238 0.80701 18.1357 0.766032 18.034C0.725053 17.9323 0.713276 17.8211 0.732038 17.713L0.903777 16.7062L0.176384 15.9927C0.0983506 15.9162 0.0431512 15.8193 0.0170288 15.7129C-0.00909354 15.6065 -0.00509655 15.4949 0.0285685 15.3907C0.0622336 15.2864 0.124223 15.1937 0.207526 15.1231C0.290828 15.0525 0.392118 15.0067 0.499941 14.991L1.50514 14.844L1.95459 13.9281C2.00281 13.8298 2.07738 13.7471 2.16989 13.6892C2.26239 13.6313 2.36914 13.6006 2.47808 13.6005C2.58703 13.6005 2.69382 13.631 2.78641 13.6888C2.87899 13.7465 2.95368 13.8292 3.00203 13.9274L3.45148 14.8436L4.45668 14.9906C4.56467 15.006 4.66617 15.0517 4.74955 15.1224Z" fill="white"/>
<path d="M31.9708 15.3905C31.9374 15.286 31.8755 15.1931 31.7922 15.1224C31.7088 15.0517 31.6073 15.006 31.4993 14.9906L30.4945 14.8436L30.0447 13.9278C29.9965 13.8295 29.9219 13.7467 29.8293 13.6888C29.7368 13.6309 29.63 13.6002 29.521 13.6002C29.412 13.6002 29.3052 13.6309 29.2126 13.6888C29.12 13.7467 29.0454 13.8295 28.9972 13.9278L28.5475 14.8436L27.5426 14.9906C27.4348 15.0064 27.3335 15.0523 27.2502 15.1229C27.167 15.1936 27.105 15.2862 27.0713 15.3904C27.0376 15.4947 27.0335 15.6063 27.0596 15.7127C27.0856 15.8191 27.1408 15.9161 27.2187 15.9926L27.9462 16.7058L27.7749 17.7123C27.7561 17.8204 27.7679 17.9317 27.8089 18.0334C27.8499 18.1351 27.9184 18.2232 28.0067 18.2876C28.095 18.3521 28.1995 18.3903 28.3083 18.398C28.4172 18.4057 28.526 18.3825 28.6223 18.331L29.5212 17.8557L30.42 18.331C30.5164 18.382 30.625 18.4049 30.7337 18.397C30.8423 18.3892 30.9466 18.3509 31.0347 18.2865C31.1228 18.2221 31.1913 18.1342 31.2323 18.0328C31.2734 17.9313 31.2854 17.8203 31.2669 17.7123L31.0957 16.7056L31.8231 15.9921C31.9016 15.916 31.957 15.8191 31.9831 15.7127C32.0093 15.6062 32.005 15.4946 31.9708 15.3905Z" fill="white"/>
<path d="M11.6349 3.34399C11.7183 3.41471 11.7802 3.50762 11.8135 3.61209C11.8475 3.71642 11.8517 3.82829 11.8254 3.93486C11.7991 4.04144 11.7435 4.13841 11.6649 4.21465L10.9378 4.92776L11.1095 5.93489C11.1279 6.04291 11.1159 6.15395 11.0748 6.25546C11.0338 6.35696 10.9653 6.44488 10.8771 6.50925C10.7889 6.57363 10.6846 6.6119 10.5759 6.61974C10.4672 6.62757 10.3585 6.60466 10.2621 6.55359L9.36325 6.0783L8.46444 6.55359C8.38045 6.59808 8.287 6.62142 8.19209 6.6216C8.10712 6.62133 8.02323 6.60245 7.94625 6.56627C7.86927 6.53009 7.80105 6.47748 7.74633 6.4121C7.69161 6.34671 7.65171 6.27012 7.6294 6.18766C7.60709 6.10519 7.60291 6.01883 7.61714 5.93457L7.78888 4.92748L7.06176 4.21433C6.98371 4.13786 6.92849 4.04094 6.90236 3.93454C6.87623 3.82814 6.88022 3.71651 6.91389 3.61228C6.94755 3.50804 7.00955 3.41537 7.09286 3.34473C7.17618 3.2741 7.27748 3.22833 7.38531 3.2126L8.39051 3.06597L8.83992 2.15011C8.88813 2.05181 8.96272 1.96903 9.05525 1.91114C9.14778 1.85325 9.25457 1.82255 9.36355 1.82251C9.47252 1.82247 9.57933 1.8531 9.6719 1.91093C9.76448 1.96875 9.83912 2.05148 9.8874 2.14974L10.3369 3.06561L11.342 3.21224C11.45 3.22761 11.5515 3.27327 11.6349 3.34399Z" fill="white"/>
<path d="M6.73933 8.4527C6.70598 8.34835 6.64412 8.25555 6.56081 8.18491C6.47751 8.11426 6.37612 8.06862 6.26824 8.05321L5.26304 7.90622L4.81359 6.99035C4.76541 6.89206 4.69086 6.8093 4.59835 6.75141C4.50585 6.69352 4.39909 6.66282 4.29014 6.66278C4.18119 6.66274 4.07441 6.69337 3.98187 6.75119C3.88932 6.80902 3.81471 6.89174 3.76647 6.98999L3.3167 7.90626L2.31191 8.05325C2.20406 8.06901 2.10274 8.1148 2.01943 8.18546C1.93611 8.25612 1.87411 8.34883 1.84044 8.45308C1.80678 8.55734 1.80279 8.66899 1.82893 8.77541C1.85507 8.88183 1.91029 8.97877 1.98835 9.05526L2.71548 9.76841L2.54337 10.7749C2.525 10.883 2.53704 10.994 2.57812 11.0955C2.6192 11.197 2.68769 11.2849 2.77585 11.3493C2.86401 11.4137 2.96832 11.4521 3.07699 11.46C3.18566 11.4678 3.29436 11.445 3.39081 11.394L4.28967 10.9184L5.18885 11.394C5.28523 11.4453 5.39401 11.4683 5.50278 11.4604C5.61154 11.4525 5.71591 11.414 5.80395 11.3493C5.89242 11.2852 5.96113 11.1973 6.0022 11.0957C6.04327 10.9941 6.05503 10.883 6.03614 10.7749L5.8644 9.76818L6.59188 9.05508C6.67027 8.97876 6.72568 8.88177 6.75175 8.77522C6.77783 8.66867 6.77353 8.55689 6.73933 8.4527Z" fill="white"/>
<path d="M25.0316 3.344C25.115 3.41472 25.1769 3.50763 25.2102 3.61209C25.2442 3.71633 25.2484 3.82809 25.2223 3.93462C25.1963 4.04115 25.141 4.13817 25.0627 4.21461L24.3352 4.92772L24.5065 5.93485C24.5249 6.04284 24.5129 6.15386 24.4718 6.25534C24.4308 6.35682 24.3623 6.44471 24.2741 6.50909C24.186 6.57346 24.0817 6.61174 23.973 6.6196C23.8644 6.62745 23.7557 6.60458 23.6593 6.55355L22.7605 6.07826L21.8613 6.55355C21.7649 6.60479 21.6561 6.62783 21.5474 6.62003C21.4386 6.61224 21.3342 6.57394 21.246 6.50947C21.1578 6.445 21.0894 6.35695 21.0484 6.25531C21.0075 6.15368 20.9957 6.04253 21.0143 5.93448L21.1856 4.9274L20.4581 4.21425C20.3802 4.13768 20.3251 4.04072 20.299 3.93431C20.273 3.8279 20.277 3.71628 20.3107 3.61206C20.3444 3.50784 20.4064 3.41517 20.4897 3.34452C20.573 3.27387 20.6743 3.22806 20.7821 3.21224L21.7869 3.06561L22.2363 2.14975C22.2846 2.05141 22.3593 1.96862 22.4519 1.91073C22.5445 1.85284 22.6514 1.82216 22.7604 1.82216C22.8694 1.82216 22.9763 1.85284 23.0689 1.91073C23.1615 1.96862 23.2362 2.05141 23.2845 2.14975L23.7339 3.06561L24.7387 3.21224C24.8467 3.22762 24.9482 3.27328 25.0316 3.344Z" fill="white"/>
<path d="M30.1595 8.59076C30.1263 8.48619 30.0645 8.39316 29.9811 8.32236C29.8977 8.25156 29.7961 8.20587 29.6881 8.19055L28.6829 8.04355L28.2334 7.12729C28.1854 7.02886 28.1109 6.94601 28.0182 6.88821C27.9256 6.83041 27.8187 6.79999 27.7097 6.80043H27.709C27.6001 6.80016 27.4933 6.83074 27.4008 6.88867C27.3083 6.94661 27.2339 7.02955 27.1861 7.12801L26.7363 8.04387L25.7315 8.19087C25.6237 8.20668 25.5224 8.25249 25.4391 8.32314C25.3559 8.39379 25.2939 8.48646 25.2602 8.59068C25.2265 8.6949 25.2224 8.80652 25.2485 8.91293C25.2745 9.01934 25.3297 9.11631 25.4076 9.19287L26.1351 9.90598L25.9638 10.9127C25.9495 10.997 25.9536 11.0834 25.9759 11.1659C25.9981 11.2484 26.038 11.325 26.0927 11.3904C26.1474 11.4558 26.2157 11.5085 26.2927 11.5446C26.3697 11.5808 26.4536 11.5997 26.5386 11.5999C26.6335 11.5997 26.7269 11.5764 26.8109 11.5319L27.7098 11.0562L28.6086 11.5319C28.705 11.5829 28.8137 11.6057 28.9223 11.5978C29.031 11.5899 29.1352 11.5516 29.2234 11.4872C29.3115 11.4228 29.3799 11.3348 29.421 11.2333C29.462 11.1318 29.474 11.0208 29.4555 10.9128L29.2842 9.90606L30.011 9.19333C30.0895 9.11703 30.145 9.02006 30.1713 8.9135C30.1976 8.80694 30.1935 8.6951 30.1595 8.59076Z" fill="white"/>
<path d="M6.29124 22.0601C6.37456 22.1306 6.43644 22.2233 6.46982 22.3276C6.50411 22.4318 6.50848 22.5436 6.48242 22.6502C6.45637 22.7568 6.40094 22.8538 6.32251 22.9302L5.59503 23.6437L5.76677 24.6502C5.78515 24.7582 5.77311 24.8693 5.73203 24.9708C5.69094 25.0723 5.62243 25.1602 5.53426 25.2245C5.44609 25.2889 5.34177 25.3272 5.2331 25.335C5.12443 25.3429 5.01574 25.32 4.91934 25.2689L4.02047 24.7936L3.12166 25.2689C3.02529 25.3204 2.91649 25.3436 2.80766 25.3359C2.69883 25.3282 2.59432 25.29 2.50603 25.2255C2.41773 25.1611 2.3492 25.073 2.30822 24.9713C2.26724 24.8696 2.25546 24.7583 2.27423 24.6502L2.44597 23.6437L1.71884 22.9305C1.64074 22.8541 1.58548 22.7572 1.55932 22.6507C1.53315 22.5443 1.53714 22.4327 1.57081 22.3284C1.60448 22.2242 1.66651 22.1315 1.74985 22.0609C1.8332 21.9902 1.93454 21.9445 2.0424 21.9288L3.0476 21.7814L3.497 20.8656C3.54489 20.7671 3.61937 20.6841 3.71192 20.6262C3.80448 20.5683 3.91137 20.5377 4.02038 20.538C4.12947 20.5376 4.23646 20.5681 4.32909 20.626C4.42173 20.684 4.49625 20.767 4.54412 20.8656L4.99321 21.7814L5.99873 21.9288C6.10655 21.9441 6.20793 21.9896 6.29124 22.0601Z" fill="white"/>
<path d="M30.1595 22.1917C30.1264 22.087 30.0646 21.9939 29.9812 21.923C29.8978 21.8521 29.7962 21.8064 29.6881 21.7911L28.6829 21.6441L28.2334 20.7282C28.1854 20.6298 28.1109 20.5469 28.0183 20.489C27.9257 20.4311 27.8187 20.4007 27.7097 20.401H27.709C27.6001 20.4008 27.4933 20.4314 27.4008 20.4894C27.3084 20.5473 27.234 20.6302 27.1861 20.7286L26.7363 21.6445L25.7311 21.7915C25.6234 21.8073 25.5222 21.8532 25.4389 21.9238C25.3557 21.9945 25.2938 22.0871 25.2602 22.1913C25.2265 22.2955 25.2225 22.407 25.2485 22.5134C25.2746 22.6197 25.3296 22.7167 25.4075 22.7932L26.135 23.5067L25.9637 24.5134C25.945 24.6215 25.9568 24.7328 25.9977 24.8345C26.0387 24.9362 26.1072 25.0243 26.1955 25.0887C26.2838 25.1532 26.3883 25.1914 26.4972 25.1991C26.606 25.2068 26.7148 25.1836 26.8112 25.1321L27.71 24.6568L28.6085 25.1321C28.7049 25.1833 28.8136 25.2062 28.9223 25.1984C29.031 25.1906 29.1354 25.1524 29.2236 25.088C29.3118 25.0236 29.3803 24.9356 29.4214 24.8341C29.4624 24.7325 29.4744 24.6215 29.4559 24.5134L29.2846 23.5067L30.0114 22.7936C30.0898 22.7174 30.1453 22.6205 30.1715 22.514C30.1977 22.4076 30.1936 22.2959 30.1595 22.1917Z" fill="white"/>
<path d="M11.6349 26.5953C11.7183 26.6661 11.7802 26.7591 11.8135 26.8637C11.8476 26.9679 11.8516 27.0798 11.8253 27.1863C11.7989 27.2927 11.7431 27.3896 11.6644 27.4656L10.9376 28.1787L11.1094 29.1855C11.1278 29.2935 11.1158 29.4045 11.0747 29.506C11.0336 29.6075 10.9651 29.6955 10.8769 29.7598C10.7887 29.8242 10.6844 29.8625 10.5757 29.8703C10.467 29.8782 10.3583 29.8552 10.2619 29.8042L9.36313 29.3289L8.46426 29.8042C8.36789 29.8556 8.2591 29.8788 8.15027 29.8711C8.04144 29.8635 7.93693 29.8252 7.84863 29.7608C7.76034 29.6963 7.69181 29.6082 7.65083 29.5065C7.60985 29.4048 7.59807 29.2936 7.61683 29.1855L7.78857 28.1787L7.06145 27.4652C6.98346 27.3888 6.92828 27.2919 6.90216 27.1855C6.87604 27.0792 6.88002 26.9676 6.91364 26.8634C6.94726 26.7592 7.00918 26.6665 7.09242 26.5958C7.17565 26.5252 7.27687 26.4793 7.38465 26.4635L8.39016 26.3165L8.83957 25.4006C8.88777 25.3023 8.96238 25.2195 9.05494 25.1616C9.14749 25.1037 9.25431 25.0731 9.36331 25.0731C9.4723 25.0731 9.57912 25.1037 9.67168 25.1616C9.76423 25.2195 9.83884 25.3023 9.88704 25.4006L10.3365 26.3165L11.3417 26.4635C11.4498 26.4788 11.5514 26.5245 11.6349 26.5953Z" fill="white"/>
<path d="M25.2102 26.8637C25.177 26.7591 25.1152 26.666 25.0318 26.5952C24.9484 26.5244 24.8468 26.4788 24.7387 26.4635L23.7339 26.3165L23.2845 25.4006C23.2362 25.3023 23.1615 25.2195 23.0689 25.1616C22.9763 25.1037 22.8694 25.073 22.7604 25.073C22.6514 25.073 22.5445 25.1037 22.4519 25.1616C22.3593 25.2195 22.2846 25.3023 22.2363 25.4006L21.7869 26.3165L20.7817 26.4635C20.674 26.4793 20.5728 26.5252 20.4895 26.5958C20.4063 26.6665 20.3444 26.7591 20.3107 26.8633C20.2771 26.9675 20.273 27.0791 20.2991 27.1854C20.3252 27.2918 20.3802 27.3887 20.4582 27.4652L21.1856 28.1787L21.0144 29.1855C20.9956 29.2936 21.0074 29.4048 21.0483 29.5065C21.0893 29.6082 21.1579 29.6963 21.2462 29.7608C21.3344 29.8252 21.439 29.8635 21.5478 29.8711C21.6566 29.8788 21.7654 29.8556 21.8618 29.8042L22.7606 29.3289L23.6595 29.8042C23.7559 29.8553 23.8646 29.8782 23.9732 29.8704C24.0819 29.8625 24.1863 29.8243 24.2745 29.7599C24.3626 29.6955 24.4311 29.6076 24.4722 29.5061C24.5133 29.4045 24.5253 29.2935 24.5069 29.1855L24.3356 28.1787L25.0631 27.4652C25.1413 27.3889 25.1965 27.2921 25.2225 27.1857C25.2485 27.0793 25.2443 26.9677 25.2102 26.8637Z" fill="white"/>
<path fill-rule="evenodd" clip-rule="evenodd" d="M16.2922 9.3802L21.1604 11.5565C21.2567 11.5987 21.3386 11.6683 21.3962 11.7566C21.4539 11.8449 21.4847 11.9481 21.485 12.0538V14.39C21.485 18.636 19.9228 21.0179 16.2608 22.3574C16.1415 22.4024 16.0101 22.4024 15.8908 22.3574C12.2288 21.0179 10.6667 18.6338 10.6667 14.39V12.0538C10.6664 11.9489 10.6963 11.8461 10.7527 11.7579C10.8091 11.6697 10.8897 11.5997 10.9847 11.5565L15.853 9.3802C15.9221 9.34931 15.9969 9.33334 16.0726 9.33334C16.1482 9.33334 16.223 9.34931 16.2922 9.3802ZM15.6864 17.6958L18.6365 14.7284C18.6851 14.6832 18.7241 14.6285 18.7512 14.5677C18.7782 14.5069 18.7928 14.4413 18.7941 14.3747C18.7954 14.3081 18.7833 14.2419 18.7585 14.1802C18.7337 14.1184 18.6968 14.0623 18.65 14.0152C18.6032 13.9681 18.5474 13.931 18.486 13.9061C18.4246 13.8812 18.3588 13.869 18.2926 13.8702C18.2264 13.8715 18.1611 13.8862 18.1007 13.9134C18.0402 13.9407 17.9859 13.9799 17.9409 14.0288L15.338 16.6468L14.2108 15.5119C14.1657 15.4631 14.1114 15.4238 14.051 15.3966C13.9905 15.3694 13.9253 15.3547 13.8591 15.3534C13.7929 15.3521 13.7271 15.3643 13.6657 15.3892C13.6042 15.4141 13.5484 15.4512 13.5016 15.4983C13.4548 15.5454 13.4179 15.6015 13.3931 15.6633C13.3684 15.7251 13.3563 15.7913 13.3575 15.8578C13.3588 15.9244 13.3734 15.9901 13.4005 16.0509C13.4276 16.1117 13.4666 16.1663 13.5151 16.2116L14.9907 17.6958C15.0832 17.7883 15.2082 17.8401 15.3386 17.8401C15.4689 17.8401 15.5939 17.7883 15.6864 17.6958Z" fill="white"/>
</svg>
