<svg width="250" height="250" viewBox="0 0 250 250" fill="none" xmlns="http://www.w3.org/2000/svg">
<path d="M211.422 42.4984L50.0338 35.0303C46.3558 34.8601 43.2363 37.7037 43.0661 41.3817L36.3239 187.083C36.1537 190.761 38.9973 193.881 42.6753 194.051L204.064 201.519C207.742 201.689 210.861 198.846 211.031 195.168L217.774 49.4661C217.944 45.7881 215.1 42.6686 211.422 42.4984Z" fill="#D1DAEF"/>
<path d="M187.14 52.8596H32.8597C29.1778 52.8596 26.193 55.8444 26.193 59.5263V213.807C26.193 217.489 29.1778 220.473 32.8597 220.473H187.14C190.822 220.473 193.807 217.489 193.807 213.807V59.5263C193.807 55.8444 190.822 52.8596 187.14 52.8596Z" fill="#00009A"/>
<path d="M122.423 130.41H119.185V124.112C119.211 121.723 118.322 119.414 116.7 117.658C115.078 115.903 112.846 114.835 110.462 114.672C109.219 114.611 107.976 114.803 106.809 115.236C105.642 115.669 104.575 116.335 103.673 117.193C102.771 118.05 102.053 119.082 101.562 120.226C101.07 121.37 100.816 122.601 100.815 123.846V130.41H97.5773C96.8149 130.391 96.076 130.676 95.5232 131.201C94.9703 131.727 94.6486 132.45 94.6287 133.212V154.204C94.6485 154.966 94.9702 155.69 95.5231 156.215C96.076 156.74 96.8148 157.025 97.5773 157.006H122.423C123.185 157.025 123.924 156.74 124.477 156.215C125.03 155.69 125.351 154.966 125.371 154.204V133.212C125.351 132.45 125.03 131.727 124.477 131.201C123.924 130.676 123.185 130.391 122.423 130.41ZM111.328 144.588V147.088C111.329 147.252 111.299 147.415 111.237 147.568C111.175 147.72 111.084 147.859 110.969 147.976C110.853 148.093 110.715 148.186 110.563 148.249C110.412 148.313 110.249 148.345 110.084 148.345C109.92 148.345 109.757 148.313 109.605 148.249C109.454 148.186 109.316 148.093 109.2 147.976C109.085 147.859 108.993 147.72 108.932 147.568C108.87 147.415 108.839 147.252 108.841 147.088V144.653C108.067 144.381 107.413 143.844 106.997 143.136C106.581 142.428 106.428 141.596 106.567 140.787C106.706 139.978 107.127 139.244 107.755 138.715C108.384 138.187 109.179 137.898 110 137.9C110.118 137.9 110.235 137.906 110.353 137.918C111.124 137.994 111.848 138.327 112.408 138.862C112.969 139.398 113.334 140.105 113.446 140.872C113.558 141.639 113.411 142.421 113.027 143.095C112.643 143.768 112.045 144.294 111.328 144.588V144.588ZM103.877 130.41V124.062C103.856 122.484 104.431 120.955 105.488 119.783C106.545 118.61 108.006 117.879 109.579 117.737C110.416 117.68 111.256 117.796 112.047 118.077C112.838 118.358 113.563 118.799 114.176 119.372C114.79 119.944 115.279 120.637 115.614 121.407C115.949 122.176 116.123 123.007 116.124 123.846L116.132 130.41H103.877Z" fill="white"/>
<path d="M119.057 84.4301C118.934 84.0461 118.705 83.7046 118.397 83.4446C118.088 83.1847 117.713 83.0168 117.314 82.9603L113.599 82.42L111.936 79.0533V79.052C111.757 78.691 111.481 78.3872 111.139 78.1749C110.796 77.9626 110.402 77.8502 109.999 77.8505C109.596 77.8507 109.201 77.9637 108.86 78.1764C108.518 78.3892 108.242 78.6934 108.064 79.0546L106.402 82.4213L102.685 82.9616C102.287 83.0197 101.912 83.1881 101.604 83.4478C101.296 83.7076 101.067 84.0483 100.943 84.4315C100.818 84.8147 100.803 85.2251 100.9 85.6162C100.996 86.0074 101.2 86.3637 101.489 86.645L104.178 89.2666L103.543 92.9675C103.475 93.3646 103.519 93.7727 103.671 94.1459C103.823 94.519 104.076 94.8422 104.402 95.0789C104.728 95.3156 105.114 95.4565 105.516 95.4855C105.917 95.5145 106.319 95.4306 106.676 95.2431L110 93.4946L113.323 95.2418C113.68 95.4304 114.082 95.515 114.484 95.486C114.886 95.4569 115.272 95.3154 115.598 95.0775C115.925 94.8421 116.179 94.519 116.331 94.1455C116.483 93.772 116.526 93.3632 116.456 92.9661L115.823 89.2661L118.513 86.6446C118.802 86.364 119.007 86.0074 119.103 85.6157C119.2 85.224 119.184 84.8131 119.057 84.4301Z" fill="#F7B206"/>
<path d="M119.057 184.421C118.934 184.037 118.706 183.695 118.397 183.435C118.089 183.174 117.713 183.006 117.314 182.95L113.599 182.41L111.936 179.043C111.757 178.682 111.481 178.378 111.139 178.165C110.797 177.952 110.402 177.839 109.999 177.839C109.596 177.839 109.201 177.952 108.859 178.165C108.517 178.378 108.241 178.682 108.063 179.043L106.401 182.41L102.683 182.95C102.285 183.008 101.911 183.177 101.603 183.437C101.295 183.696 101.066 184.037 100.942 184.42C100.818 184.803 100.803 185.213 100.9 185.604C100.996 185.995 101.2 186.351 101.488 186.632L104.177 189.255L103.542 192.955C103.472 193.353 103.516 193.761 103.668 194.135C103.819 194.509 104.072 194.833 104.399 195.07C104.725 195.307 105.112 195.447 105.514 195.476C105.917 195.504 106.319 195.419 106.675 195.229L110 193.485L113.323 195.232C113.68 195.419 114.081 195.503 114.483 195.474C114.885 195.445 115.27 195.305 115.596 195.068C115.922 194.831 116.175 194.508 116.327 194.135C116.479 193.762 116.523 193.354 116.455 192.957L115.821 189.257L118.511 186.634C118.801 186.354 119.006 185.998 119.103 185.606C119.199 185.215 119.183 184.804 119.057 184.421Z" fill="#F7B206"/>
<path d="M69.0632 134.425C68.94 134.041 68.7112 133.7 68.4029 133.44C68.0946 133.18 67.7193 133.012 67.32 132.955L63.6033 132.415L61.9415 129.047C61.7627 128.686 61.4866 128.382 61.1443 128.17C60.8019 127.957 60.4071 127.845 60.0043 127.845C59.6014 127.846 59.2067 127.959 58.8647 128.171C58.5227 128.384 58.2469 128.688 58.0687 129.049L56.4068 132.416L52.6902 132.956C52.2915 133.014 51.917 133.183 51.609 133.442C51.301 133.702 51.0718 134.043 50.9473 134.426C50.8228 134.809 50.808 135.219 50.9046 135.61C51.0012 136.001 51.2053 136.358 51.4938 136.639L54.1833 139.262L53.5483 142.962C53.479 143.36 53.5225 143.769 53.674 144.143C53.8255 144.516 54.0789 144.84 54.4054 145.077C54.7319 145.314 55.1183 145.455 55.5207 145.483C55.9231 145.511 56.3253 145.426 56.6817 145.237L60.0052 143.49L63.3285 145.237C63.6849 145.425 64.0868 145.509 64.4887 145.48C64.8906 145.451 65.2764 145.311 65.6024 145.074C65.9285 144.837 66.1818 144.514 66.3336 144.141C66.4855 143.768 66.5299 143.36 66.4618 142.962L65.8295 139.26L68.5167 136.639C68.8065 136.358 69.0114 136.002 69.1081 135.611C69.2047 135.219 69.1892 134.808 69.0632 134.425Z" fill="#F7B206"/>
<path d="M169.052 134.425C168.929 134.041 168.7 133.7 168.392 133.44C168.083 133.18 167.708 133.012 167.309 132.955L163.593 132.415L161.931 129.048C161.752 128.687 161.476 128.383 161.134 128.17C160.792 127.957 160.397 127.844 159.994 127.844C159.591 127.844 159.196 127.957 158.854 128.17C158.512 128.383 158.236 128.687 158.058 129.048L156.395 132.415L152.679 132.955C152.281 133.013 151.906 133.182 151.598 133.442C151.29 133.701 151.061 134.042 150.936 134.425C150.812 134.808 150.797 135.218 150.893 135.61C150.99 136.001 151.193 136.357 151.482 136.639L154.171 139.26L153.538 142.96C153.469 143.358 153.512 143.766 153.664 144.14C153.815 144.514 154.069 144.838 154.395 145.075C154.722 145.312 155.108 145.452 155.51 145.481C155.913 145.509 156.315 145.424 156.671 145.234L159.995 143.487L163.318 145.234C163.675 145.422 164.076 145.506 164.478 145.477C164.88 145.448 165.265 145.307 165.591 145.071C165.917 144.834 166.17 144.511 166.322 144.138C166.473 143.765 166.518 143.357 166.45 142.96L165.816 139.259L168.506 136.637C168.796 136.357 169.001 136.001 169.098 135.61C169.194 135.218 169.178 134.808 169.052 134.425Z" fill="#F7B206"/>
<path d="M94.5215 91.1283C94.3983 90.7443 94.1695 90.4028 93.8612 90.1428C93.5529 89.8829 93.1776 89.715 92.7783 89.6585L89.0617 89.1195L87.3998 85.7528C87.2213 85.3916 86.9453 85.0875 86.6031 84.8749C86.2608 84.6624 85.8658 84.5498 85.4629 84.5499C85.06 84.5501 84.6651 84.6629 84.323 84.8757C83.9809 85.0885 83.7051 85.3928 83.5268 85.7542L81.8652 89.1208L78.1485 89.6598C77.7498 89.7176 77.3752 89.8859 77.0672 90.1455C76.7591 90.4052 76.5299 90.7459 76.4054 91.129C76.2809 91.5122 76.2662 91.9225 76.3628 92.3137C76.4594 92.7048 76.6636 93.061 76.9522 93.3422L79.6407 95.9637L79.0057 99.6657C78.953 99.9754 78.9685 100.293 79.051 100.596C79.1335 100.899 79.281 101.181 79.4834 101.421C79.6857 101.661 79.9379 101.855 80.2225 101.988C80.5072 102.121 80.8173 102.19 81.1315 102.191C81.4824 102.19 81.828 102.105 82.1385 101.941L85.4618 100.194L88.7853 101.941C89.1418 102.129 89.5437 102.213 89.9455 102.184C90.3473 102.156 90.7331 102.015 91.0591 101.778C91.3851 101.542 91.6384 101.218 91.7903 100.845C91.9422 100.472 91.9867 100.064 91.9187 99.6668L91.2837 95.9647L93.9722 93.3433C94.2627 93.0631 94.4683 92.7066 94.5654 92.3148C94.6626 91.9231 94.6474 91.5118 94.5215 91.1283Z" fill="#F7B206"/>
<path d="M75.76 108.922C75.6367 108.539 75.408 108.197 75.0999 107.938C74.7919 107.678 74.417 107.51 74.0182 107.454L70.3015 106.913L68.6397 103.547C68.4615 103.185 68.1859 102.881 67.8438 102.668C67.5018 102.456 67.1071 102.343 66.7042 102.343C66.3014 102.342 65.9066 102.455 65.5644 102.668C65.2222 102.88 64.9464 103.184 64.768 103.545L63.105 106.914L59.3898 107.454C58.9911 107.512 58.6165 107.68 58.3084 107.94C58.0003 108.2 57.7711 108.54 57.6466 108.924C57.5221 109.307 57.5074 109.717 57.604 110.108C57.7007 110.5 57.9049 110.856 58.1935 111.137L60.882 113.759L60.2457 117.459C60.1777 117.856 60.2222 118.264 60.3741 118.637C60.526 119.01 60.7793 119.333 61.1052 119.57C61.4312 119.807 61.8169 119.948 62.2187 119.977C62.6205 120.006 63.0224 119.922 63.379 119.734L66.7025 117.986L70.0272 119.734C70.3835 119.923 70.7858 120.008 71.1879 119.979C71.5901 119.949 71.976 119.808 72.3015 119.57C72.6286 119.334 72.8827 119.011 73.0345 118.638C73.1864 118.264 73.2299 117.856 73.16 117.459L72.525 113.758L75.2148 111.137C75.5046 110.856 75.7095 110.499 75.8059 110.108C75.9024 109.716 75.8864 109.305 75.76 108.922Z" fill="#F7B206"/>
<path d="M144.055 91.1283C143.932 90.7443 143.703 90.4027 143.395 90.1428C143.086 89.8828 142.711 89.715 142.312 89.6585L138.597 89.1195L136.935 85.7528C136.756 85.3913 136.48 85.087 136.138 84.8742C135.795 84.6614 135.4 84.5486 134.997 84.5486C134.594 84.5486 134.199 84.6614 133.856 84.8742C133.514 85.087 133.238 85.3913 133.059 85.7528L131.398 89.1195L127.682 89.6585C127.284 89.7166 126.909 89.885 126.601 90.1447C126.293 90.4044 126.064 90.7451 125.94 91.1282C125.815 91.5113 125.8 91.9216 125.896 92.3127C125.993 92.7039 126.196 93.0603 126.485 93.3418L129.174 95.9633L128.541 99.6653C128.472 100.062 128.516 100.471 128.667 100.845C128.819 101.218 129.072 101.542 129.398 101.779C129.724 102.016 130.11 102.157 130.512 102.185C130.914 102.214 131.316 102.129 131.673 101.941L134.997 100.194L138.321 101.941C138.677 102.129 139.079 102.213 139.481 102.184C139.882 102.155 140.268 102.014 140.594 101.777C140.92 101.541 141.173 101.218 141.325 100.845C141.477 100.472 141.521 100.064 141.453 99.6666L140.82 95.9645L143.51 93.3431C143.799 93.0621 144.004 92.7055 144.1 92.3139C144.196 91.9223 144.181 91.5115 144.055 91.1283Z" fill="#F7B206"/>
<path d="M162.355 109.43C162.232 109.045 162.004 108.703 161.695 108.443C161.387 108.183 161.011 108.015 160.612 107.959L156.895 107.418L155.233 104.05C155.056 103.688 154.78 103.384 154.438 103.171C154.095 102.959 153.7 102.847 153.297 102.849H153.294C152.892 102.848 152.497 102.96 152.155 103.173C151.813 103.386 151.538 103.691 151.361 104.053L149.698 107.419L145.983 107.96C145.584 108.018 145.21 108.186 144.902 108.446C144.594 108.706 144.364 109.046 144.24 109.429C144.115 109.813 144.1 110.223 144.197 110.614C144.293 111.005 144.497 111.362 144.785 111.643L147.475 114.264L146.842 117.965C146.789 118.275 146.804 118.593 146.886 118.896C146.968 119.199 147.116 119.481 147.318 119.721C147.52 119.962 147.773 120.155 148.057 120.288C148.342 120.421 148.652 120.49 148.967 120.491C149.318 120.49 149.663 120.405 149.974 120.241L153.297 118.493L156.621 120.241C156.977 120.429 157.379 120.513 157.781 120.483C158.182 120.454 158.568 120.314 158.894 120.077C159.219 119.84 159.472 119.517 159.624 119.144C159.776 118.771 159.82 118.362 159.752 117.966L159.119 114.265L161.806 111.645C162.096 111.364 162.301 111.008 162.399 110.616C162.496 110.224 162.481 109.813 162.355 109.43Z" fill="#F7B206"/>
<path d="M74.7635 159.926C74.6401 159.542 74.4113 159.202 74.1032 158.942C73.7952 158.683 73.4204 158.516 73.0217 158.46L69.3038 157.918L67.6433 154.551C67.4663 154.189 67.1908 153.884 66.8483 153.671C66.5058 153.458 66.1102 153.346 65.7068 153.347C65.3038 153.346 64.9085 153.458 64.5663 153.671C64.2241 153.884 63.9487 154.189 63.7717 154.551L62.11 157.918L58.3933 158.46C57.9945 158.517 57.6198 158.685 57.3117 158.945C57.0035 159.205 56.7742 159.545 56.6497 159.929C56.5252 160.312 56.5104 160.722 56.6072 161.114C56.7039 161.505 56.9082 161.861 57.197 162.142L59.8855 164.764L59.2505 168.464C59.1811 168.861 59.2247 169.27 59.3762 169.644C59.5277 170.017 59.7811 170.341 60.1076 170.578C60.434 170.815 60.8205 170.956 61.2229 170.984C61.6253 171.012 62.0275 170.927 62.3838 170.738L65.7072 168.991L69.0307 170.738C69.3871 170.926 69.789 171.01 70.1908 170.981C70.5926 170.952 70.9783 170.811 71.3043 170.575C71.6303 170.338 71.8836 170.015 72.0356 169.642C72.1875 169.269 72.232 168.861 72.164 168.464L71.529 164.764L74.2188 162.141C74.5088 161.86 74.7138 161.503 74.8101 161.112C74.9065 160.72 74.8903 160.309 74.7635 159.926Z" fill="#F7B206"/>
<path d="M162.355 159.426C162.233 159.041 162.004 158.699 161.696 158.438C161.387 158.178 161.012 158.01 160.612 157.953L156.895 157.413L155.233 154.046C155.056 153.685 154.78 153.38 154.438 153.167C154.095 152.954 153.7 152.842 153.297 152.844H153.294C152.892 152.843 152.497 152.955 152.155 153.168C151.813 153.381 151.538 153.686 151.361 154.048L149.698 157.414L145.981 157.955C145.583 158.013 145.209 158.182 144.901 158.441C144.593 158.701 144.364 159.042 144.24 159.425C144.115 159.808 144.101 160.218 144.197 160.609C144.293 161 144.497 161.356 144.785 161.637L147.475 164.26L146.841 167.961C146.772 168.358 146.816 168.767 146.967 169.141C147.119 169.515 147.372 169.838 147.698 170.075C148.025 170.312 148.411 170.453 148.814 170.481C149.216 170.509 149.618 170.424 149.975 170.235L153.298 168.488L156.62 170.235C156.977 170.423 157.379 170.507 157.781 170.479C158.182 170.45 158.568 170.309 158.894 170.073C159.221 169.836 159.474 169.513 159.626 169.139C159.778 168.766 159.822 168.358 159.754 167.961L159.12 164.26L161.807 161.638C162.097 161.358 162.302 161.002 162.399 160.611C162.496 160.22 162.481 159.809 162.355 159.426Z" fill="#F7B206"/>
<path d="M94.5215 176.6C94.3985 176.216 94.1695 175.874 93.861 175.613C93.5524 175.353 93.1767 175.185 92.777 175.129L89.0603 174.589L87.3985 171.222C87.2203 170.861 86.9444 170.556 86.6022 170.343C86.26 170.131 85.865 170.018 85.462 170.018C85.059 170.018 84.664 170.131 84.3218 170.343C83.9796 170.556 83.7037 170.861 83.5255 171.222L81.8638 174.589L78.146 175.129C77.7475 175.187 77.3732 175.356 77.0655 175.615C76.7577 175.875 76.5288 176.216 76.4045 176.599C76.2802 176.982 76.2655 177.392 76.362 177.783C76.4586 178.174 76.6626 178.53 76.951 178.811L79.6395 181.434L79.0045 185.135C78.9351 185.532 78.9787 185.941 79.1302 186.315C79.2817 186.689 79.5351 187.013 79.8616 187.25C80.188 187.487 80.5745 187.627 80.9769 187.655C81.3793 187.684 81.7815 187.598 82.1378 187.409L85.4613 185.662L88.7847 187.409C89.1411 187.597 89.543 187.681 89.9448 187.652C90.3467 187.624 90.7324 187.483 91.0584 187.246C91.3845 187.01 91.6378 186.686 91.7897 186.313C91.9416 185.94 91.986 185.532 91.918 185.135L91.283 181.434L93.9702 178.813C94.2612 178.533 94.4674 178.177 94.5649 177.786C94.6625 177.394 94.6474 176.983 94.5215 176.6Z" fill="#F7B206"/>
<path d="M144.055 176.6C143.932 176.216 143.704 175.873 143.395 175.613C143.087 175.353 142.711 175.185 142.312 175.129L138.597 174.589L136.935 171.222C136.756 170.861 136.48 170.556 136.138 170.343C135.795 170.131 135.4 170.018 134.997 170.018C134.594 170.018 134.199 170.131 133.856 170.343C133.514 170.556 133.238 170.861 133.059 171.222L131.398 174.589L127.681 175.129C127.283 175.187 126.908 175.356 126.601 175.616C126.293 175.875 126.064 176.216 125.94 176.599C125.815 176.982 125.8 177.392 125.897 177.783C125.993 178.174 126.197 178.53 126.485 178.811L129.174 181.434L128.541 185.135C128.472 185.532 128.515 185.941 128.667 186.315C128.818 186.689 129.072 187.013 129.398 187.25C129.725 187.487 130.111 187.627 130.514 187.655C130.916 187.684 131.318 187.598 131.674 187.409L134.998 185.662L138.321 187.409C138.678 187.597 139.08 187.681 139.482 187.652C139.883 187.624 140.269 187.483 140.595 187.246C140.921 187.01 141.175 186.687 141.326 186.313C141.478 185.94 141.523 185.532 141.455 185.135L140.821 181.434L143.511 178.811C143.8 178.531 144.005 178.175 144.101 177.784C144.197 177.393 144.181 176.983 144.055 176.6Z" fill="#F7B206"/>
<path d="M163.972 30.4085C161.287 30.3127 158.668 31.252 156.655 33.0324C154.643 34.8128 153.391 37.2982 153.159 39.9752C153.179 39.9739 156.971 40.1669 157.015 40.1719C157.237 38.4838 158.096 36.9444 159.416 35.8685C160.735 34.7926 162.416 34.2613 164.114 34.3835C165.812 34.5056 167.4 35.2719 168.552 36.5256C169.704 37.7793 170.333 39.4257 170.312 41.1282L169.648 61.2084C169.634 61.7124 169.521 62.2087 169.316 62.669C169.11 63.1292 168.815 63.5443 168.448 63.8903C168.082 64.2363 167.65 64.5065 167.179 64.6853C166.707 64.8641 166.205 64.948 165.701 64.9323C165.197 64.9165 164.702 64.8013 164.242 64.5933C163.783 64.3854 163.369 64.0887 163.025 63.7205C162.681 63.3522 162.412 62.9195 162.236 62.4473C162.059 61.975 161.978 61.4726 161.996 60.9687L162.539 44.5532C162.583 43.4899 164.495 43.5532 164.46 44.6072L163.99 59.1095C163.988 59.148 163.986 59.1865 163.986 59.2247C163.983 59.4773 164.031 59.7279 164.125 59.9622C164.22 60.1965 164.36 60.4097 164.537 60.5895C164.714 60.7694 164.926 60.9123 165.159 61.0101C165.391 61.1078 165.641 61.1585 165.894 61.1591C166.147 61.1597 166.397 61.1103 166.63 61.0137C166.864 60.917 167.076 60.7751 167.254 60.5961C167.432 60.4172 167.573 60.2046 167.669 59.9708C167.764 59.7371 167.813 59.4866 167.811 59.234L167.805 59.1914L168.277 44.9034C168.301 44.2742 168.2 43.6465 167.98 43.0565C167.761 42.4664 167.426 41.9255 166.997 41.4649C166.568 41.0042 166.052 40.6329 165.479 40.3722C164.906 40.1115 164.287 39.9666 163.658 39.9457C163.028 39.9249 162.401 40.0285 161.812 40.2507C161.223 40.4729 160.683 40.8093 160.225 41.2405C159.766 41.6717 159.397 42.1893 159.138 42.7635C158.88 43.3378 158.738 43.9573 158.72 44.5867L158.182 60.8437C158.115 62.8715 158.856 64.843 160.243 66.3243C161.629 67.8057 163.547 68.6755 165.575 68.7426C167.603 68.8097 169.575 68.0685 171.056 66.682C172.537 65.2955 173.407 63.3774 173.474 61.3495L174.138 41.2694C174.184 39.8888 173.957 38.5127 173.471 37.2197C172.985 35.9267 172.249 34.7421 171.305 33.7336C170.361 32.7251 169.227 31.9123 167.969 31.3418C166.711 30.7713 165.353 30.4542 163.972 30.4085Z" fill="#93A1BC"/>
</svg>
