<svg width="28" height="28" viewBox="0 0 28 28" fill="none" xmlns="http://www.w3.org/2000/svg">
<rect x="0.5" y="0.5" width="27" height="27" rx="3.5" fill="#F8933C"/>
<rect x="0.5" y="0.5" width="27" height="27" rx="3.5" stroke="#F8933C"/>
<path d="M21.5 17.125V8.375C21.5 7.87772 21.3025 7.40081 20.9508 7.04917C20.5992 6.69754 20.1223 6.5 19.625 6.5H8.375C7.87772 6.5 7.40081 6.69754 7.04917 7.04917C6.69754 7.40081 6.5 7.87772 6.5 8.375V19.625C6.5 20.1223 6.69754 20.5992 7.04917 20.9508C7.40081 21.3025 7.87772 21.5 8.375 21.5H17.1875C17.2695 21.501 17.3507 21.4848 17.4261 21.4525C17.5014 21.4202 17.5692 21.3725 17.625 21.3125L21.3125 17.5625C21.3488 17.5216 21.3784 17.4752 21.4 17.425C21.4641 17.338 21.4991 17.233 21.5 17.125ZM7.75 19.625V8.375C7.75 8.20924 7.81585 8.05027 7.93306 7.93306C8.05027 7.81585 8.20924 7.75 8.375 7.75H19.625C19.7908 7.75 19.9497 7.81585 20.0669 7.93306C20.1842 8.05027 20.25 8.20924 20.25 8.375V16.5H17.125C16.9592 16.5 16.8003 16.5658 16.6831 16.6831C16.5658 16.8003 16.5 16.9592 16.5 17.125V20.25H8.375C8.20924 20.25 8.05027 20.1842 7.93306 20.0669C7.81585 19.9497 7.75 19.7908 7.75 19.625ZM19.3875 17.75L17.75 19.4125V17.75H19.3875Z" fill="white"/>
<path d="M14.625 14.625H16.5C16.6658 14.625 16.8247 14.5592 16.9419 14.4419C17.0592 14.3247 17.125 14.1658 17.125 14C17.125 13.8342 17.0592 13.6753 16.9419 13.5581C16.8247 13.4408 16.6658 13.375 16.5 13.375H14.625V11.5C14.625 11.3342 14.5592 11.1753 14.4419 11.0581C14.3247 10.9408 14.1658 10.875 14 10.875C13.8342 10.875 13.6753 10.9408 13.5581 11.0581C13.4408 11.1753 13.375 11.3342 13.375 11.5V13.375H11.5C11.3342 13.375 11.1753 13.4408 11.0581 13.5581C10.9408 13.6753 10.875 13.8342 10.875 14C10.875 14.1658 10.9408 14.3247 11.0581 14.4419C11.1753 14.5592 11.3342 14.625 11.5 14.625H13.375V16.5C13.375 16.6658 13.4408 16.8247 13.5581 16.9419C13.6753 17.0592 13.8342 17.125 14 17.125C14.1658 17.125 14.3247 17.0592 14.4419 16.9419C14.5592 16.8247 14.625 16.6658 14.625 16.5V14.625Z" fill="white"/>
</svg>
