<?xml version="1.0" encoding="utf-8"?>
<!-- Generator: Adobe Illustrator 24.0.2, SVG Export Plug-In . SVG Version: 6.00 Build 0)  -->
<svg version="1.1" id="Layer_1" xmlns="http://www.w3.org/2000/svg" xmlns:xlink="http://www.w3.org/1999/xlink" x="0px" y="0px"
	 viewBox="0 0 64 64" style="enable-background:new 0 0 64 64;" xml:space="preserve">
<style type="text/css">
	.st0{fill:#767676;}
	.st1{fill:#CDCDCD;}
	.st2{fill:#4F5065;}
	.st3{fill:#FFFFFF;}
</style>
<g>
	<path class="st0" d="M49.2,56L8.8,51.5l11.7-35.7l39.3,7.7L49.2,56z"/>
	<path class="st1" d="M53.3,26.2l-23.4-2.6l-1-4.1l-18.6-2.7l-1.7,4.5l-2.4,30l43,4.8L53.3,26.2z"/>
	<path class="st1" d="M31.5,7.5l-2.3,0.2l0.8,6.4l1.2,0.1L31.5,7.5z"/>
	<path class="st1" d="M47,12.1l-1.9-1.3l-3.3,5.5l0.8,0.8L47,12.1z"/>
	<path class="st1" d="M39.5,6.1l-2.2-0.2l-0.9,5.8l1.2,0.1L39.5,6.1z"/>
	<path class="st2" d="M52.9,55.7l-5.7-9.5c-0.1-0.3-0.3-0.5-0.6-0.6c-0.2-0.1-0.5-0.2-0.8-0.2c-0.3,0-0.6,0.1-0.8,0.2
		c-0.2,0.1-0.5,0.4-0.6,0.6l-5.7,9.5c-0.1,0.2-0.2,0.5-0.2,0.8c0,0.3,0.1,0.5,0.2,0.8c0.1,0.2,0.3,0.4,0.6,0.6
		c0.2,0.1,0.5,0.2,0.8,0.2h11.4c0.3,0,0.5-0.1,0.8-0.2c0.2-0.1,0.4-0.3,0.6-0.6c0.1-0.2,0.2-0.5,0.2-0.8
		C53.1,56.2,53.1,56,52.9,55.7z"/>
	<path class="st3" d="M45.9,56c-0.1,0-0.3,0-0.4-0.1c-0.1-0.1-0.2-0.2-0.2-0.3c0-0.1-0.1-0.2,0-0.4c0-0.1,0.1-0.2,0.2-0.3
		c0.1-0.1,0.2-0.2,0.3-0.2c0.1,0,0.3,0,0.4,0c0.1,0,0.2,0.1,0.3,0.2c0.1,0.1,0.1,0.2,0.1,0.4c0,0.2-0.1,0.3-0.2,0.5
		C46.2,55.9,46,56,45.9,56z"/>
	<path class="st3" d="M46.5,52.9c0,0.2-0.1,0.3-0.2,0.5c-0.1,0.1-0.3,0.2-0.5,0.2c-0.2,0-0.3-0.1-0.5-0.2c-0.1-0.1-0.2-0.3-0.2-0.5
		V50c0-0.2,0.1-0.3,0.2-0.5c0.1-0.1,0.3-0.2,0.5-0.2c0.2,0,0.3,0.1,0.5,0.2c0.1,0.1,0.2,0.3,0.2,0.5V52.9z"/>
</g>
</svg>
