<svg id="Layer_1" data-name="Layer 1" xmlns="http://www.w3.org/2000/svg" viewBox="0 0 400 400"><defs><style>.cls-1{fill:#470faa;}</style></defs><title>SCF-logogram-colored</title><path class="cls-1" d="M319.79,146.21c-13.85-.6-24.31,10.81-24,22.73-.35,12.83,10.22,22.59,21.57,23.14a23,23,0,1,0,2.46-45.87Zm-1.17,32a9,9,0,1,1,9.06-9A9.25,9.25,0,0,1,318.62,178.19Z"/><path class="cls-1" d="M268.34,151.56a32.43,32.43,0,0,0,34.1-30.28c1-20.17-15.17-33.57-30.64-34.25-19.49-.85-34.21,15.21-33.82,32C237.49,137.06,252.36,150.79,268.34,151.56Zm1.9-49.66a17.41,17.41,0,1,1-17.46,17.36A17.84,17.84,0,0,1,270.24,101.9Z"/><path class="cls-1" d="M118,204.07a8.48,8.48,0,0,0-10.92-1.7,9.42,9.42,0,0,0-2.14,1.79A13.62,13.62,0,0,0,102,209.1c-2,6.09-1.54,11.87,2.87,17,3.61,4.19,9.38,4.08,13.17-.06a14.33,14.33,0,0,0,3.82-10.89A14.39,14.39,0,0,0,118,204.07Zm-4.4,17.17a5.85,5.85,0,0,1-3.8,2.14,5.2,5.2,0,0,1-3.54-2l0-.05a10.13,10.13,0,0,1-.45-10.5,9.6,9.6,0,0,1,.54-.92,5.24,5.24,0,0,1,3.55-1.89,5.32,5.32,0,0,1,3.52,1.88C116.11,213.59,116.05,217.48,113.57,221.24Z"/><path class="cls-1" d="M263.44,204.16a9.59,9.59,0,0,0-2.13-1.79,8.47,8.47,0,0,0-10.92,1.7,14.4,14.4,0,0,0-3.94,11.06A14.33,14.33,0,0,0,250.27,226c3.8,4.14,9.57,4.25,13.18.06,4.41-5.11,4.89-10.89,2.87-17A13.79,13.79,0,0,0,263.44,204.16Zm-1.28,17.15,0,.05a5.22,5.22,0,0,1-3.55,2,5.88,5.88,0,0,1-3.8-2.14c-2.48-3.76-2.53-7.65.22-11.36a5.32,5.32,0,0,1,3.52-1.88,5.22,5.22,0,0,1,3.55,1.89c.2.3.38.61.55.92A10.13,10.13,0,0,1,262.16,221.31Z"/><circle class="cls-1" cx="324.29" cy="124.78" r="8.42"/><path class="cls-1" d="M292.16,283.9a69.27,69.27,0,0,1-13-22.48,2.16,2.16,0,0,1,.31-2.49c.47-.53,1.6-1.62,2.06-2.16a57.31,57.31,0,0,0,14.08-32.51,55.86,55.86,0,0,0-1.75-20.69,57.16,57.16,0,0,0-20-30,55.28,55.28,0,0,0-34.64-12.3q-53.92-.24-107.86,0a71.13,71.13,0,0,0-13.25,1.33,54.25,54.25,0,0,0-33.05,20.35c-10.56,13.46-14.53,28.8-11.59,45.81a56,56,0,0,0,15.37,30,2.13,2.13,0,0,1,.38,2.65c-4.08,11.16-10.72,20.68-18.83,29.21-3.41,3.59-9.73,10.07-13.59,14a1.39,1.39,0,0,0,1.3,2.34c2.56-.56,5.62-1.25,7.66-1.74,6.81-1.63,13.68-3.05,20.38-5.07,11.41-3.44,21.63-9.3,31.19-16.35,1.3-1,2.5-2.49,3.92-2.73s3,.84,4.53,1.35c.08,0,.12.16.32.44l-14.63,15.2a.69.69,0,0,0,.9,1.05c5.69-4,14.12-10,19.16-13.66.46-.34,1.14-.78,1.61-.68,3,.64,6,1.42,8.94,2.16l-1.83,8.71a.7.7,0,0,0,1.29.5,73.58,73.58,0,0,0,3.61-6.93c.71-1.54,1.68-1.6,3-1.47,7.41.79,14.8,1.86,22.23,2.27a202.76,202.76,0,0,0,29.88-.25c7.45-.68,14.91-1.3,22.6-2,1.06,2,2.88,5.3,4.34,7.89a.7.7,0,0,0,1.29-.5l-1.78-8.38c2.73-.61,5.35-1.28,8-1.75a3.64,3.64,0,0,1,2.55.41c5,3.6,13.44,9.57,19.14,13.6a.7.7,0,0,0,.9-1.07l-14.84-15.41a29.72,29.72,0,0,0,3.33-1.42,1.53,1.53,0,0,1,2,.25c1.72,1.4,3.52,2.72,5.33,4,10.61,7.53,22,13.45,34.71,16.62,6.19,1.55,16.86,3.69,22.9,4.87a1.4,1.4,0,0,0,1.26-2.36C306.89,299.42,297,289.46,292.16,283.9Zm-147.6-9.4a280.93,280.93,0,0,1,79.41,0A203.87,203.87,0,0,1,144.56,274.5Zm125.3-30.42c-1.47-1.26-4-3.72-5.66-5.42a1.41,1.41,0,0,0-2.37.69,26.62,26.62,0,0,0-.59,8.82,78.37,78.37,0,0,0,4.5,19.81c1.35,3.55,3,7,4.7,10.76-1.15-.67-2.12-1.19-3.06-1.78a111.25,111.25,0,0,1-19-14.74,6.39,6.39,0,0,1-2-5.06,1.4,1.4,0,0,0-2-1.25c-2.47,1.26-5,2.56-7.56,3.91-2.16,1.15-4.36.47-6.53.27-3.7-.36-7.38-.93-11.08-1.3-6.09-.6-12.19-1.24-18.3-1.63-4.91-.31-9.85-.38-14.78-.37-6,0-12.11,0-18.14.36s-12.33,1-18.48,1.63c-4.74.48-9.47,1.18-14.22,1.66-3.5.36-6.44-1.37-9.35-3a26.48,26.48,0,0,1-2.51-1.59,1.4,1.4,0,0,0-2.2,1.11c-.17,3.57-1.94,6.42-5.08,8.86-5.8,4.5-11.55,9-18.19,12.77a8,8,0,0,1,.39-1.13,88.43,88.43,0,0,0,6.92-18.05c1.07-4.15,2.29-8.22,2.19-12.54a12.27,12.27,0,0,0-.24-2,1.4,1.4,0,0,0-2.28-.8l-4.16,3.43c-.85.7-1.54.57-2.29-.27a40.93,40.93,0,0,1-9.83-18.62c-2.9-12.85-.61-24.74,7.27-35.32A40.28,40.28,0,0,1,121.82,177a66.69,66.69,0,0,1,11.64-1q51.58-.12,103.16,0c10.12,0,19.42,2.62,27.53,8.9a42.63,42.63,0,0,1,8.78,58.62C271.68,245.31,271.5,245.47,269.86,244.08Z"/></svg>