<svg width="250" height="250" viewBox="0 0 250 250" fill="none" xmlns="http://www.w3.org/2000/svg">
<path d="M163.048 204.412H86.9517L92.9883 163.172H157.012L163.048 204.412Z" fill="#7B7C7C"/>
<path d="M190.365 202.302H59.635C57.2593 202.302 55.3333 204.228 55.3333 206.603C55.3333 208.979 57.2593 210.905 59.635 210.905H190.365C192.741 210.905 194.667 208.979 194.667 206.603C194.667 204.228 192.741 202.302 190.365 202.302Z" fill="#969696"/>
<path d="M214.873 58.0951C214.847 56.4632 214.174 54.9086 213.001 53.7731C211.829 52.6376 210.254 52.0142 208.622 52.0401H41.3783C39.7464 52.0142 38.1711 52.6376 36.9987 53.7731C35.8264 54.9086 35.153 56.4632 35.1267 58.0951V163.87H214.873V58.0951Z" fill="#3F3F3F"/>
<path d="M41.3783 184.863H208.622C210.298 184.845 211.899 184.16 213.071 182.961C214.244 181.762 214.892 180.147 214.873 178.47V163.87H35.1267V178.47C35.108 180.147 35.7561 181.762 36.9285 182.961C38.1009 184.16 39.7015 184.845 41.3783 184.863Z" fill="#969696"/>
<path d="M43.3583 157.513H206.642C206.824 157.511 207.003 157.473 207.171 157.402C207.338 157.33 207.49 157.227 207.617 157.096C207.744 156.966 207.844 156.812 207.911 156.643C207.979 156.474 208.012 156.294 208.01 156.112V63.5399C208.012 63.3581 207.979 63.1776 207.911 63.0088C207.843 62.8401 207.743 62.6863 207.616 62.5562C207.489 62.4262 207.338 62.3225 207.17 62.2511C207.003 62.1796 206.823 62.1419 206.642 62.1399H43.3583C43.1765 62.1419 42.9969 62.1796 42.8297 62.2511C42.6625 62.3225 42.511 62.4262 42.3839 62.5562C42.2569 62.6863 42.1567 62.8401 42.0891 63.0088C42.0215 63.1776 41.9878 63.3581 41.99 63.5399V156.112C41.9876 156.294 42.0211 156.474 42.0886 156.643C42.1561 156.812 42.2562 156.966 42.3834 157.096C42.5105 157.227 42.662 157.33 42.8293 157.402C42.9966 157.473 43.1764 157.511 43.3583 157.513Z" fill="#BECAEA"/>
<path d="M124.81 177.115C126.147 177.115 127.23 176.031 127.23 174.695C127.23 173.358 126.147 172.275 124.81 172.275C123.473 172.275 122.39 173.358 122.39 174.695C122.39 176.031 123.473 177.115 124.81 177.115Z" fill="#AFAFAF"/>
<path d="M52.3083 73.0666C53.3899 73.0666 54.2667 72.1898 54.2667 71.1082C54.2667 70.0267 53.3899 69.1499 52.3083 69.1499C51.2268 69.1499 50.35 70.0267 50.35 71.1082C50.35 72.1898 51.2268 73.0666 52.3083 73.0666Z" fill="white"/>
<path d="M58.6033 73.0666C59.6849 73.0666 60.5617 72.1898 60.5617 71.1082C60.5617 70.0267 59.6849 69.1499 58.6033 69.1499C57.5218 69.1499 56.645 70.0267 56.645 71.1082C56.645 72.1898 57.5218 73.0666 58.6033 73.0666Z" fill="white"/>
<path d="M64.8983 73.0666C65.9799 73.0666 66.8567 72.1898 66.8567 71.1082C66.8567 70.0267 65.9799 69.1499 64.8983 69.1499C63.8168 69.1499 62.94 70.0267 62.94 71.1082C62.94 72.1898 63.8168 73.0666 64.8983 73.0666Z" fill="white"/>
<path d="M143.463 95.1017L141.895 95.21C141.703 94.5345 141.383 93.9023 140.952 93.3483L142.213 92.085C142.513 91.7868 142.752 91.4322 142.914 91.0417C143.077 90.6511 143.16 90.2322 143.16 89.8092C143.16 89.3861 143.077 88.9673 142.914 88.5767C142.752 88.1861 142.513 87.8315 142.213 87.5333L138.905 84.2233C138.607 83.9234 138.253 83.6852 137.863 83.5224C137.473 83.3597 137.054 83.2756 136.632 83.275C136.209 83.2743 135.79 83.3575 135.4 83.5197C135.009 83.6819 134.655 83.9199 134.357 84.22L133.322 85.4083C132.709 85.0658 132.036 84.843 131.34 84.7517V82.9717C131.34 82.1174 131 81.2982 130.396 80.6941C129.792 80.09 128.973 79.7504 128.118 79.75H123.435C122.581 79.7509 121.762 80.0906 121.158 80.6947C120.555 81.2987 120.215 82.1177 120.215 82.9717L120.325 84.54C119.649 84.7306 119.016 85.051 118.462 85.4833L117.2 84.22C116.587 83.6335 115.771 83.3062 114.922 83.3062C114.074 83.3062 113.258 83.6335 112.645 84.22L109.333 87.53C108.73 88.1344 108.391 88.9535 108.391 89.8075C108.391 90.6615 108.73 91.4807 109.333 92.085L110.527 93.1117C110.178 93.7258 109.952 94.4015 109.86 95.1017H108.077C107.224 95.103 106.406 95.4425 105.802 96.0458C105.199 96.649 104.86 97.4669 104.858 98.32V103C104.859 103.853 105.199 104.672 105.802 105.275C106.405 105.879 107.223 106.219 108.077 106.22L109.645 106.102C109.834 106.782 110.155 107.418 110.59 107.973L109.325 109.237C108.723 109.841 108.384 110.659 108.384 111.513C108.384 112.366 108.723 113.184 109.325 113.788L112.635 117.102C113.248 117.688 114.064 118.015 114.913 118.015C115.761 118.015 116.577 117.688 117.19 117.102L118.223 115.912C118.837 116.255 119.51 116.478 120.207 116.568V118.35C120.207 119.204 120.546 120.023 121.15 120.627C121.754 121.231 122.573 121.571 123.427 121.572H128.11C128.963 121.572 129.782 121.233 130.386 120.631C130.991 120.028 131.331 119.21 131.333 118.357L131.225 116.788C131.9 116.596 132.532 116.276 133.087 115.845L134.35 117.108C134.648 117.408 135.002 117.646 135.393 117.809C135.783 117.971 136.202 118.054 136.625 118.053C137.047 118.053 137.465 117.969 137.854 117.807C138.244 117.645 138.597 117.407 138.895 117.108L142.203 113.798C142.504 113.5 142.742 113.145 142.905 112.754C143.068 112.364 143.152 111.944 143.152 111.521C143.152 111.097 143.068 110.678 142.905 110.287C142.742 109.896 142.504 109.542 142.203 109.243L141.015 108.208C141.358 107.596 141.581 106.923 141.672 106.227H143.453C143.878 106.228 144.298 106.145 144.69 105.983C145.082 105.822 145.439 105.584 145.739 105.284C146.039 104.985 146.277 104.628 146.44 104.236C146.602 103.844 146.685 103.424 146.685 103V98.32C146.684 97.4663 146.344 96.6479 145.74 96.0446C145.136 95.4412 144.317 95.1021 143.463 95.1017ZM125.77 109.283C124.065 109.283 122.398 108.778 120.981 107.83C119.563 106.883 118.458 105.537 117.806 103.961C117.154 102.386 116.983 100.653 117.316 98.9804C117.649 97.3082 118.47 95.7723 119.676 94.5669C120.882 93.3615 122.418 92.5408 124.09 92.2086C125.763 91.8763 127.496 92.0475 129.071 92.7005C130.646 93.3534 131.992 94.4588 132.939 95.8767C133.886 97.2947 134.391 98.9617 134.39 100.667C134.387 102.952 133.478 105.142 131.862 106.757C130.246 108.373 128.055 109.281 125.77 109.283Z" fill="#8D9EC4"/>
<path d="M164.167 112.633L163.383 112.687C163.288 112.349 163.127 112.033 162.912 111.757L163.542 111.125C163.692 110.976 163.811 110.798 163.892 110.603C163.973 110.408 164.015 110.198 164.015 109.987C164.015 109.775 163.973 109.566 163.892 109.37C163.811 109.175 163.692 108.997 163.542 108.848L161.888 107.195C161.74 107.045 161.563 106.925 161.367 106.844C161.172 106.762 160.963 106.72 160.752 106.72C160.54 106.72 160.331 106.761 160.135 106.842C159.94 106.923 159.763 107.042 159.613 107.192L159.097 107.787C158.79 107.613 158.454 107.5 158.105 107.453V106.563C158.105 106.136 157.935 105.727 157.633 105.425C157.331 105.123 156.922 104.953 156.495 104.952H154.142C153.715 104.953 153.305 105.123 153.004 105.425C152.702 105.727 152.532 106.136 152.532 106.563L152.587 107.347C152.249 107.442 151.932 107.602 151.655 107.818L151.025 107.187C150.718 106.894 150.31 106.73 149.886 106.73C149.462 106.73 149.054 106.894 148.747 107.187L147.092 108.842C146.79 109.144 146.62 109.554 146.62 109.981C146.62 110.408 146.79 110.818 147.092 111.12L147.688 111.633C147.513 111.942 147.399 112.281 147.355 112.633H146.467C146.04 112.633 145.631 112.803 145.329 113.104C145.027 113.406 144.857 113.815 144.857 114.242V116.585C144.857 117.012 145.027 117.421 145.329 117.723C145.631 118.025 146.04 118.195 146.467 118.195L147.25 118.137C147.344 118.477 147.505 118.795 147.723 119.072L147.09 119.703C146.789 120.005 146.619 120.414 146.619 120.841C146.619 121.267 146.789 121.676 147.09 121.978L148.745 123.635C149.051 123.929 149.459 124.092 149.883 124.092C150.308 124.092 150.715 123.929 151.022 123.635L151.538 123.042C151.845 123.215 152.181 123.328 152.53 123.375V124.265C152.53 124.692 152.7 125.101 153.002 125.404C153.304 125.706 153.713 125.876 154.14 125.877H156.483C156.91 125.876 157.32 125.706 157.621 125.404C157.923 125.101 158.093 124.692 158.093 124.265L158.04 123.48C158.378 123.385 158.694 123.225 158.97 123.008L159.602 123.64C159.751 123.79 159.928 123.91 160.123 123.991C160.319 124.072 160.528 124.114 160.74 124.113C160.951 124.113 161.16 124.071 161.355 123.99C161.55 123.909 161.726 123.79 161.875 123.64L163.528 121.985C163.679 121.836 163.798 121.659 163.879 121.463C163.961 121.268 164.003 121.058 164.003 120.847C164.003 120.635 163.961 120.425 163.879 120.23C163.798 120.035 163.679 119.857 163.528 119.708L162.935 119.192C163.108 118.885 163.222 118.549 163.268 118.2H164.167C164.594 118.2 165.003 118.03 165.305 117.728C165.607 117.426 165.777 117.017 165.778 116.59V114.242C165.777 113.815 165.607 113.406 165.305 113.104C165.003 112.803 164.594 112.633 164.167 112.633ZM155.322 119.723C154.469 119.724 153.636 119.471 152.927 118.998C152.218 118.524 151.665 117.851 151.339 117.064C151.012 116.276 150.926 115.41 151.093 114.574C151.259 113.737 151.669 112.969 152.272 112.366C152.874 111.763 153.642 111.353 154.479 111.186C155.315 111.02 156.181 111.105 156.969 111.431C157.757 111.757 158.43 112.31 158.904 113.019C159.377 113.727 159.63 114.561 159.63 115.413C159.629 116.557 159.173 117.654 158.364 118.462C157.554 119.27 156.457 119.724 155.313 119.723H155.322Z" fill="#8D9EC4"/>
<path d="M103.247 107.045L102.462 107.1C102.369 106.762 102.213 106.445 102 106.167L102.63 105.535C102.78 105.386 102.899 105.209 102.98 105.013C103.062 104.818 103.103 104.609 103.103 104.397C103.103 104.186 103.062 103.977 102.98 103.781C102.899 103.586 102.78 103.409 102.63 103.26L100.975 101.605C100.827 101.455 100.65 101.335 100.455 101.254C100.26 101.172 100.051 101.13 99.84 101.13C99.6284 101.13 99.4188 101.171 99.2234 101.252C99.0279 101.334 98.8506 101.453 98.7017 101.603L98.185 102.198C97.8762 102.024 97.5367 101.911 97.185 101.865V100.973C97.1846 100.546 97.0148 100.137 96.713 99.8353C96.4111 99.5335 96.0019 99.3637 95.575 99.3633H93.23C92.8031 99.3637 92.3939 99.5335 92.092 99.8353C91.7902 100.137 91.6204 100.546 91.62 100.973L91.675 101.758C91.3369 101.854 91.0204 102.014 90.7433 102.23L90.1117 101.598C89.8054 101.305 89.3976 101.141 88.9733 101.141C88.5491 101.141 88.1413 101.305 87.835 101.598L86.18 103.253C85.8781 103.555 85.7085 103.965 85.7085 104.392C85.7085 104.819 85.8781 105.228 86.18 105.53L86.7767 106.043C86.6013 106.352 86.488 106.691 86.4433 107.043H85.5517C85.1251 107.044 84.7163 107.214 84.4148 107.516C84.1133 107.818 83.9438 108.227 83.9433 108.653V111C83.9438 111.426 84.1134 111.835 84.4149 112.137C84.7164 112.438 85.1252 112.608 85.5517 112.608L86.3367 112.55C86.4311 112.89 86.5913 113.208 86.8083 113.487L86.1767 114.117C85.8752 114.419 85.7059 114.828 85.7059 115.255C85.7059 115.682 85.8752 116.091 86.1767 116.393L87.83 118.05C88.1369 118.343 88.5449 118.506 88.9692 118.506C89.3934 118.506 89.8014 118.343 90.1083 118.05L90.625 117.455C90.9313 117.628 91.2679 117.741 91.6167 117.788V118.667C91.6171 119.093 91.7869 119.503 92.0887 119.805C92.3906 120.106 92.7998 120.276 93.2267 120.277H95.5683C95.9952 120.276 96.4045 120.106 96.7063 119.805C97.0081 119.503 97.1779 119.093 97.1783 118.667L97.125 117.882C97.4625 117.786 97.7783 117.626 98.055 117.41L98.6867 118.042C98.8356 118.192 99.013 118.311 99.2084 118.392C99.4038 118.474 99.6134 118.515 99.825 118.515C100.036 118.515 100.245 118.473 100.439 118.392C100.634 118.31 100.81 118.191 100.958 118.042L102.613 116.387C102.764 116.237 102.883 116.06 102.964 115.864C103.046 115.669 103.088 115.459 103.088 115.247C103.088 115.036 103.046 114.826 102.964 114.63C102.883 114.435 102.764 114.257 102.613 114.108L102.02 113.592C102.194 113.283 102.308 112.943 102.353 112.592H103.243C103.67 112.592 104.08 112.422 104.382 112.121C104.684 111.819 104.854 111.41 104.855 110.983V108.655C104.854 108.229 104.684 107.82 104.383 107.518C104.082 107.216 103.673 107.046 103.247 107.045ZM94.4 114.137C93.5473 114.137 92.7137 113.884 92.0048 113.41C91.2959 112.936 90.7435 112.262 90.4174 111.474C90.0914 110.687 90.0065 109.82 90.1733 108.983C90.3402 108.147 90.7513 107.379 91.3547 106.777C91.9582 106.174 92.7268 105.764 93.5633 105.599C94.3998 105.433 95.2666 105.519 96.054 105.847C96.8414 106.174 97.5141 106.727 97.9869 107.437C98.4597 108.147 98.7113 108.981 98.71 109.833C98.7069 110.975 98.2516 112.069 97.4438 112.875C96.636 113.682 95.5415 114.135 94.4 114.137Z" fill="#8D9EC4"/>
<path d="M156.667 137.37H93.3333C92.4129 137.37 91.6667 138.116 91.6667 139.037C91.6667 139.957 92.4129 140.703 93.3333 140.703H156.667C157.587 140.703 158.333 139.957 158.333 139.037C158.333 138.116 157.587 137.37 156.667 137.37Z" fill="white"/>
<path d="M93.3333 137.37H121.808V140.703H93.3333C92.8913 140.703 92.4674 140.528 92.1548 140.215C91.8423 139.903 91.6667 139.479 91.6667 139.037C91.6667 138.595 91.8423 138.171 92.1548 137.858C92.4674 137.546 92.8913 137.37 93.3333 137.37Z" fill="#470FAA"/>
<path d="M181.933 146.465L146.483 202.967C142.901 208.676 146.206 216.883 152.135 217L220.626 216.429C226.636 216.548 230.142 208.28 226.553 202.456L193.513 146.525C192.965 145.468 192.138 144.581 191.121 143.959C190.103 143.338 188.934 143.006 187.741 143C186.547 142.994 185.375 143.314 184.351 143.924C183.327 144.535 182.491 145.414 181.933 146.465Z" fill="#FFAA00"/>
<path d="M189.764 195H186.666C186.335 195 186.017 194.871 185.777 194.639C185.536 194.408 185.392 194.091 185.372 193.754L184.002 170.405C183.991 170.21 184.022 170.015 184.093 169.833C184.164 169.651 184.274 169.488 184.414 169.355C184.554 169.221 184.721 169.122 184.903 169.062C185.086 169.003 185.278 168.986 185.468 169.012L191.876 169.889C192.207 169.934 192.507 170.108 192.716 170.374C192.924 170.641 193.024 170.979 192.995 171.32L191.056 193.791C191.028 194.121 190.879 194.429 190.64 194.653C190.401 194.877 190.088 195 189.764 195Z" fill="white"/>
<path d="M189.215 198H186.785C185.799 198 185 198.799 185 199.785V202.215C185 203.201 185.799 204 186.785 204H189.215C190.201 204 191 203.201 191 202.215V199.785C191 198.799 190.201 198 189.215 198Z" fill="white"/>
</svg>
