<svg width="150" height="150" viewBox="0 0 150 150" fill="none" xmlns="http://www.w3.org/2000/svg">
<path d="M26.1399 70.92L27.4999 122.11C27.6969 124.266 28.6923 126.27 30.2907 127.73C31.8891 129.189 33.9753 129.999 36.1399 130L99.6799 131.17C101.19 131.169 102.674 130.774 103.985 130.026C105.297 129.277 106.391 128.2 107.16 126.9L111.45 119.26C112.132 118.109 112.536 116.815 112.63 115.48L110.29 61.72L26.1399 70.92Z" fill="#FC9F21"/>
<path d="M99.84 71.6999H27.84C23.02 71.6999 29.84 65.49 33.39 62.11C34.3429 61.212 35.6006 60.7082 36.91 60.7H108.6C113.42 60.7 106.97 66.92 103.39 70.29C102.432 71.1985 101.16 71.7034 99.84 71.6999Z" fill="#FFBA2F"/>
<path d="M73.4201 94.6C73.4236 93.5485 73.1732 92.5117 72.69 91.5778C72.2069 90.6439 71.5054 89.8404 70.6451 89.2358C69.7849 88.6311 68.7913 88.2431 67.749 88.1048C66.7066 87.9665 65.6463 88.082 64.6581 88.4414C63.6699 88.8008 62.7832 89.3935 62.0732 90.1692C61.3633 90.9448 60.8511 91.8804 60.5804 92.8965C60.3096 93.9125 60.2881 94.9789 60.5179 96.005C60.7477 97.0311 61.2218 97.9865 61.9001 98.79C62.9804 100.05 63.5823 101.65 63.6001 103.31V106.31C63.6001 107.183 63.9467 108.019 64.5637 108.636C65.1807 109.253 66.0175 109.6 66.8901 109.6C67.7626 109.6 68.5995 109.253 69.2165 108.636C69.8335 108.019 70.1801 107.183 70.1801 106.31V103.31C70.1511 101.73 70.7066 100.195 71.7401 99C72.8279 97.7934 73.4269 96.2246 73.4201 94.6Z" fill="#5B1A24"/>
<path d="M95.1701 63.8099C95.1701 63.6899 95.1701 63.5699 95.1701 63.4499L93.1701 43.3799C91.8001 28.7299 81.9401 18.8799 68.6501 18.8799C61.8242 18.8772 55.2766 21.5849 50.4462 26.4077C45.6159 31.2306 42.8981 37.774 42.8901 44.5999V63.8699C42.8901 64.0099 42.8901 64.1399 42.8901 64.2699C42.6563 64.4412 42.4646 64.6635 42.3294 64.9199C42.1943 65.1764 42.1193 65.4602 42.1101 65.7499C42.1801 67.1699 44.3901 68.2199 47.1101 68.0999C49.8301 67.9799 51.9001 66.7399 51.8401 65.3299C51.814 65.065 51.7308 64.8089 51.5961 64.5792C51.4615 64.3496 51.2786 64.152 51.0601 63.9999C51.0601 63.9399 51.0601 63.8899 51.0601 63.8299V44.5999C51.0614 42.2965 51.5164 40.0159 52.3991 37.8884C53.2818 35.7608 54.5749 33.828 56.2045 32.2002C57.8342 30.5723 59.7685 29.2815 61.8971 28.4012C64.0256 27.521 66.3067 27.0686 68.6101 27.0699C77.6101 27.0699 84.0101 33.7699 84.9801 44.1699L86.9801 64.0699C86.7991 64.2304 86.652 64.4254 86.5472 64.6435C86.4425 64.8615 86.3823 65.0983 86.3701 65.3399C86.3701 66.7999 88.5401 67.9899 91.2101 67.9899C93.8801 67.9899 96.0501 66.7999 96.0501 65.3399C96.0302 65.0345 95.9406 64.7378 95.788 64.4726C95.6355 64.2073 95.4241 63.9806 95.1701 63.8099Z" fill="#5B1A24"/>
<path d="M104.82 47.11L106.82 39.11C106.885 38.7423 106.809 38.3637 106.606 38.05C106.404 37.7363 106.09 37.5106 105.729 37.4183C105.367 37.326 104.984 37.3738 104.656 37.5521C104.328 37.7304 104.079 38.0262 103.96 38.38L101.96 46.38C101.901 46.6187 101.901 46.8684 101.96 47.1071C102.019 47.3459 102.136 47.5666 102.3 47.75C102.501 47.9508 102.748 48.0986 103.02 48.18C103.4 48.2742 103.803 48.2148 104.14 48.0145C104.477 47.8142 104.721 47.4892 104.82 47.11Z" fill="#FFBA2F"/>
<path d="M123.23 45.42C123.526 45.2034 123.731 44.8848 123.805 44.5259C123.879 44.1669 123.818 43.7932 123.632 43.477C123.447 43.1608 123.15 42.9247 122.801 42.8144C122.451 42.7041 122.073 42.7275 121.74 42.88L110.26 49.52C109.969 49.6882 109.744 49.9495 109.621 50.2617C109.497 50.5739 109.483 50.9186 109.58 51.24C109.61 51.3471 109.657 51.4485 109.72 51.54C109.814 51.7089 109.94 51.8576 110.091 51.9773C110.243 52.0971 110.417 52.1856 110.603 52.2377C110.789 52.2898 110.983 52.3044 111.175 52.2808C111.367 52.2571 111.552 52.1957 111.72 52.1L123.23 45.42Z" fill="#FFBA2F"/>
<path d="M121.06 60.2899C121.429 60.2961 121.787 60.1642 122.063 59.9202C122.34 59.6761 122.516 59.3376 122.556 58.9708C122.596 58.6041 122.497 58.2356 122.28 57.9376C122.062 57.6396 121.741 57.4336 121.38 57.3599L115.84 56.7799C115.505 56.7423 115.167 56.8211 114.883 57.0032C114.598 57.1853 114.386 57.4595 114.28 57.7799C114.242 57.883 114.219 57.9906 114.21 58.0999C114.186 58.2917 114.2 58.4863 114.252 58.6725C114.303 58.8587 114.391 59.033 114.51 59.1853C114.629 59.3376 114.777 59.465 114.945 59.5602C115.113 59.6554 115.298 59.7164 115.49 59.7399L121.06 60.2899Z" fill="#FFBA2F"/>
<path d="M101.094 87.3773C101.067 86.5438 100.371 85.89 99.5406 85.917C98.7098 85.9439 98.0583 86.6415 98.0854 87.475L99.028 116.5C99.055 117.333 99.7504 117.987 100.581 117.96C101.412 117.933 102.063 117.236 102.036 116.402L101.094 87.3773Z" fill="#FFBA2F"/>
</svg>
