<svg width="100" height="100" viewBox="0 0 100 100" fill="none" xmlns="http://www.w3.org/2000/svg">
<path d="M83.8158 35.9525L52.4945 13.8192C52.3458 13.7034 52.1661 13.6343 51.9781 13.6207C51.7901 13.607 51.6023 13.6494 51.4385 13.7425L15.4385 35.9752C15.1998 36.1302 15.0011 36.3395 14.8587 36.5859C14.7163 36.8324 14.6342 37.109 14.6191 37.3932L14.7525 82.2325C14.7474 82.3602 14.7678 82.4876 14.8125 82.6073C14.8572 82.727 14.9253 82.8366 15.0128 82.9296C15.1003 83.0227 15.2055 83.0975 15.3222 83.1495C15.4389 83.2015 15.5647 83.2297 15.6925 83.2325H83.3671C83.6215 83.2269 83.8633 83.1207 84.0395 82.9371C84.2157 82.7536 84.312 82.5076 84.3071 82.2532L84.4285 37.4145C84.4462 37.1401 84.4002 36.8652 84.2939 36.6116C84.1876 36.3579 84.0239 36.1323 83.8158 35.9525Z" fill="#D78124"/>
<path d="M74.9124 66.6002L22.5791 67.3848C22.4501 67.3934 22.3207 67.3763 22.1984 67.3345C22.0762 67.2927 21.9634 67.2271 21.8666 67.1414C21.7699 67.0557 21.6911 66.9516 21.6349 66.8353C21.5787 66.7189 21.5461 66.5926 21.5391 66.4635L21.7144 27.7202C21.7302 27.463 21.8471 27.2226 22.0396 27.0513C22.2321 26.8801 22.4845 26.792 22.7417 26.8062L75.1351 26.9968C75.3924 26.9845 75.6441 27.0747 75.8351 27.2477C76.026 27.4206 76.1406 27.6622 76.1537 27.9195L75.9204 65.6882C75.9047 65.9417 75.7905 66.1791 75.6022 66.3495C75.4138 66.5199 75.1662 66.6099 74.9124 66.6002Z" fill="#D1DAEF"/>
<path d="M22.5764 68.7178L74.9097 67.9331C75.1632 67.9421 75.4101 67.8518 75.598 67.6815C75.7859 67.5112 75.8999 67.2742 75.9157 67.0211L76.0737 41.9071L51.9891 57.8578C51.6168 58.1753 51.1531 58.3659 50.6651 58.4018C50.1772 58.4378 49.6905 58.3173 49.2757 58.0578L21.6657 40.3711L21.5391 67.7964C21.5459 67.9253 21.5783 68.0515 21.6343 68.1678C21.6903 68.284 21.7688 68.388 21.8653 68.4737C21.9618 68.5594 22.0743 68.6251 22.1964 68.667C22.3185 68.7089 22.4476 68.7262 22.5764 68.7178Z" fill="#BECAEA"/>
<path d="M84.3604 36.8072L51.9904 61.5505C51.6182 61.868 51.1544 62.0586 50.6665 62.0946C50.1786 62.1305 49.6919 62.01 49.2771 61.7505C49.2771 61.7505 14.9271 36.6765 14.8364 36.6318C14.6958 36.8619 14.6213 37.1262 14.6211 37.3958L14.7544 82.2352C14.7493 82.3628 14.7698 82.4902 14.8144 82.6099C14.8591 82.7296 14.9272 82.8392 15.0147 82.9323C15.1022 83.0254 15.2074 83.1001 15.3241 83.1521C15.4408 83.2041 15.5667 83.2323 15.6944 83.2352H83.3671C83.6215 83.2296 83.8633 83.1233 84.0395 82.9398C84.2157 82.7562 84.3119 82.5103 84.3071 82.2558L84.4284 37.4172C84.4357 37.2116 84.4128 37.0061 84.3604 36.8072Z" fill="#FFB460"/>
<path d="M76.6732 92.214C84.037 92.214 90.0065 86.2445 90.0065 78.8807C90.0065 71.5169 84.037 65.5474 76.6732 65.5474C69.3094 65.5474 63.3398 71.5169 63.3398 78.8807C63.3398 86.2445 69.3094 92.214 76.6732 92.214Z" fill="#470FAA"/>
<path d="M81.9678 77.8483L78.6425 77.839C78.5088 77.834 78.3823 77.7778 78.289 77.6819C78.1958 77.5861 78.1431 77.458 78.1418 77.3243L78.1005 73.3763C78.0998 73.3073 78.0854 73.2391 78.0581 73.1758C78.0308 73.1124 77.9912 73.055 77.9416 73.0071C77.892 72.9591 77.8333 72.9215 77.769 72.8964C77.7047 72.8714 77.6361 72.8593 77.5671 72.861L75.7918 72.9103C75.6569 72.914 75.5287 72.9699 75.4343 73.0663C75.3399 73.1627 75.2866 73.2921 75.2858 73.427L75.2618 77.1717C75.2614 77.2414 75.247 77.3103 75.2194 77.3744C75.1918 77.4384 75.1517 77.4962 75.1013 77.5444C75.0509 77.5926 74.9914 77.6302 74.9262 77.6549C74.861 77.6797 74.7915 77.691 74.7218 77.6883L71.4725 77.6817C71.336 77.6797 71.2042 77.7313 71.1053 77.8254C71.0065 77.9195 70.9485 78.0486 70.9438 78.185L70.8811 80.0883C70.8789 80.1578 70.8906 80.227 70.9155 80.2919C70.9404 80.3568 70.978 80.416 71.0262 80.4661C71.0743 80.5162 71.132 80.5562 71.1958 80.5838C71.2596 80.6113 71.3283 80.6257 71.3978 80.6263L74.7311 80.607C74.867 80.611 74.9959 80.668 75.0904 80.7658C75.1848 80.8636 75.2372 80.9944 75.2365 81.1303L75.2158 84.3777C75.2152 84.4474 75.2287 84.5166 75.2554 84.581C75.2822 84.6455 75.3216 84.7039 75.3713 84.7528C75.4211 84.8017 75.4802 84.84 75.5451 84.8656C75.61 84.8912 75.6794 84.9035 75.7491 84.9017L77.7091 84.8477C77.8456 84.8438 77.9752 84.7866 78.07 84.6882C78.1647 84.5898 78.2171 84.4582 78.2158 84.3217L78.1831 81.2517C78.1825 81.1818 78.1959 81.1125 78.2226 81.0479C78.2492 80.9833 78.2886 80.9247 78.3384 80.8757C78.3881 80.8266 78.4472 80.788 78.5122 80.7623C78.5771 80.7365 78.6466 80.724 78.7165 80.7257L81.8931 80.7023C82.0289 80.7034 82.1597 80.6514 82.2576 80.5574C82.3555 80.4633 82.4128 80.3347 82.4171 80.199L82.4771 78.3863C82.4795 78.3174 82.4682 78.2487 82.4438 78.1843C82.4194 78.1198 82.3825 78.0608 82.3351 78.0107C82.2877 77.9607 82.2308 77.9205 82.1677 77.8926C82.1047 77.8648 82.0367 77.8497 81.9678 77.8483Z" fill="white"/>
</svg>
