<svg width="24" height="24" viewBox="0 0 24 24" fill="none" xmlns="http://www.w3.org/2000/svg">
<path d="M3.75 9C3.94891 9 4.13968 8.92098 4.28033 8.78033C4.42098 8.63968 4.5 8.44891 4.5 8.25V5.25C4.50024 5.05116 4.57933 4.86053 4.71993 4.71993C4.86053 4.57933 5.05116 4.50024 5.25 4.5H8.25C8.44891 4.5 8.63968 4.42098 8.78033 4.28033C8.92098 4.13968 9 3.94891 9 3.75C9 3.55109 8.92098 3.36032 8.78033 3.21967C8.63968 3.07902 8.44891 3 8.25 3H5.25C4.65346 3.00064 4.08153 3.23789 3.65971 3.65971C3.23789 4.08153 3.00064 4.65346 3 5.25V8.25C3 8.44891 3.07902 8.63968 3.21967 8.78033C3.36032 8.92098 3.55109 9 3.75 9Z" fill="#0F63EC"/>
<path d="M8.25 19.5H5.25C5.05116 19.4998 4.86053 19.4207 4.71993 19.2801C4.57933 19.1395 4.50024 18.9488 4.5 18.75V15.75C4.5 15.5511 4.42098 15.3603 4.28033 15.2197C4.13968 15.079 3.94891 15 3.75 15C3.55109 15 3.36032 15.079 3.21967 15.2197C3.07902 15.3603 3 15.5511 3 15.75V18.75C3.00067 19.3465 3.23794 19.9184 3.65976 20.3402C4.08157 20.7621 4.65347 20.9993 5.25 21H8.25C8.44891 21 8.63968 20.921 8.78033 20.7803C8.92098 20.6397 9 20.4489 9 20.25C9 20.0511 8.92098 19.8603 8.78033 19.7197C8.63968 19.579 8.44891 19.5 8.25 19.5Z" fill="#0F63EC"/>
<path d="M20.25 15C20.0511 15 19.8603 15.079 19.7197 15.2197C19.579 15.3603 19.5 15.5511 19.5 15.75V18.75C19.4998 18.9488 19.4207 19.1395 19.2801 19.2801C19.1395 19.4207 18.9488 19.4998 18.75 19.5H15.75C15.5511 19.5 15.3603 19.579 15.2197 19.7197C15.079 19.8603 15 20.0511 15 20.25C15 20.4489 15.079 20.6397 15.2197 20.7803C15.3603 20.921 15.5511 21 15.75 21H18.75C19.3465 20.9993 19.9184 20.7621 20.3402 20.3402C20.7621 19.9184 20.9993 19.3465 21 18.75V15.75C21 15.5511 20.921 15.3603 20.7803 15.2197C20.6397 15.079 20.4489 15 20.25 15Z" fill="#0F63EC"/>
<path d="M19.5 3H15.75C15.5511 3 15.3603 3.07902 15.2197 3.21967C15.079 3.36032 15 3.55109 15 3.75C15 3.94891 15.079 4.13968 15.2197 4.28033C15.3603 4.42098 15.5511 4.5 15.75 4.5H19.5V8.25C19.5 8.44891 19.579 8.63968 19.7197 8.78033C19.8603 8.92098 20.0511 9 20.25 9C20.4489 9 20.6397 8.92098 20.7803 8.78033C20.921 8.63968 21 8.44891 21 8.25V4.5C20.9996 4.10228 20.8415 3.72096 20.5603 3.43973C20.279 3.15851 19.8977 3.00036 19.5 3Z" fill="#0F63EC"/>
<path d="M8.25 7.5C8.05109 7.5 7.86032 7.57902 7.71967 7.71967C7.57902 7.86032 7.5 8.05109 7.5 8.25V9.75C7.5 9.94891 7.57902 10.1397 7.71967 10.2803C7.86032 10.421 8.05109 10.5 8.25 10.5C8.44891 10.5 8.63968 10.421 8.78033 10.2803C8.92098 10.1397 9 9.94891 9 9.75V8.25C9 8.05109 8.92098 7.86032 8.78033 7.71967C8.63968 7.57902 8.44891 7.5 8.25 7.5Z" fill="#0F63EC"/>
<path d="M15.75 10.5C15.9489 10.5 16.1397 10.421 16.2803 10.2803C16.421 10.1397 16.5 9.94891 16.5 9.75V8.25C16.5 8.05109 16.421 7.86032 16.2803 7.71967C16.1397 7.57902 15.9489 7.5 15.75 7.5C15.5511 7.5 15.3603 7.57902 15.2197 7.71967C15.079 7.86032 15 8.05109 15 8.25V9.75C15 9.94891 15.079 10.1397 15.2197 10.2803C15.3603 10.421 15.5511 10.5 15.75 10.5Z" fill="#0F63EC"/>
<path d="M10.9502 13.5H11.7002C12.0979 13.4996 12.4792 13.3414 12.7604 13.0602C13.0416 12.779 13.1998 12.3977 13.2002 12V8.25C13.2002 8.05109 13.1212 7.86032 12.9805 7.71967C12.8399 7.57902 12.6491 7.5 12.4502 7.5C12.2513 7.5 12.0605 7.57902 11.9199 7.71967C11.7792 7.86032 11.7002 8.05109 11.7002 8.25V12H10.9502C10.7513 12 10.5605 12.079 10.4199 12.2197C10.2792 12.3603 10.2002 12.5511 10.2002 12.75C10.2002 12.9489 10.2792 13.1397 10.4199 13.2803C10.5605 13.421 10.7513 13.5 10.9502 13.5Z" fill="#0F63EC"/>
<path d="M15.5444 15.2217C15.4749 15.1517 15.3924 15.0962 15.3014 15.0582C15.2105 15.0202 15.1129 15.0005 15.0144 15.0002C14.9158 14.9999 14.8182 15.0191 14.727 15.0566C14.6358 15.094 14.553 15.1491 14.4831 15.2187C13.8232 15.8745 12.9306 16.2427 12.0002 16.2427C11.0698 16.2427 10.1771 15.8745 9.51722 15.2187C9.44739 15.1491 9.36455 15.094 9.27343 15.0565C9.1823 15.019 9.08468 14.9998 8.98613 15C8.78711 15.0004 8.59641 15.0799 8.45597 15.2209C8.31554 15.3619 8.23688 15.553 8.23731 15.752C8.23773 15.951 8.31719 16.1417 8.45822 16.2822C9.40018 17.2167 10.6733 17.7411 12.0002 17.7411C13.3271 17.7411 14.6002 17.2167 15.5421 16.2822C15.683 16.1418 15.7624 15.9513 15.7628 15.7524C15.7633 15.5535 15.6847 15.3626 15.5444 15.2217Z" fill="#0F63EC"/>
</svg>
